<?xml version="1.0" encoding="UTF-8" standalone="no"?>
<svg width="56px" height="50px" viewBox="0 0 56 50" version="1.1" xmlns="http://www.w3.org/2000/svg" xmlns:xlink="http://www.w3.org/1999/xlink">
    <!-- Generator: Sketch 3.8.1 (29687) - http://www.bohemiancoding.com/sketch -->
    <title>child</title>
    <desc>Created with Sketch.</desc>
    <defs></defs>
    <g id="Navigation" stroke="none" stroke-width="1" fill="none" fill-rule="evenodd">
        <g id="ez-homepage" transform="translate(-452.000000, -1860.000000)" fill="#003478">
            <g id="Group-9" transform="translate(326.000000, 1591.000000)">
                <g id="child" transform="translate(126.000000, 269.000000)">
                    <g id="Group">
                        <path d="M52.9297619,11.0470238 C54.0160714,14.0267857 52.9809524,17.1386905 50.622619,17.9970238 C48.2619048,18.8571429 45.4738095,17.1380952 44.3869048,14.1547619 C43.3047619,11.172619 44.3357143,8.06011905 46.6940476,7.20119048 C49.0517857,6.34285714 51.8446429,8.06488095 52.9297619,11.0470238 L52.9297619,11.0470238 Z" id="Shape"></path>
                        <path d="M33.9529762,19.7339286 C31.8791667,19.5672619 30.0535714,19.4184524 27.2869048,19.1964286 C25.4767857,19.0505952 21.2821429,17.0029762 21.2821429,17.0029762 C20.9886905,16.3136905 20.3535714,15.247619 19.775,14.7845238 C19.3565476,14.45 17.6375,14.1809524 16.7952381,14.1482143 C16.1940476,14.125 14.9803571,14.5261905 14.5095238,14.897619 C13.0190476,16.0755952 11.6505952,18.7970238 10.0154762,21.025 C8.38154762,23.252381 6.74880952,25.4803571 5.52261905,27.15 C5.50297619,27.1732143 4.56071429,28.0017857 4.54702381,28.0696429 C3.47321429,29.2005952 2.90119048,30.435119 2.90119048,32.2916667 C2.90119048,35.6988095 5.56785714,37.2125 8.45833333,38.3791667 C8.65297619,38.4565476 13.902381,42.1190476 17.35,42.8857143 C17.8875,43.0059524 13.389881,42.0613095 8.90357143,42.1589286 C7.1297619,42.197619 5.35059524,42.4583333 3.93988095,42.7279762 C2.73809524,42.0291667 1.56130952,41.8327381 0.901190476,42.4922619 C-0.0678571429,43.4607143 1.18333333,45.525 2.81785714,47.1607143 C4.45357143,48.7970238 6.68452381,50.1309524 7.65357143,49.1607143 C8.01964286,48.7952381 8.04702381,48.2035714 7.85297619,47.5202381 C13.0470238,48.0875 22.9559524,48.8238095 23.464881,45.6047619 C23.9666667,42.4333333 15.9559524,32.9892857 13.7327381,31.7458333 C14.8541667,30.2154762 16.1922619,28.3904762 17.5452381,26.5458333 C18.1988095,25.6553571 19.5589286,23.8125 20.185119,22.9583333 C22.235119,23.122619 24.1845238,24.2982143 26.8595238,24.5130952 C29.6255952,24.7363095 31.4410714,24.8803571 33.5178571,25.0488095 C35.2767857,25.0964286 36.3303571,23.6297619 36.4130952,22.6095238 C36.4946429,21.5892857 35.3458333,19.847619 33.9529762,19.7339286 L33.9529762,19.7339286 Z" id="Shape"></path>
                        <path d="M53.5011905,40.5636905 L53.5011905,34.3464286 C53.5089286,34.2404762 55.1404762,28.139881 55.1404762,26.152381 C55.1404762,24.1660714 54.4202381,20.6541667 53.9309524,20.2136905 C53.447619,19.652381 51.9220238,18.7339286 51.0309524,18.7339286 C50.1529762,18.7339286 48.2690476,19.9988095 47.9904762,20.2 C47.9375,20.0940476 47.9184524,20.0678571 47.9708333,20.2136905 C46.8440476,20.6178571 45.7660714,22.4517857 44.2613095,22.989881 C42.7589286,23.5297619 39.7666667,24.5357143 39.7339286,24.6488095 C39.4922619,24.8267857 38.5327381,25.4529762 38.922619,27.027381 C39.2767857,28.4744048 40.8672619,28.3702381 41.0589286,28.35 C41.1565476,28.4160714 44.1065476,27.2964286 45.6119048,26.7577381 C46.4136905,26.4714286 47.2130952,26.185119 47.9565476,25.9184524 C47.9577381,25.9613095 46.139881,30.2660714 48.0434524,33.8220238 C49.7107143,36.9345238 49.4053571,42.0255952 49.0511905,45.2589286 L48.8767857,45.2589286 C47.9797619,45.2589286 47.252381,45.9863095 47.252381,46.8839286 C47.252381,47.7809524 47.9803571,48.5083333 48.8767857,48.5083333 L52.3988095,48.5083333 C53.2958333,48.5083333 54.0232143,47.7803571 54.0232143,46.8839286 C54.0232143,46.4446429 53.8458333,46.047619 53.5630952,45.7553571 C53.5547619,44.0964286 53.5011905,41.8791667 53.5011905,40.5636905 L53.5011905,40.5636905 Z" id="Shape"></path>
                        <path d="M25.6178571,2.58809524 C26.7547619,2.22857143 26.4875,0.954761905 24.5059524,0.563690476 C20.5875,-0.210714286 17.7119048,2.4327381 17.014881,3.7 C16.2160714,5.15238095 13.639881,10.8642857 12.1113095,11.4291667 C10.2375,12.1214286 14.7440476,14.164881 16.6327381,13.4678571 C16.964881,13.3446429 17.2660714,13.2029762 17.5428571,13.0482143 C17.9577381,13.435119 18.4386905,13.7422619 18.9833333,13.9404762 C21.7357143,14.9422619 25.0130952,12.8815476 26.3005952,9.33928571 C27.2172619,6.81964286 26.877381,4.23452381 25.6178571,2.58809524 L25.6178571,2.58809524 Z" id="Shape"></path>
                    </g>
                </g>
            </g>
        </g>
    </g>
</svg>