<?xml version="1.0" encoding="UTF-8" standalone="no"?>
<svg width="38px" height="50px" viewBox="0 0 38 50" version="1.1" xmlns="http://www.w3.org/2000/svg" xmlns:xlink="http://www.w3.org/1999/xlink">
    <!-- Generator: Sketch 3.8.1 (29687) - http://www.bohemiancoding.com/sketch -->
    <title>hand</title>
    <desc>Created with Sketch.</desc>
    <defs></defs>
    <g id="Navigation" stroke="none" stroke-width="1" fill="none" fill-rule="evenodd">
        <g id="ez-homepage" transform="translate(-933.000000, -1860.000000)" fill="#003478">
            <g id="Group-9" transform="translate(326.000000, 1591.000000)">
                <g id="hand" transform="translate(606.500000, 269.000000)">
                    <g id="Group">
                        <path d="M35.8005319,7.55319149 C34.4175532,7.55319149 33.3005319,8.67021277 33.3005319,10.0531915 L33.3005319,20.0265957 L30.8138298,20.0265957 L30.8138298,5.05319149 C30.8138298,3.67021277 29.6968085,2.55319149 28.3138298,2.55319149 C26.9308511,2.55319149 25.8138298,3.67021277 25.8138298,5.05319149 L25.8138298,17.5132979 L23.3138298,17.5132979 L23.3138298,2.56648936 C23.3138298,1.18351064 22.1968085,0.0664893617 20.8138298,0.0664893617 C19.4308511,0.0664893617 18.3138298,1.18351064 18.3138298,2.56648936 L18.3138298,17.5265957 L15.8138298,17.5265957 L15.8138298,5.05319149 C15.8138298,3.67021277 14.6968085,2.55319149 13.3138298,2.55319149 C11.9308511,2.55319149 10.8138298,3.67021277 10.8138298,5.05319149 L10.8138298,23.9760638 L5.40159574,15.8510638 C4.64361702,14.7074468 3.08776596,14.3882979 1.94414894,15.1595745 C0.800531915,15.9175532 0.494680851,17.4734043 1.25265957,18.6170213 L10.8670213,40.0265957 L10.8670213,49.9335106 L35.8005319,49.9335106 L35.8005319,39.9601064 L38.3005319,34.6941489 L38.3005319,10.0398936 C38.287234,8.65691489 37.1702128,7.55319149 35.8005319,7.55319149 L35.8005319,7.55319149 Z" id="Shape"></path>
                    </g>
                </g>
            </g>
        </g>
    </g>
</svg>