<?xml version="1.0" encoding="UTF-8" standalone="no"?>
<svg width="60px" height="60px" viewBox="0 0 60 60" version="1.1" xmlns="http://www.w3.org/2000/svg" xmlns:xlink="http://www.w3.org/1999/xlink">
    <!-- Generator: Sketch 3.8.1 (29687) - http://www.bohemiancoding.com/sketch -->
    <title>questionmark</title>
    <desc>Created with Sketch.</desc>
    <defs></defs>
    <g id="Navigation" stroke="none" stroke-width="1" fill="none" fill-rule="evenodd">
        <g id="ez-homepage" transform="translate(-445.000000, -1591.000000)" fill="#003478">
            <g id="Group-9" transform="translate(326.000000, 1591.000000)">
                <g id="questionmark" transform="translate(119.000000, 0.000000)">
                    <g id="Group">
                        <path d="M29.5555556,39.5555556 C28.4444444,39.5555556 27.5555556,40.4444444 27.5555556,41.5555556 L27.5555556,42.2222222 C27.5555556,43.3333333 28.4444444,44.2222222 29.5555556,44.2222222 C30.6666667,44.2222222 31.5555556,43.3333333 31.5555556,42.2222222 L31.5555556,41.4444444 C31.5555556,40.4444444 30.6666667,39.5555556 29.5555556,39.5555556 L29.5555556,39.5555556 Z" id="Shape"></path>
                        <path d="M29.5555556,15.7777778 C26.4444444,15.7777778 23.6666667,17.4444444 22.2222222,20 C21.6666667,21 22,22.1111111 22.8888889,22.7777778 C23.8888889,23.3333333 25.1111111,23 25.6666667,22 C26.4444444,20.6666667 27.8888889,19.7777778 29.5555556,19.7777778 C32.1111111,19.7777778 34.2222222,21.7777778 34.2222222,24.3333333 C34.2222222,26.8888889 32.1111111,28.8888889 29.5555556,28.8888889 C28.4444444,28.8888889 27.5555556,29.7777778 27.5555556,30.8888889 C27.5555556,30.8888889 27.5555556,30.8888889 27.5555556,31 C27.5555556,31 27.5555556,31 27.5555556,31.1111111 L27.5555556,35.3333333 C27.5555556,36.4444444 28.4444444,37.3333333 29.5555556,37.3333333 C30.6666667,37.3333333 31.5555556,36.4444444 31.5555556,35.3333333 L31.5555556,32.6666667 C35.3333333,31.7777778 38.1111111,28.4444444 38.1111111,24.3333333 C38.1111111,19.5555556 34.2222222,15.7777778 29.5555556,15.7777778 L29.5555556,15.7777778 Z" id="Shape"></path>
                        <path d="M30,0.888888889 C14,0.888888889 0.888888889,13.8888889 0.888888889,30 C0.888888889,46 13.8888889,59.1111111 30,59.1111111 C46,59.1111111 59.1111111,46.1111111 59.1111111,30 C59.1111111,14 46,0.888888889 30,0.888888889 L30,0.888888889 Z M30,53 C17.3333333,53 7,42.6666667 7,30 C7,17.3333333 17.3333333,7 30,7 C42.6666667,7 53,17.3333333 53,30 C53,42.6666667 42.6666667,53 30,53 L30,53 Z" id="Shape"></path>
                    </g>
                </g>
            </g>
        </g>
    </g>
</svg>