<?xml version="1.0" encoding="UTF-8" standalone="no"?>
<svg width="44px" height="60px" viewBox="0 0 44 60" version="1.1" xmlns="http://www.w3.org/2000/svg" xmlns:xlink="http://www.w3.org/1999/xlink">
    <!-- Generator: Sketch 3.8.1 (29687) - http://www.bohemiancoding.com/sketch -->
    <title>water</title>
    <desc>Created with Sketch.</desc>
    <defs></defs>
    <g id="Navigation" stroke="none" stroke-width="1" fill="none" fill-rule="evenodd">
        <g id="ez-homepage" transform="translate(-928.000000, -1591.000000)" fill="#003478">
            <g id="Group-9" transform="translate(326.000000, 1591.000000)">
                <g id="water" transform="translate(602.000000, 0.000000)">
                    <g id="Group">
                        <path d="M29.2889732,21.529375 C27.0147188,18.84125 24.4968616,15.865625 22.1741384,12.41375 C19.8388259,15.920625 17.2240313,18.924375 14.8780179,21.619375 C9.56282143,27.725 5.72686607,32.130625 5.72686607,39.604375 C5.72686607,47.2025 13.4982321,54.1225 22.03125,54.1225 C30.5642679,54.1225 38.3350045,47.2025 38.3350045,39.604375 C38.3350045,32.215 34.5405938,27.733125 29.2889732,21.529375 L29.2889732,21.529375 Z M22.03125,50.95125 C15.2922054,50.95125 8.92013839,45.436875 8.92013839,39.604375 C8.92013839,38.866875 9.52253571,38.269375 10.2646741,38.269375 C11.0068125,38.269375 11.6092098,38.866875 11.6092098,39.604375 C11.6092098,43.9025 16.8683839,48.281875 22.0306205,48.281875 C22.7733884,48.281875 23.3751563,48.879375 23.3751563,49.616875 C23.3751563,50.354375 22.7740179,50.95125 22.03125,50.95125 L22.03125,50.95125 Z" id="Shape"></path>
                        <path d="M22.03125,0.37 C16.2540268,17.49 0.18065625,22.60375 0.18065625,39.604375 C0.18065625,50.66375 10.8928795,59.63 22.03125,59.63 C33.1696205,59.63 43.8818437,50.66375 43.8818437,39.604375 C43.8818437,23.125 28.8590491,17.8025 22.03125,0.37 L22.03125,0.37 Z M22.03125,56.7925 C12.09075,56.7925 3.03779464,48.600625 3.03779464,39.604375 C3.03779464,31.13625 7.57937946,25.92 12.8372946,19.880625 C15.6402991,16.660625 18.532058,13.338125 21.0121473,9.24125 C21.2538616,8.84125 21.6875625,8.59625 22.1571429,8.59375 L22.1646964,8.59375 C22.6311295,8.59375 23.0648304,8.83375 23.3090625,9.22875 C25.8281786,13.28875 28.6236295,16.593125 31.327808,19.78875 C36.5391429,25.945 41.0234464,31.241875 41.0234464,39.604375 C41.0240759,48.600625 31.97175,56.7925 22.03125,56.7925 L22.03125,56.7925 Z" id="Shape"></path>
                    </g>
                </g>
            </g>
        </g>
    </g>
</svg>