<?xml version="1.0" encoding="UTF-8" standalone="no"?>
<svg width="42px" height="50px" viewBox="0 0 42 50" version="1.1" xmlns="http://www.w3.org/2000/svg" xmlns:xlink="http://www.w3.org/1999/xlink">
    <!-- Generator: Sketch 3.8.1 (29687) - http://www.bohemiancoding.com/sketch -->
    <title>beaker</title>
    <desc>Created with Sketch.</desc>
    <defs></defs>
    <g id="Navigation" stroke="none" stroke-width="1" fill="none" fill-rule="evenodd">
        <g id="ez-enews" transform="translate(-781.000000, -1237.000000)" fill="#003478">
            <g id="beaker" transform="translate(781.000000, 1237.000000)">
                <g id="Group">
                    <path d="M4.44444444,50 L37.7777778,50 C39.2666667,50 40.6416667,49.2055556 41.3861111,47.9166667 C42.1305556,46.6277778 42.1305556,45.0388889 41.3861111,43.75 L28.0555556,20.6605556 L28.0555556,0 L14.1666667,0 L14.1666667,20.6605556 L0.836111111,43.75 C0.0916666667,45.0388889 0.0916666667,46.6277778 0.836111111,47.9166667 C1.58055556,49.2055556 2.95555556,50 4.44444444,50 L4.44444444,50 Z M18.3333333,4.16666667 L23.8888889,4.16666667 L23.8888889,6.94444444 L18.3333333,6.94444444 L18.3333333,4.16666667 L18.3333333,4.16666667 Z M18.3333333,21.7772222 L18.3333333,9.72222222 L23.8888889,9.72222222 L23.8888889,21.7772222 L37.7777778,45.8333333 L4.44444444,45.8333333 L18.3333333,21.7772222 L18.3333333,21.7772222 Z" id="Shape"></path>
                    <polygon id="Shape" points="26.5516667 31.9444444 15.6705556 31.9444444 9.25555556 43.0555556 32.9666667 43.0555556"></polygon>
                </g>
            </g>
        </g>
    </g>
</svg>