<?xml version="1.0" encoding="UTF-8" standalone="no"?>
<svg width="12px" height="23px" viewBox="0 0 12 23" version="1.1" xmlns="http://www.w3.org/2000/svg" xmlns:xlink="http://www.w3.org/1999/xlink">
    <!-- Generator: Sketch 3.8.1 (29687) - http://www.bohemiancoding.com/sketch -->
    <title>facebook</title>
    <desc>Created with Sketch.</desc>
    <defs></defs>
    <g id="Navigation" stroke="none" stroke-width="1" fill="none" fill-rule="evenodd">
        <g id="ez-enews" transform="translate(-1155.000000, -29.000000)" fill="#0098DB">
            <g id="Header" transform="translate(230.000000, 29.000000)">
                <g id="facebook" transform="translate(925.000000, 0.000000)">
                    <path d="M4.4265,1.0905 C3.584,1.5475 2.994,2.1585 2.6705,2.908 C2.368,3.6125 2.22,4.6095 2.22,5.962 L2.22,6.422 L0.041,6.422 L0.041,10.8215 L2.22,10.8215 L2.22,22.566 L7.456,22.566 L7.456,10.822 L10.3885,10.822 L10.3885,6.4225 L7.456,6.4225 L7.456,6.032 C7.456,5.1845 7.63,4.9715 7.6515,4.9485 C7.764,4.8275 8.028,4.761 8.3925,4.761 C8.913,4.761 9.468,4.829 10.0415,4.9665 L10.706,5.125 L11.479,1.141 L10.919,0.9645 C8.6495,0.2515 6.03,0.2205 4.4265,1.0905 L4.4265,1.0905 Z M9.6735,3.556 C8.435,3.3545 7.2675,3.4325 6.688,4.0565 C6.32,4.4505 6.1415,5.096 6.1415,6.031 L6.1415,7.7345 L9.0755,7.7345 L9.0755,9.5095 L6.1415,9.5095 L6.1415,21.2555 L3.53,21.2555 L3.53,9.51 L1.352,9.51 L1.352,7.735 L3.53,7.735 L3.53,5.962 C3.53,4.8095 3.6455,3.9565 3.874,3.4285 C4.0815,2.948 4.466,2.562 5.051,2.2435 C6.1995,1.62 8.194,1.61 9.965,2.0565 L9.6735,3.556 L9.6735,3.556 Z" id="Shape"></path>
                </g>
            </g>
        </g>
    </g>
</svg>