<?xml version="1.0" encoding="UTF-8" standalone="no"?>
<svg width="30px" height="50px" viewBox="0 0 30 50" version="1.1" xmlns="http://www.w3.org/2000/svg" xmlns:xlink="http://www.w3.org/1999/xlink">
    <!-- Generator: Sketch 3.8.1 (29687) - http://www.bohemiancoding.com/sketch -->
    <title>hand</title>
    <desc>Created with Sketch.</desc>
    <defs></defs>
    <g id="Navigation" stroke="none" stroke-width="1" fill="none" fill-rule="evenodd">
        <g id="ez-enews" transform="translate(-789.000000, -1425.000000)" fill="#003478">
            <g id="hand" transform="translate(789.000000, 1425.000000)">
                <g id="Group">
                    <path d="M0.2525,45.868 L0.2525,45.1085 L0.2525,37.1345 L0.2525,27.785 L0.2525,13.3785 C0.2525,12.062 1.351,10.992 2.706,10.992 C4.0575,10.992 5.1565,12.062 5.1565,13.3785 L5.1565,23.851 L5.893,23.851 L5.893,5.525 C5.893,3.8795 6.992,2.5495 8.3445,2.5495 C9.6995,2.5495 10.795,3.8795 10.795,5.525 L10.795,23.851 L11.639,23.851 L11.639,3.049 C11.639,1.3645 12.734,0 14.0895,0 C15.4425,0 16.54,1.3645 16.54,3.049 L16.54,23.851 L17.4145,23.851 L17.4145,5.3325 C17.4145,3.691 18.5155,2.357 19.868,2.357 C21.2205,2.357 22.3185,3.691 22.3185,5.3325 L22.3185,27.6905 L22.3295,27.785 L22.3295,34.0605 L25.128,27.649 C25.5455,26.358 26.924,25.6515 28.214,26.0625 C29.253,26.3975 29.916,27.3605 29.916,28.397 C29.916,28.6465 29.8775,28.8995 29.7985,29.1475 L21.9495,47.3995 L21.941,47.406 C21.198,48.8135 19.463,49.8025 17.44,49.8025 L5.143,49.8025 C2.443,49.802 0.2525,48.041 0.2525,45.868" id="Shape"></path>
                </g>
            </g>
        </g>
    </g>
</svg>