<?xml version="1.0" encoding="UTF-8" standalone="no"?>
<svg width="55px" height="50px" viewBox="0 0 55 50" version="1.1" xmlns="http://www.w3.org/2000/svg" xmlns:xlink="http://www.w3.org/1999/xlink">
    <!-- Generator: Sketch 3.8.1 (29687) - http://www.bohemiancoding.com/sketch -->
    <title>heart</title>
    <desc>Created with Sketch.</desc>
    <defs></defs>
    <g id="Navigation" stroke="none" stroke-width="1" fill="none" fill-rule="evenodd">
        <g id="ez-enews" transform="translate(-775.000000, -1143.000000)" fill="#003478">
            <g id="heart" transform="translate(775.000000, 1143.000000)">
                <g id="Group">
                    <path d="M16.1515625,7.02109375 C10.896875,7.02109375 6.61953125,11.2960938 6.61953125,16.55 C6.61953125,17.3476563 7.26484375,17.9945313 8.0640625,17.9945313 C8.86171875,17.9945313 9.5078125,17.3484375 9.5078125,16.55 C9.5078125,12.8875 12.4882812,9.90703125 16.1523437,9.90703125 C16.95,9.90703125 17.5953125,9.26171875 17.5953125,8.4640625 C17.5953125,7.6671875 16.9484375,7.02109375 16.1515625,7.02109375 L16.1515625,7.02109375 Z" id="Shape"></path>
                    <path d="M46.0875,30.5875 L44.6117188,30.5875 L44.6117188,29.1117187 C44.6117188,28.5429687 44.15,28.08125 43.58125,28.08125 C43.0109375,28.08125 42.5507813,28.5429687 42.5507813,29.1117187 L42.5507813,30.5875 L41.0765625,30.5875 C40.5070313,30.5875 40.0445313,31.0492187 40.0445313,31.61875 C40.0445313,32.1882812 40.50625,32.65 41.0765625,32.65 L42.5507813,32.65 L42.5507813,34.1234375 C42.5507813,34.6929687 43.0109375,35.1546875 43.58125,35.1546875 C44.1507813,35.1546875 44.6117188,34.6929687 44.6117188,34.1234375 L44.6117188,32.6492187 L46.0875,32.6492187 C46.6570313,32.6492187 47.11875,32.1875 47.11875,31.61875 C47.11875,31.0484375 46.6578125,30.5875 46.0875,30.5875 L46.0875,30.5875 Z" id="Shape"></path>
                    <path d="M54.3773437,16.0859375 C54.3773437,7.6078125 47.4796875,0.7109375 39.0015625,0.7109375 C34.4757812,0.7109375 30.2460937,2.6796875 27.34375,6.059375 C24.4367187,2.68203125 20.196875,0.7109375 15.684375,0.7109375 C7.20625,0.7109375 0.309375,7.6078125 0.309375,16.0859375 C0.309375,20.1179688 1.8578125,23.925 4.66875,26.8125 L23.9070312,47.75625 C24.8132812,48.7429688 26.0351562,49.2890625 27.3414062,49.2890625 C28.6476562,49.2890625 29.8671875,48.7429688 30.7765625,47.75625 L39.3,38.4765625 C40.5429687,39.25625 42.0070312,39.7140625 43.578125,39.7140625 C48.04375,39.7140625 51.6742187,36.08125 51.6742187,31.6171875 C51.6742187,29.8 51.0671875,28.125 50.0507812,26.7742188 C52.8414062,23.8914063 54.3773437,20.1 54.3773437,16.0859375 L54.3773437,16.0859375 Z M28.653125,45.8023437 C28.2976562,46.1882812 27.834375,46.4015625 27.34375,46.4015625 C26.853125,46.4015625 26.3867187,46.1890625 26.034375,45.8023437 L6.7953125,24.8585937 C6.7796875,24.8421875 6.765625,24.828125 6.753125,24.8125 C4.4578125,22.4664062 3.196875,19.3664062 3.196875,16.0851562 C3.196875,9.1984375 8.7984375,3.596875 15.6835937,3.596875 C19.8335937,3.596875 23.6984375,5.6484375 26.0289062,9.08671875 L26.1203125,9.2296875 C26.3820312,9.64296875 26.8367187,9.896875 27.3273437,9.90078125 C27.8195312,9.90234375 28.278125,9.65703125 28.5476562,9.2484375 C30.8679687,5.71015625 34.775,3.596875 39.0007812,3.596875 C45.8875,3.596875 51.4875,9.2 51.4875,16.0851562 C51.4875,19.3640625 50.228125,22.4609375 47.9398437,24.8054687 C46.6796875,23.9976562 45.1851562,23.5210937 43.5804687,23.5210937 C39.1164062,23.5210937 35.4851562,27.1523437 35.4851562,31.615625 C35.4851562,33.4679687 36.115625,35.1679687 37.1640625,36.534375 L28.653125,45.8023437 L28.653125,45.8023437 Z M43.58125,37.2382812 C40.48125,37.2382812 37.9601562,34.7179687 37.9601562,31.6171875 C37.9601562,28.5179687 40.4820312,25.9984375 43.58125,25.9984375 C46.6804687,25.9984375 49.2023437,28.51875 49.2023437,31.6171875 C49.2023437,34.7171875 46.68125,37.2382812 43.58125,37.2382812 L43.58125,37.2382812 Z" id="Shape"></path>
                </g>
            </g>
        </g>
    </g>
</svg>