<?xml version="1.0" encoding="UTF-8" standalone="no"?>
<svg width="442px" height="135px" viewBox="0 0 442 135" version="1.1" xmlns="http://www.w3.org/2000/svg" xmlns:xlink="http://www.w3.org/1999/xlink">
    <!-- Generator: Sketch 3.8.2 (29753) - http://www.bohemiancoding.com/sketch -->
    <title>nea-logo-primary-RGB</title>
    <desc>Created with Sketch.</desc>
    <defs></defs>
    <g id="Long-Form-Content" stroke="none" stroke-width="1" fill="none" fill-rule="evenodd">
        <g id="Desktop-HD" transform="translate(-394.000000, -177.000000)">
            <g id="nea-logo-primary-RGB" transform="translate(394.000000, 177.000000)">
                <g id="Type" transform="translate(166.000000, 20.000000)">
                    <path d="M0.042124424,56.4514474 L9.76265438,56.4514474 L9.76265438,8.03951316 L0.042124424,8.03951316 L0.042124424,0.893421053 L57.3224055,0.893421053 L57.3224055,22.1440789 L51.222023,22.1440789 C48.1737465,10.5168421 47.0287281,7.94634211 39.4054839,7.94634211 L22.0578802,7.94634211 L22.0578802,28.3380395 L28.0625253,28.3380395 C34.3543825,28.3380395 35.1177281,27.3859079 36.6418664,19.0924079 L42.7396959,19.0924079 L42.7396959,44.2524211 L36.6418664,44.2524211 C35.3053733,35.7700263 34.3543825,34.8191711 28.0625253,34.8191711 L22.0578802,34.8191711 L22.0578802,56.5446184 L39.0225346,56.5446184 C47.9809954,56.5446184 49.1272903,53.3997763 52.081106,40.2486184 L58.1789355,40.2486184 L58.1789355,63.5962632 L0.042124424,63.5962632 L0.042124424,56.4514474" id="Fill-1" fill="#253867"></path>
                    <path d="M65.1549954,48.0954079 C65.1549954,37.7368289 72.4259263,30.7426184 82.8510829,30.7426184 C92.1133502,30.7426184 96.8478802,36.2971447 96.8478802,41.1662895 C96.8478802,44.5970263 94.9267512,47.0666974 91.3576636,47.0666974 C87.9979217,47.0666974 86.2121014,44.8025132 86.2121014,42.195 C86.2121014,40.0010132 87.6532673,38.4260395 89.0957097,37.8746711 C88.1345069,36.6404737 86.4891014,35.6781316 83.8122857,35.6781316 C79.2858249,35.6781316 75.9248065,39.9320921 75.9248065,47.3385526 C75.9248065,54.0634605 78.6692765,58.4527105 84.0190783,58.4527105 C87.7221982,58.4527105 90.2637051,56.2561711 91.5644562,52.5548553 L96.9168111,52.5548553 C95.4041613,59.4801447 90.60453,64.2790921 82.5102581,64.2790921 C71.6025853,64.2790921 65.1549954,57.7660526 65.1549954,48.0954079" id="Fill-2" fill="#253867"></path>
                    <path d="M103.152502,58.8636842 L121.950207,36.1605789 L115.981304,36.1605789 C111.728014,36.1605789 110.491088,36.8472368 108.435926,44.3213421 L103.839258,44.3213421 L103.839258,31.4969211 L133.133604,31.4969211 L133.133604,36.2295 L114.265691,58.8636842 L121.333659,58.8636842 C125.445258,58.8636842 126.821323,58.17575 128.811382,50.1528289 L133.405498,50.1528289 L133.405498,63.5962632 L103.152502,63.5962632 L103.152502,58.8636842" id="Fill-3" fill="#253867"></path>
                    <path d="M149.042594,44.5293816 L161.046779,44.5293816 C160.705954,38.0125132 158.920134,35.4037237 155.215737,35.4037237 C151.650479,35.4037237 149.454903,37.6691842 149.042594,44.5293816 L149.042594,44.5293816 Z M148.97494,48.8484342 C149.387249,56.3263684 152.404889,58.7973158 157.481521,58.7973158 C161.322502,58.7973158 163.726147,57.2159605 165.166037,53.1700395 L170.517115,53.1700395 C169.280189,59.8923947 164.751175,64.2790921 155.765908,64.2790921 C145.066304,64.2790921 138.548507,57.6958553 138.548507,47.821 C138.548507,38.0814342 145.750507,30.7426184 155.42253,30.7426184 C166.259995,30.7426184 171.337903,38.4260395 170.85794,48.8484342 L148.97494,48.8484342 L148.97494,48.8484342 Z" id="Fill-4" fill="#253867"></path>
                    <path d="M220.452429,30.8115395 C227.174465,30.8115395 229.916382,35.4751974 229.916382,42.1260789 L229.916382,57.9013421 L234.583258,57.9013421 L234.583258,63.5962632 L216.469756,63.5962632 L216.469756,57.9013421 L219.903535,57.9013421 L219.903535,43.5006711 C219.903535,41.3041316 219.489949,39.5887632 218.464922,38.5587763 C217.775613,37.8746711 216.883341,37.5326184 215.58259,37.5326184 C212.701535,37.5326184 209.748995,40.7578684 209.748995,45.3500526 L209.748995,57.9013421 L213.042359,57.9013421 L213.042359,63.5962632 L196.303645,63.5962632 L196.303645,57.9013421 L199.734871,57.9013421 L199.734871,43.5006711 C199.734871,41.3041316 199.256184,39.5887632 198.224774,38.5587763 C197.606949,37.8746711 196.649576,37.5326184 195.41265,37.5326184 C192.531594,37.5326184 189.581608,40.7578684 189.581608,45.3500526 L189.581608,57.9013421 L192.874972,57.9013421 L192.874972,63.5962632 L174.83423,63.5962632 L174.83423,57.9013421 L179.566207,57.9013421 L179.566207,37.1892895 L174.83423,37.1892895 L174.83423,31.4969211 L188.963783,31.4969211 L188.963783,39.9320921 C191.22829,34.5128553 194.727171,30.8115395 200.286318,30.8115395 C205.772705,30.8115395 208.651207,34.0355132 209.337963,39.3143553 C211.672677,34.1720789 215.100074,30.8115395 220.452429,30.8115395" id="Fill-5" fill="#253867"></path>
                    <path d="M258.655452,51.3870263 L258.655452,48.2319737 C258.03635,48.3685395 257.28194,48.4361842 255.56888,48.7807895 C250.696488,49.6040132 249.187668,51.1802632 249.187668,54.2663947 C249.187668,56.4616579 250.424594,58.3812368 253.443512,58.3812368 C256.52753,58.3812368 258.655452,55.5018684 258.655452,51.3870263 L258.655452,51.3870263 Z M238.965475,55.7086316 C238.965475,53.5835658 239.792645,51.5925132 241.231258,50.1528289 C243.357903,48.0239342 246.652544,46.6544474 254.538747,45.6270132 C258.310797,45.0769211 258.655452,45.0092763 258.655452,44.1847763 L258.655452,41.3730526 C258.655452,37.2594868 256.734323,35.7496053 252.755479,35.7496053 C251.381968,35.7496053 249.943355,36.0227368 248.638774,36.5702763 C249.670184,37.3271316 250.286733,38.4924079 250.286733,40.0686579 C250.286733,42.4706842 248.230295,44.3213421 245.416894,44.3213421 C241.916737,44.3213421 240.201124,42.0584342 240.201124,39.5211184 C240.201124,33.6232632 247.543539,30.8115395 255.432295,30.8115395 C265.104318,30.8115395 268.532991,35.3373553 268.532991,41.9907895 L268.532991,56.6007763 C268.532991,58.17575 269.149539,58.5203553 270.248604,58.5203553 C271.003014,58.5203553 271.757424,57.7660526 272.376525,55.4342237 L275.734991,56.5305789 C274.432963,61.8145263 271.895286,64.2127237 267.299894,64.2127237 C263.388705,64.2127237 260.302134,62.1553026 259.75324,57.424 L259.409862,57.424 C257.349594,62.2918684 253.513719,64.2127237 248.777912,64.2127237 C243.086009,64.2127237 238.965475,60.9211053 238.965475,55.7086316 L238.965475,55.7086316 Z" id="Fill-6" fill="#253867"></path>
                    <polyline id="Fill-7" fill="#7B903B" points="73.8185853 5.61451316 73.5454147 5.61451316 73.5454147 18.1492105 76.2720138 18.1492105 76.2720138 20.7835263 68.2466728 20.7835263 68.2466728 18.1492105 70.8507281 18.1492105 70.8507281 3.492 68.2466728 3.492 68.2466728 0.860236842 76.7251705 0.860236842 85.1755853 14.7873947 85.4474793 14.7873947 85.4474793 3.492 82.7221567 3.492 82.7221567 0.860236842 90.7462212 0.860236842 90.7462212 3.492 88.1434424 3.492 88.1434424 21.0553816 83.1765899 21.0553816 73.8185853 5.61451316"></polyline>
                    <path d="M103.582682,12.0343816 L108.793346,12.0343816 L106.279922,4.58452632 L106.156101,4.58452632 L103.582682,12.0343816 L103.582682,12.0343816 Z M109.578392,14.4249211 L102.765724,14.4249211 L101.493055,18.1492105 L104.006479,18.1492105 L104.006479,20.7835263 L96.3449401,20.7835263 L96.3449401,18.1492105 L98.5277512,18.1492105 L104.943429,0.738986842 L109.911558,0.738986842 L116.242986,18.1492105 L118.60323,18.1492105 L118.60323,20.7835263 L108.155097,20.7835263 L108.155097,18.1492105 L110.852336,18.1492105 L109.578392,14.4249211 L109.578392,14.4249211 Z" id="Fill-8" fill="#7B903B"></path>
                    <path d="M127.564244,18.1492105 L130.682728,18.1492105 L130.682728,3.12952632 L129.925765,3.12952632 C127.472336,3.12952632 126.957908,3.94764474 125.838419,8.88315789 L123.444986,8.88315789 L123.444986,0.860236842 L142.888599,0.860236842 L142.888599,8.88315789 L140.495166,8.88315789 C139.374401,3.94764474 138.862525,3.12952632 136.405267,3.12952632 L135.649581,3.12952632 L135.649581,18.1492105 L138.768065,18.1492105 L138.768065,20.7835263 L127.564244,20.7835263 L127.564244,18.1492105" id="Fill-9" fill="#7B903B"></path>
                    <polyline id="Fill-10" fill="#7B903B" points="150.33441 18.1492105 153.119728 18.1492105 153.119728 3.492 150.33441 3.492 150.33441 0.860236842 160.841263 0.860236842 160.841263 3.492 158.055945 3.492 158.055945 18.1492105 160.841263 18.1492105 160.841263 20.7835263 150.33441 20.7835263 150.33441 18.1492105"></polyline>
                    <path d="M183.007645,10.8218816 C183.007645,5.34138158 181.280544,2.85639474 178.071429,2.85639474 C174.858484,2.85639474 173.312645,5.34138158 173.312645,10.8218816 C173.312645,16.3304605 175.0423,18.7835395 178.253968,18.7835395 C181.459253,18.7835395 183.007645,16.3304605 183.007645,10.8218816 L183.007645,10.8218816 Z M167.925825,10.8512368 C167.925825,4.61132895 172.375696,0.373960526 178.160783,0.373960526 C184.099051,0.373960526 188.398295,4.462 188.398295,10.79125 C188.398295,17.0579605 183.944594,21.26725 178.160783,21.26725 C172.226346,21.26725 167.925825,17.1804868 167.925825,10.8512368 L167.925825,10.8512368 Z" id="Fill-11" fill="#7B903B"></path>
                    <polyline id="Fill-12" fill="#7B903B" points="200.142074 5.61451316 199.868903 5.61451316 199.868903 18.1492105 202.595502 18.1492105 202.595502 20.7835263 194.570161 20.7835263 194.570161 18.1492105 197.174217 18.1492105 197.174217 3.492 194.570161 3.492 194.570161 0.860236842 203.048659 0.860236842 211.499074 14.7873947 211.770968 14.7873947 211.770968 3.492 209.046922 3.492 209.046922 0.860236842 217.070986 0.860236842 217.070986 3.492 214.465654 3.492 214.465654 21.0553816 209.498802 21.0553816 200.142074 5.61451316"></polyline>
                    <path d="M229.904894,12.0343816 L235.114281,12.0343816 L232.600857,4.58452632 L232.47959,4.58452632 L229.904894,12.0343816 L229.904894,12.0343816 Z M235.90188,14.4249211 L229.087935,14.4249211 L227.815267,18.1492105 L230.328691,18.1492105 L230.328691,20.7835263 L222.669705,20.7835263 L222.669705,18.1492105 L224.848687,18.1492105 L231.266917,0.738986842 L236.23377,0.738986842 L242.563922,18.1492105 L244.925442,18.1492105 L244.925442,20.7835263 L234.477309,20.7835263 L234.477309,18.1492105 L237.174548,18.1492105 L235.90188,14.4249211 L235.90188,14.4249211 Z" id="Fill-13" fill="#7B903B"></path>
                    <path d="M261.913074,0.860236842 L261.913074,3.43328947 L258.910751,3.43328947 L258.910751,18.2104737 L262.307512,18.2104737 C264.698392,18.2104737 265.214097,17.6042237 266.514848,12.5487368 L268.907005,12.5487368 L268.907005,20.7835263 L251.249212,20.7835263 L251.249212,18.1492105 L253.974535,18.1492105 L253.974535,3.492 L251.249212,3.492 L251.249212,0.860236842 L261.913074,0.860236842" id="Fill-14" fill="#7B903B"></path>
                    <path d="M7.24795392,86.9592237 L12.4586175,86.9592237 L9.94519355,79.5119211 L9.82137327,79.5119211 L7.24795392,86.9592237 L7.24795392,86.9592237 Z M13.2423871,89.3523158 L6.43227189,89.3523158 L5.15705069,93.0778816 L7.67302765,93.0778816 L7.67302765,95.7109211 L0.0114884793,95.7109211 L0.0114884793,93.0778816 L2.19302304,93.0778816 L8.60997696,75.6651053 L13.5768295,75.6651053 L19.9082581,93.0778816 L22.2710553,93.0778816 L22.2710553,95.7109211 L11.8203687,95.7109211 L11.8203687,93.0778816 L14.5176083,93.0778816 L13.2423871,89.3523158 L13.2423871,89.3523158 Z" id="Fill-15" fill="#7B903B"></path>
                    <path d="M29.1398894,88.7460658 L31.8052166,88.7460658 C33.1059677,92.1372368 34.7730737,93.6815789 37.9821889,93.6815789 C40.1330876,93.6815789 41.3432074,92.6196842 41.3432074,91.0472632 C41.3432074,89.2004342 39.3148525,88.7460658 36.287,87.9904868 C33.0153364,87.2004474 29.3224286,86.0811184 29.3224286,81.6306053 C29.3224286,77.9369474 32.4409124,75.3026316 36.3163594,75.3026316 C38.497894,75.3026316 40.3756221,76.1194737 41.4044793,77.5132105 L42.0401751,75.3613421 L44.7055023,75.3613421 L44.7055023,82.4487237 L42.0401751,82.4487237 C40.7687834,79.1494474 39.2842166,77.8144211 36.7107972,77.8144211 C34.6811659,77.8144211 33.5910369,78.9975658 33.5910369,80.3593947 C33.5910369,82.3581053 35.8019309,82.8111974 38.7991475,83.5386974 C42.0401751,84.3236316 45.6130922,85.3868026 45.6130922,89.7147895 C45.6130922,93.5016184 42.6158756,96.1959211 38.2859954,96.1959211 C35.8019309,96.1959211 33.6216728,95.1659342 32.5009078,93.7734737 L31.7745806,96.1346579 L29.1398894,96.1346579 L29.1398894,88.7460658" id="Fill-16" fill="#7B903B"></path>
                    <path d="M53.9064977,88.7460658 L56.5705484,88.7460658 C57.872576,92.1372368 59.542235,93.6815789 62.7513502,93.6815789 C64.8984194,93.6815789 66.1123687,92.6196842 66.1123687,91.0472632 C66.1123687,89.2004342 64.0840138,88.7460658 61.0536083,87.9904868 C57.7857742,87.2004474 54.0877604,86.0811184 54.0877604,81.6306053 C54.0877604,77.9369474 57.2062442,75.3026316 61.0829677,75.3026316 C63.2670553,75.3026316 65.1435069,76.1194737 66.1736406,77.5132105 L66.8093364,75.3613421 L69.4746636,75.3613421 L69.4746636,82.4487237 L66.8093364,82.4487237 C65.5366682,79.1494474 64.0533779,77.8144211 61.4774055,77.8144211 C59.4477742,77.8144211 58.3576452,78.9975658 58.3576452,80.3593947 C58.3576452,82.3581053 60.5723687,82.8111974 63.5670323,83.5386974 C66.8093364,84.3236316 70.38353,85.3868026 70.38353,89.7147895 C70.38353,93.5016184 67.3824839,96.1959211 63.0551567,96.1959211 C60.5723687,96.1959211 58.3882811,95.1659342 57.2675161,93.7734737 L56.5399124,96.1346579 L53.9064977,96.1346579 L53.9064977,88.7460658" id="Fill-17" fill="#7B903B"></path>
                    <path d="M92.5754424,85.7467237 C92.5754424,80.2662237 90.848341,77.7837895 87.6379493,77.7837895 C84.4288341,77.7837895 82.8855484,80.2662237 82.8855484,85.7467237 C82.8855484,91.2578553 84.6113733,93.7122105 87.8204885,93.7122105 C91.0308802,93.7122105 92.5754424,91.2578553 92.5754424,85.7467237 L92.5754424,85.7467237 Z M77.4948986,85.7773553 C77.4948986,79.54 81.9460461,75.3026316 87.7298571,75.3026316 C93.6655714,75.3026316 97.9660922,79.3881184 97.9660922,85.7186447 C97.9660922,91.9853553 93.5149447,96.1959211 87.7298571,96.1959211 C81.7941429,96.1959211 77.4948986,92.1078816 77.4948986,85.7773553 L77.4948986,85.7773553 Z" id="Fill-18" fill="#7B903B"></path>
                    <path d="M105.591889,85.8705263 C105.591889,79.66125 110.013677,75.3026316 115.221788,75.3026316 C117.765848,75.3026316 119.676765,76.1807368 120.884332,77.6625395 L121.521304,75.3613421 L124.24918,75.3613421 L124.24918,83.2961974 L121.246857,83.2961974 C120.03929,79.6318947 118.341548,77.7837895 115.828124,77.7837895 C112.980258,77.7837895 110.981263,79.8743947 110.981263,85.5667632 C110.981263,91.0179079 113.072166,93.3497368 116.494456,93.3497368 C119.491673,93.3497368 121.217498,91.0778947 121.734479,87.7467105 L124.643618,87.7467105 C124.127912,92.8940921 121.188138,96.1959211 115.796212,96.1959211 C109.588604,96.1959211 105.591889,92.0172632 105.591889,85.8705263" id="Fill-19" fill="#7B903B"></path>
                    <polyline id="Fill-20" fill="#7B903B" points="132.146871 93.0778816 134.934742 93.0778816 134.934742 78.4206711 132.146871 78.4206711 132.146871 75.7876316 142.656276 75.7876316 142.656276 78.4206711 139.868406 78.4206711 139.868406 93.0778816 142.656276 93.0778816 142.656276 95.7109211 132.146871 95.7109211 132.146871 93.0778816"></polyline>
                    <path d="M156.400327,86.9592237 L161.610991,86.9592237 L159.097567,79.5119211 L158.975023,79.5119211 L156.400327,86.9592237 L156.400327,86.9592237 Z M162.39859,89.3523158 L155.584645,89.3523158 L154.313253,93.0778816 L156.825401,93.0778816 L156.825401,95.7109211 L149.161309,95.7109211 L149.161309,93.0778816 L151.345396,93.0778816 L157.764903,75.6651053 L162.730479,75.6651053 L169.059355,93.0778816 L171.422152,93.0778816 L171.422152,95.7109211 L160.975295,95.7109211 L160.975295,93.0778816 L163.669982,93.0778816 L162.39859,89.3523158 L162.39859,89.3523158 Z" id="Fill-21" fill="#7B903B"></path>
                    <path d="M180.381889,93.0778816 L183.502926,93.0778816 L183.502926,78.0581974 L182.74341,78.0581974 C180.288705,78.0581974 179.775553,78.8724868 178.656065,83.8105526 L176.262631,83.8105526 L176.262631,75.7876316 L195.703691,75.7876316 L195.703691,83.8105526 L193.311535,83.8105526 C192.193323,78.8724868 191.676341,78.0581974 189.222912,78.0581974 L188.469779,78.0581974 L188.469779,93.0778816 L191.588263,93.0778816 L191.588263,95.7109211 L180.381889,95.7109211 L180.381889,93.0778816" id="Fill-22" fill="#7B903B"></path>
                    <polyline id="Fill-23" fill="#7B903B" points="204.350687 93.0778816 207.136005 93.0778816 207.136005 78.4206711 204.350687 78.4206711 204.350687 75.7876316 214.858816 75.7876316 214.858816 78.4206711 212.073498 78.4206711 212.073498 93.0778816 214.858816 93.0778816 214.858816 95.7109211 204.350687 95.7109211 204.350687 93.0778816"></polyline>
                    <path d="M237.628982,85.7467237 C237.628982,80.2662237 235.903157,77.7837895 232.692765,77.7837895 C229.47982,77.7837895 227.935258,80.2662237 227.935258,85.7467237 C227.935258,91.2578553 229.663636,93.7122105 232.872751,93.7122105 C236.081866,93.7122105 237.628982,91.2578553 237.628982,85.7467237 L237.628982,85.7467237 Z M222.548438,85.7773553 C222.548438,79.54 226.997032,75.3026316 232.783396,75.3026316 C238.719111,75.3026316 243.019631,79.3881184 243.019631,85.7186447 C243.019631,91.9853553 238.565931,96.1959211 232.783396,96.1959211 C226.846406,96.1959211 222.548438,92.1078816 222.548438,85.7773553 L222.548438,85.7773553 Z" id="Fill-24" fill="#7B903B"></path>
                    <polyline id="Fill-25" fill="#7B903B" points="254.777452 80.5431842 254.503005 80.5431842 254.503005 93.0778816 257.228327 93.0778816 257.228327 95.7109211 249.204263 95.7109211 249.204263 93.0778816 251.807041 93.0778816 251.807041 78.4206711 249.204263 78.4206711 249.204263 75.7876316 257.684037 75.7876316 266.131899 89.7147895 266.405069 89.7147895 266.405069 78.4206711 263.67847 78.4206711 263.67847 75.7876316 271.705088 75.7876316 271.705088 78.4206711 269.097203 78.4206711 269.097203 95.9827763 264.131627 95.9827763 254.777452 80.5431842"></polyline>
                </g>
                <g id="graphic">
                    <path d="M135.276,67.406 C135.276,104.556 105.159,134.671 68.01,134.671 C30.859,134.671 0.742,104.556 0.742,67.406 C0.742,30.257 30.859,0.14 68.01,0.14 C105.159,0.14 135.276,30.257 135.276,67.406" id="Fill-26" fill="#7B903B"></path>
                    <path d="M130.247,67.406 C130.247,101.779 102.382,129.644 68.01,129.644 C33.636,129.644 5.771,101.779 5.771,67.406 C5.771,33.033 33.636,5.169 68.01,5.169 C102.382,5.169 130.247,33.033 130.247,67.406" id="Fill-27" fill="#FFFFFF"></path>
                    <path d="M128.22,67.406 C128.22,100.66 101.263,127.615 68.01,127.615 C34.756,127.615 7.799,100.66 7.799,67.406 C7.799,34.153 34.756,7.196 68.01,7.196 C101.263,7.196 128.22,34.153 128.22,67.406" id="Fill-28" fill="#253867"></path>
                    <path d="M60.957,73.07 C62.19,73.07 63.191,72.071 63.191,70.837 C63.191,69.604 62.19,68.606 60.957,68.606 C59.725,68.606 58.724,69.604 58.724,70.837 C58.724,72.071 59.725,73.07 60.957,73.07" id="Fill-29" fill="#FFFFFF"></path>
                    <path d="M56.578,72.821 C57.581,72.859 58.424,72.073 58.463,71.068 C58.502,70.064 57.717,69.22 56.71,69.182 C55.707,69.146 54.861,69.93 54.825,70.934 C54.789,71.939 55.573,72.784 56.578,72.821" id="Fill-30" fill="#FFFFFF"></path>
                    <path d="M52.457,73.17 C53.69,73.17 54.689,72.17 54.689,70.936 C54.689,69.701 53.69,68.703 52.457,68.703 C51.223,68.703 50.225,69.701 50.225,70.936 C50.225,72.17 51.223,73.17 52.457,73.17" id="Fill-31" fill="#FFFFFF"></path>
                    <path d="M39.974,74.363 C41.205,74.363 42.206,73.365 42.206,72.132 C42.206,70.898 41.205,69.899 39.974,69.899 C38.74,69.899 37.739,70.898 37.739,72.132 C37.739,73.365 38.74,74.363 39.974,74.363" id="Fill-32" fill="#FFFFFF"></path>
                    <path d="M34.95,74.484 C36.036,74.484 36.917,73.603 36.917,72.517 C36.917,71.431 36.036,70.551 34.95,70.551 C33.866,70.551 32.984,71.431 32.984,72.517 C32.984,73.603 33.866,74.484 34.95,74.484" id="Fill-33" fill="#FFFFFF"></path>
                    <path d="M26.971,73.856 C26.971,72.623 25.97,71.622 24.739,71.622 C23.505,71.622 22.504,72.623 22.504,73.856 C22.504,75.088 23.505,76.089 24.739,76.089 C25.97,76.089 26.971,75.088 26.971,73.856" id="Fill-34" fill="#FFFFFF"></path>
                    <path d="M43.968,77.234 C43.968,78.24 44.786,79.058 45.793,79.058 C46.802,79.058 47.617,78.24 47.617,77.234 C47.617,76.224 46.802,75.408 45.793,75.408 C45.73,75.408 45.669,75.42 45.609,75.426 C46.515,75.141 47.172,74.305 47.172,73.307 C47.172,72.072 46.174,71.073 44.941,71.073 C43.707,71.073 42.707,72.072 42.707,73.307 C42.707,74.54 43.707,75.54 44.941,75.54 C45.032,75.54 45.117,75.524 45.206,75.513 C44.488,75.758 43.968,76.43 43.968,77.234" id="Fill-35" fill="#FFFFFF"></path>
                    <path d="M70.73,73.358 C71.965,73.358 72.964,72.359 72.964,71.126 C72.964,69.891 71.965,68.893 70.73,68.893 C69.496,68.893 68.498,69.891 68.498,71.126 C68.498,72.359 69.496,73.358 70.73,73.358" id="Fill-36" fill="#FFFFFF"></path>
                    <path d="M28.116,78.852 C28.116,77.546 27.06,76.489 25.752,76.489 C24.448,76.489 23.388,77.546 23.388,78.852 C23.388,80.157 24.448,81.215 25.752,81.215 C27.06,81.215 28.116,80.157 28.116,78.852" id="Fill-37" fill="#FFFFFF"></path>
                    <path d="M35.055,100.507 C35.057,100.509 35.057,100.51 35.057,100.51 C35.051,100.509 35.05,100.509 35.045,100.507 L35.055,100.507 L35.055,100.507 Z M36.132,93.134 C36.083,93.338 36.05,93.548 36.05,93.767 C36.05,94.241 36.182,94.68 36.397,95.067 C36.126,94.978 35.837,94.917 35.535,94.917 C35.25,94.917 34.983,94.972 34.722,95.05 C34.537,94.779 34.287,94.557 33.989,94.411 C34.16,94.128 34.28,93.811 34.336,93.472 C34.487,93.499 34.64,93.518 34.797,93.518 C35.289,93.518 35.745,93.373 36.132,93.134 L36.132,93.134 Z M38.378,89.276 C38.319,89.494 38.276,89.716 38.276,89.952 C38.276,90.368 38.384,90.752 38.559,91.099 C38.098,91.129 37.666,91.27 37.297,91.506 C37.336,91.329 37.357,91.148 37.357,90.96 C37.357,90.291 37.096,89.686 36.673,89.232 C36.965,89.338 37.273,89.405 37.599,89.405 C37.873,89.405 38.129,89.353 38.378,89.276 L38.378,89.276 Z M42.433,86.973 C42.831,86.905 43.181,86.733 43.479,86.501 C43.463,86.614 43.446,86.725 43.446,86.842 C43.446,87.631 43.811,88.326 44.372,88.797 C44.078,88.733 43.772,88.719 43.459,88.772 C43.349,88.792 43.245,88.827 43.14,88.861 C42.73,87.996 41.856,87.394 40.833,87.394 C40.599,87.394 40.375,87.437 40.159,87.496 C40.235,87.248 40.287,86.991 40.287,86.719 C40.287,86.526 40.264,86.337 40.226,86.156 C40.75,86.778 41.574,87.119 42.433,86.973 L42.433,86.973 Z M51.534,94.771 C51.695,95.293 52.01,95.744 52.429,96.077 C51.906,96.148 51.432,96.361 51.042,96.677 C50.971,96.467 50.88,96.266 50.767,96.081 C51.139,95.733 51.408,95.281 51.534,94.771 L51.534,94.771 Z M56.054,95.803 C56.134,96.547 56.742,97.139 57.51,97.168 C57.711,97.176 57.9,97.142 58.077,97.08 C57.915,97.436 57.818,97.829 57.818,98.247 C57.818,98.602 57.892,98.936 58.01,99.25 C57.575,98.973 57.061,98.808 56.507,98.808 C56.194,98.808 55.899,98.871 55.618,98.964 C55.618,98.93 55.627,98.895 55.627,98.86 C55.627,97.945 55.187,97.14 54.513,96.625 C55.119,96.528 55.655,96.233 56.054,95.803 L56.054,95.803 Z M61.351,100.964 C61.148,101.23 60.995,101.531 60.898,101.859 C60.725,101.998 60.566,102.149 60.425,102.322 L60.683,102.653 C60.717,102.637 60.74,102.614 60.773,102.599 C60.773,102.621 60.767,102.642 60.767,102.664 C60.767,103.007 60.838,103.33 60.947,103.632 C60.491,103.311 59.932,103.117 59.33,103.117 C59.17,103.117 59.02,103.138 58.869,103.162 C59.155,102.72 59.326,102.195 59.326,101.628 C59.326,101.274 59.254,100.938 59.133,100.625 C59.57,100.902 60.085,101.066 60.639,101.066 C60.885,101.066 61.123,101.024 61.351,100.964 L61.351,100.964 Z M64.575,98.529 C64.734,98.535 64.886,98.512 65.033,98.475 C64.991,98.67 64.963,98.872 64.963,99.079 C64.963,99.593 65.113,100.067 65.352,100.482 C64.869,100.089 64.258,99.844 63.585,99.844 C63.337,99.844 63.102,99.886 62.873,99.946 C63.236,99.473 63.458,98.889 63.458,98.247 C63.458,98.165 63.441,98.086 63.433,98.005 C63.72,98.314 64.123,98.512 64.575,98.529 L64.575,98.529 Z M79.133,103.249 C78.815,103.541 78.563,103.901 78.404,104.312 C77.916,103.911 77.302,103.661 76.622,103.661 C75.923,103.661 75.288,103.926 74.793,104.349 C74.959,103.991 75.059,103.596 75.059,103.175 C75.059,102.858 74.994,102.558 74.897,102.272 C75.234,102.496 75.633,102.625 76.065,102.625 C76.761,102.625 77.373,102.287 77.757,101.767 C78.016,102.417 78.51,102.942 79.133,103.249 L79.133,103.249 Z M83.192,100.728 C83.192,100.625 83.173,100.527 83.162,100.428 C83.371,101.138 83.847,101.725 84.481,102.081 C83.93,102.548 83.563,103.22 83.498,103.985 C83.218,103.474 82.79,103.061 82.27,102.802 C82.832,102.288 83.192,101.552 83.192,100.728 L83.192,100.728 Z M89.948,98.248 C89.486,98.751 89.196,99.416 89.196,100.153 C89.196,101.139 89.703,102.005 90.469,102.508 C89.875,102.628 89.357,102.94 88.965,103.367 C88.746,102.686 88.277,102.122 87.663,101.776 C88.275,101.259 88.675,100.496 88.675,99.63 C88.675,98.874 88.371,98.19 87.885,97.683 C88.345,98.055 88.925,98.287 89.563,98.287 C89.695,98.287 89.82,98.266 89.948,98.248 L89.948,98.248 Z M50.807,102.438 C50.295,101.708 49.453,101.229 48.495,101.229 C48.269,101.229 48.052,101.262 47.841,101.314 C47.921,101.051 47.977,100.781 47.977,100.494 C47.977,100.443 47.964,100.398 47.962,100.347 C48.101,100.368 48.235,100.389 48.379,100.389 C49.054,100.389 49.661,100.144 50.147,99.751 C50.423,100.577 51.063,101.227 51.885,101.514 C51.452,101.727 51.079,102.041 50.807,102.438 L50.807,102.438 Z M66.018,101.259 C66.055,101.29 66.091,101.324 66.128,101.351 C66.115,101.364 66.106,101.381 66.091,101.396 C66.067,101.349 66.044,101.305 66.018,101.259 L66.018,101.259 Z M74.067,105.307 C73.903,105.665 73.804,106.06 73.804,106.481 C73.804,106.983 73.946,107.447 74.175,107.856 C73.695,107.479 73.102,107.246 72.442,107.246 C71.772,107.246 71.166,107.489 70.682,107.88 C70.763,107.618 70.819,107.344 70.819,107.056 C70.819,106.378 70.568,105.761 70.168,105.275 C70.197,105.244 70.221,105.207 70.25,105.174 C70.761,105.681 71.465,105.995 72.241,105.995 C72.941,105.995 73.572,105.73 74.067,105.307 L74.067,105.307 Z M74.949,108.797 C74.93,108.761 74.911,108.726 74.892,108.69 C74.927,108.719 74.962,108.753 75.002,108.781 C74.984,108.787 74.967,108.793 74.949,108.797 L74.949,108.797 Z M93.699,102.414 L93.687,102.414 C93.69,102.409 93.696,102.405 93.701,102.401 C93.701,102.405 93.701,102.411 93.699,102.414 L93.699,102.414 Z M86.983,96.313 C87.104,96.747 87.323,97.139 87.624,97.454 C87.24,97.14 86.776,96.928 86.265,96.853 C86.534,96.713 86.778,96.533 86.983,96.313 L86.983,96.313 Z M46.198,90.713 C46.101,90.147 45.803,89.669 45.4,89.321 C45.594,89.369 45.795,89.401 46.006,89.401 C46.543,89.401 47.039,89.234 47.451,88.951 C47.423,89.103 47.406,89.258 47.406,89.418 C47.406,90.272 47.827,91.024 48.469,91.488 C47.345,91.686 46.466,92.583 46.292,93.718 C46.017,93.405 45.676,93.154 45.283,92.997 C45.967,92.479 46.353,91.616 46.198,90.713 L46.198,90.713 Z M41.42,93.767 C41.42,93.3 41.291,92.868 41.083,92.486 C41.341,92.462 41.591,92.409 41.819,92.313 C42.057,92.716 42.407,93.036 42.818,93.237 C42.087,93.717 41.598,94.543 41.598,95.486 C41.598,95.646 41.617,95.8 41.645,95.954 C41.477,95.922 41.302,95.9 41.123,95.9 C40.013,95.9 39.062,96.548 38.602,97.481 C38.509,97.455 38.418,97.429 38.319,97.413 C38.273,97.019 38.151,96.651 37.962,96.324 C38.209,96.4 38.466,96.452 38.736,96.452 C40.219,96.452 41.42,95.25 41.42,93.767 L41.42,93.767 Z M108.424,84.489 C107.489,84.489 106.735,85.247 106.735,86.18 C106.735,86.664 106.939,87.097 107.265,87.404 C107.102,87.352 106.931,87.314 106.75,87.307 C106.454,87.296 106.175,87.358 105.921,87.467 C106.049,87.222 106.13,86.946 106.13,86.649 C106.13,85.671 105.337,84.88 104.363,84.88 C103.739,84.88 103.195,85.202 102.881,85.689 C102.446,84.852 101.582,84.273 100.573,84.273 C99.654,84.273 98.851,84.75 98.387,85.468 C98.05,84.876 97.431,84.463 96.701,84.438 C95.583,84.393 94.64,85.268 94.599,86.389 C94.586,86.716 94.659,87.024 94.786,87.302 C94.63,87.271 94.466,87.252 94.3,87.252 C92.887,87.252 91.74,88.399 91.74,89.811 C91.74,91.225 92.887,92.37 94.3,92.37 C95.1,92.37 95.806,91.996 96.272,91.422 C96.272,91.43 96.271,91.437 96.271,91.445 C96.24,92.226 96.624,92.922 97.224,93.334 C97.132,93.355 97.04,93.386 96.952,93.418 C96.508,92.954 95.885,92.664 95.189,92.664 C93.84,92.664 92.746,93.756 92.746,95.107 C92.746,95.932 93.156,96.658 93.782,97.101 C93.64,97.292 93.513,97.496 93.42,97.722 C93.003,97.481 92.528,97.333 92.015,97.333 C91.857,97.333 91.711,97.354 91.563,97.379 C91.982,96.905 92.249,96.286 92.249,95.601 C92.249,94.116 91.045,92.915 89.563,92.915 C88.789,92.915 88.1,93.245 87.609,93.767 C87.294,92.631 86.265,91.794 85.03,91.794 C83.548,91.794 82.345,92.997 82.345,94.48 C82.345,95.815 83.319,96.911 84.592,97.121 C83.671,97.584 83.034,98.529 83.034,99.63 C83.034,99.734 83.052,99.831 83.062,99.931 C82.913,99.428 82.638,98.987 82.261,98.645 C82.653,98.193 82.9,97.607 82.9,96.959 C82.9,95.535 81.747,94.381 80.324,94.381 C78.9,94.381 77.746,95.535 77.746,96.959 C77.746,97.63 78.01,98.235 78.429,98.693 C78.201,98.909 78.021,99.165 77.876,99.445 C77.569,98.93 77.056,98.556 76.449,98.444 C76.225,97.11 75.071,96.093 73.675,96.093 C72.118,96.093 70.855,97.356 70.855,98.913 C70.855,99.507 71.041,100.057 71.353,100.51 C70.876,100.671 70.457,100.949 70.131,101.321 C70.026,101.22 69.916,101.131 69.799,101.047 C70.297,100.538 70.604,99.845 70.604,99.079 C70.604,97.52 69.342,96.259 67.782,96.259 C67.221,96.259 66.698,96.428 66.257,96.713 C66.171,95.919 65.52,95.286 64.698,95.256 C63.827,95.222 63.095,95.88 63.011,96.738 C62.512,95.952 61.638,95.427 60.639,95.427 C60.055,95.427 59.516,95.604 59.065,95.907 C59.078,95.839 59.091,95.769 59.093,95.698 C59.125,94.855 58.467,94.145 57.624,94.114 C57.299,94.103 56.994,94.195 56.738,94.36 C56.757,94.235 56.776,94.112 56.776,93.983 C56.776,92.499 55.573,91.297 54.089,91.297 C52.83,91.297 51.779,92.167 51.49,93.338 C51.311,92.761 50.953,92.265 50.471,91.926 C51.64,91.691 52.521,90.658 52.521,89.418 C52.521,88.004 51.376,86.859 49.963,86.859 C49.426,86.859 48.929,87.026 48.517,87.309 C48.546,87.158 48.563,87.003 48.563,86.842 C48.563,85.8 47.938,84.906 47.043,84.509 C48.022,84.215 48.738,83.318 48.738,82.244 C48.738,80.934 47.677,79.87 46.366,79.87 C45.057,79.87 43.994,80.934 43.994,82.244 C43.994,83.188 44.548,83.998 45.348,84.38 C44.988,84.476 44.662,84.65 44.382,84.88 C44.403,84.668 44.408,84.455 44.372,84.234 C44.149,82.942 42.926,82.072 41.634,82.295 C41.449,82.326 41.272,82.384 41.106,82.455 C41.181,82.26 41.235,82.051 41.242,81.831 C41.254,81.522 41.188,81.233 41.067,80.97 C41.223,81.002 41.382,81.02 41.548,81.02 C42.853,81.02 43.909,79.961 43.909,78.656 C43.909,77.349 42.853,76.293 41.548,76.293 C40.655,76.293 39.885,76.794 39.484,77.527 C39.491,77.486 39.505,77.449 39.512,77.408 C39.689,76.112 38.781,74.924 37.489,74.749 C36.197,74.573 35.005,75.478 34.828,76.773 C34.8,76.984 34.81,77.189 34.836,77.391 C34.578,76.95 34.109,76.645 33.56,76.625 C33.368,76.618 33.184,76.651 33.014,76.709 C33.271,76.33 33.421,75.874 33.421,75.381 C33.421,74.075 32.363,73.018 31.058,73.018 C29.753,73.018 28.691,74.075 28.691,75.381 C28.691,76.687 29.753,77.743 31.058,77.743 C31.446,77.743 31.804,77.643 32.125,77.478 C32.031,77.67 31.97,77.882 31.961,78.109 C31.929,78.962 32.595,79.679 33.447,79.71 C34.299,79.743 35.015,79.076 35.047,78.223 C35.05,78.184 35.042,78.146 35.042,78.109 C35.373,78.802 36.033,79.32 36.851,79.433 C37.841,79.567 38.764,79.068 39.226,78.25 C39.204,78.382 39.184,78.517 39.184,78.656 C39.184,79.098 39.313,79.506 39.525,79.859 C39.481,79.855 39.441,79.845 39.396,79.843 C38.546,79.812 37.811,80.344 37.533,81.1 C37.333,80.375 36.76,79.776 35.975,79.595 C34.838,79.332 33.702,80.042 33.439,81.181 C33.178,82.318 33.887,83.454 35.026,83.715 C36.098,83.963 37.159,83.341 37.497,82.318 C37.728,83.079 38.417,83.648 39.253,83.678 C39.486,83.687 39.704,83.648 39.913,83.581 C39.695,84.015 39.604,84.518 39.693,85.033 C39.695,85.045 39.7,85.054 39.702,85.065 C39.21,84.441 38.458,84.034 37.599,84.034 C36.523,84.034 35.6,84.672 35.172,85.588 C35.177,85.533 35.19,85.482 35.19,85.426 C35.19,84.178 34.179,83.166 32.93,83.166 C31.684,83.166 30.669,84.178 30.669,85.426 C30.669,86.673 31.684,87.684 32.93,87.684 C33.815,87.684 34.575,87.171 34.945,86.428 C34.933,86.526 34.914,86.619 34.914,86.719 C34.914,87.432 35.199,88.077 35.652,88.557 C35.382,88.463 35.097,88.401 34.797,88.401 C33.573,88.401 32.548,89.264 32.298,90.417 C32.106,90.372 31.905,90.343 31.696,90.343 C31.578,90.343 31.468,90.362 31.354,90.378 C31.603,89.984 31.752,89.52 31.752,89.02 C31.752,87.605 30.607,86.461 29.192,86.461 C27.779,86.461 26.632,87.605 26.632,89.02 C26.632,90.433 27.779,91.577 29.192,91.577 C29.285,91.577 29.369,91.56 29.458,91.55 C29.177,91.975 29.011,92.482 29.011,93.028 C29.011,94.371 29.999,95.473 31.282,95.673 C31.251,95.798 31.232,95.928 31.228,96.061 C31.191,97.006 31.85,97.813 32.74,98.005 C32.807,98.689 33.104,99.302 33.571,99.756 C33.553,99.746 33.531,99.735 33.531,99.735 C34.353,100.814 35.466,102.026 36.847,103.285 C37.036,103.509 37.251,103.708 37.5,103.864 C43.698,109.254 54.666,115.249 68.789,115.249 C87.663,115.249 98.604,106.074 102.446,100.851 C103.112,100.078 103.507,99.55 103.507,98.661 C103.507,98.567 103.49,98.478 103.48,98.386 C104.726,98.093 105.654,96.983 105.654,95.649 C105.654,95.605 105.642,95.564 105.642,95.52 C106.582,95.271 107.28,94.422 107.28,93.403 C107.28,92.187 106.295,91.202 105.08,91.202 C104.739,91.202 104.42,91.286 104.134,91.423 C104.207,91.245 104.253,91.05 104.257,90.845 C104.273,89.949 103.563,89.212 102.668,89.194 C101.774,89.177 101.034,89.889 101.017,90.785 C101,91.678 101.714,92.418 102.607,92.435 C102.803,92.438 102.989,92.401 103.165,92.34 C103.077,92.497 103.008,92.664 102.963,92.841 C102.919,92.839 102.876,92.829 102.833,92.829 C101.619,92.829 100.593,93.602 100.195,94.68 C99.954,94.23 99.592,93.86 99.147,93.61 C100,93.332 100.63,92.554 100.663,91.608 C100.711,90.394 99.763,89.372 98.548,89.329 C97.865,89.302 97.254,89.597 96.832,90.07 C96.84,89.984 96.856,89.9 96.856,89.811 C96.856,89.321 96.712,88.867 96.474,88.478 C96.501,88.48 96.524,88.488 96.55,88.489 C97.183,88.513 97.75,88.239 98.139,87.799 C98.509,88.787 99.456,89.492 100.573,89.492 C101.696,89.492 102.647,88.776 103.013,87.778 C103.338,88.166 103.818,88.415 104.363,88.415 C104.589,88.415 104.804,88.369 105.003,88.29 C104.856,88.552 104.759,88.847 104.748,89.168 C104.708,90.235 105.543,91.13 106.607,91.171 C107.675,91.211 108.573,90.378 108.611,89.309 C108.633,88.707 108.372,88.163 107.952,87.793 C108.102,87.837 108.258,87.868 108.424,87.868 C109.355,87.868 110.109,87.112 110.109,86.18 C110.109,85.247 109.355,84.489 108.424,84.489 L108.424,84.489 Z" id="Fill-38" fill="#FFFFFF"></path>
                    <path d="M93.287,86.256 C93.287,85.044 92.302,84.062 91.09,84.062 C89.879,84.062 88.897,85.044 88.897,86.256 C88.897,87.467 89.879,88.45 91.09,88.45 C92.302,88.45 93.287,87.467 93.287,86.256" id="Fill-39" fill="#FFFFFF"></path>
                    <path d="M29.531,83.781 C29.531,83.526 29.479,83.284 29.406,83.053 C29.708,83.218 30.046,83.321 30.415,83.321 C31.584,83.321 32.529,82.374 32.529,81.207 C32.529,80.037 31.584,79.09 30.415,79.09 C29.247,79.09 28.299,80.037 28.299,81.207 C28.299,81.399 28.332,81.581 28.381,81.757 C28.023,81.541 27.607,81.408 27.156,81.408 C25.847,81.408 24.786,82.469 24.786,83.781 C24.786,85.092 25.847,86.154 27.156,86.154 C28.47,86.154 29.531,85.092 29.531,83.781" id="Fill-40" fill="#FFFFFF"></path>
                    <path d="M89.057,92.798 C90.351,92.798 91.397,91.75 91.397,90.456 C91.397,89.16 90.351,88.112 89.057,88.112 C87.76,88.112 86.712,89.16 86.712,90.456 C86.712,91.75 87.76,92.798 89.057,92.798" id="Fill-41" fill="#FFFFFF"></path>
                    <path d="M96.313,72.494 C97.546,72.494 98.546,71.495 98.546,70.263 C98.546,69.028 97.546,68.029 96.313,68.029 C95.08,68.029 94.079,69.028 94.079,70.263 C94.079,71.495 95.08,72.494 96.313,72.494" id="Fill-42" fill="#FFFFFF"></path>
                    <path d="M88.409,72.351 C89.643,72.351 90.641,71.352 90.641,70.12 C90.641,68.884 89.643,67.886 88.409,67.886 C87.177,67.886 86.175,68.884 86.175,70.12 C86.175,71.352 87.177,72.351 88.409,72.351" id="Fill-43" fill="#FFFFFF"></path>
                    <path d="M83.378,73.359 C84.613,73.359 85.611,72.358 85.611,71.125 C85.611,69.89 84.613,68.892 83.378,68.892 C82.146,68.892 81.145,69.89 81.145,71.125 C81.145,72.358 82.146,73.359 83.378,73.359" id="Fill-44" fill="#FFFFFF"></path>
                    <path d="M109.894,68.927 C109.038,68.927 108.344,69.621 108.344,70.478 C108.344,71.334 109.038,72.028 109.894,72.028 C110.75,72.028 111.447,71.334 111.447,70.478 C111.447,69.621 110.75,68.927 109.894,68.927" id="Fill-45" fill="#FFFFFF"></path>
                    <path d="M105.732,72.408 C106.966,72.408 107.964,71.408 107.964,70.175 C107.964,68.941 106.966,67.942 105.732,67.942 C104.501,67.942 103.499,68.941 103.499,70.175 C103.499,71.408 104.501,72.408 105.732,72.408" id="Fill-46" fill="#FFFFFF"></path>
                    <path d="M58.179,66.118 C58.179,64.906 57.2,63.928 55.987,63.928 C54.78,63.928 53.798,64.906 53.798,66.118 C53.798,67.327 54.78,68.309 55.987,68.309 C57.2,68.309 58.179,67.327 58.179,66.118" id="Fill-47" fill="#FFFFFF"></path>
                    <path d="M49.655,66.276 C49.686,65.066 48.729,64.061 47.52,64.031 C46.312,64 45.307,64.956 45.277,66.167 C45.245,67.376 46.2,68.38 47.41,68.411 C48.62,68.442 49.625,67.485 49.655,66.276" id="Fill-48" fill="#FFFFFF"></path>
                    <path d="M31.384,66.957 C31.384,65.746 30.403,64.766 29.192,64.766 C27.982,64.766 27.001,65.746 27.001,66.957 C27.001,68.168 27.982,69.149 29.192,69.149 C30.403,69.149 31.384,68.168 31.384,66.957" id="Fill-49" fill="#FFFFFF"></path>
                    <path d="M43.433,67.507 C43.433,66.416 42.549,65.532 41.457,65.532 C40.366,65.532 39.48,66.416 39.48,67.507 C39.48,68.598 40.366,69.483 41.457,69.483 C42.549,69.483 43.433,68.598 43.433,67.507" id="Fill-50" fill="#FFFFFF"></path>
                    <path d="M38.738,67.478 C38.738,66.267 37.759,65.288 36.549,65.288 C35.336,65.288 34.357,66.267 34.357,67.478 C34.357,68.688 35.336,69.669 36.549,69.669 C37.759,69.669 38.738,68.688 38.738,67.478" id="Fill-51" fill="#FFFFFF"></path>
                    <path d="M75.141,66.801 C75.141,65.591 74.159,64.612 72.95,64.612 C71.74,64.612 70.759,65.591 70.759,66.801 C70.759,68.013 71.74,68.992 72.95,68.992 C74.159,68.992 75.141,68.013 75.141,66.801" id="Fill-52" fill="#FFFFFF"></path>
                    <path d="M79.298,73.099 C80.148,73.131 80.865,72.466 80.897,71.612 C80.93,70.762 80.264,70.046 79.409,70.012 C78.56,69.981 77.841,70.647 77.812,71.499 C77.779,72.351 78.444,73.068 79.298,73.099" id="Fill-53" fill="#FFFFFF"></path>
                    <path d="M25.025,66.922 C23.816,66.922 22.835,67.902 22.835,69.113 C22.835,70.323 23.816,71.304 25.025,71.304 C26.235,71.304 27.217,70.323 27.217,69.113 C27.217,67.902 26.235,66.922 25.025,66.922" id="Fill-54" fill="#FFFFFF"></path>
                    <path d="M70.026,66.195 C70.026,64.985 69.047,64.004 67.836,64.004 C66.628,64.004 65.646,64.985 65.646,66.195 C65.646,67.406 66.628,68.386 67.836,68.386 C69.047,68.386 70.026,67.406 70.026,66.195" id="Fill-55" fill="#FFFFFF"></path>
                    <path d="M100.056,65.348 C100.056,64.136 99.076,63.157 97.865,63.157 C96.658,63.157 95.675,64.136 95.675,65.348 C95.675,66.558 96.658,67.538 97.865,67.538 C99.076,67.538 100.056,66.558 100.056,65.348" id="Fill-56" fill="#FFFFFF"></path>
                    <path d="M94.413,66.595 C94.413,65.384 93.433,64.403 92.225,64.403 C91.013,64.403 90.033,65.384 90.033,66.595 C90.033,67.805 91.013,68.785 92.225,68.785 C93.433,68.785 94.413,67.805 94.413,66.595" id="Fill-57" fill="#FFFFFF"></path>
                    <path d="M88.593,65.393 C88.593,64.182 87.613,63.202 86.403,63.202 C85.191,63.202 84.212,64.182 84.212,65.393 C84.212,66.604 85.191,67.584 86.403,67.584 C87.613,67.584 88.593,66.604 88.593,65.393" id="Fill-58" fill="#FFFFFF"></path>
                    <path d="M105.302,65.998 C105.302,64.787 104.321,63.807 103.114,63.807 C101.901,63.807 100.923,64.787 100.923,65.998 C100.923,67.209 101.901,68.189 103.114,68.189 C104.321,68.189 105.302,67.209 105.302,65.998" id="Fill-59" fill="#FFFFFF"></path>
                    <path d="M109.62,68.479 C110.831,68.479 111.813,67.496 111.813,66.288 C111.813,65.079 110.831,64.096 109.62,64.096 C108.41,64.096 107.429,65.079 107.429,66.288 C107.429,67.496 108.41,68.479 109.62,68.479" id="Fill-60" fill="#FFFFFF"></path>
                    <path d="M61.116,58.801 C59.951,58.801 59.005,59.746 59.005,60.912 C59.005,62.078 59.951,63.023 61.116,63.023 C62.28,63.023 63.225,62.078 63.225,60.912 C63.225,59.746 62.28,58.801 61.116,58.801" id="Fill-61" fill="#FFFFFF"></path>
                    <path d="M56.002,58.944 C54.836,58.944 53.891,59.889 53.891,61.056 C53.891,62.222 54.836,63.166 56.002,63.166 C57.169,63.166 58.114,62.222 58.114,61.056 C58.114,59.889 57.169,58.944 56.002,58.944" id="Fill-62" fill="#FFFFFF"></path>
                    <path d="M50.701,60.651 C50.701,59.484 49.756,58.541 48.59,58.541 C47.423,58.541 46.479,59.484 46.479,60.651 C46.479,61.818 47.423,62.762 48.59,62.762 C49.756,62.762 50.701,61.818 50.701,60.651" id="Fill-63" fill="#FFFFFF"></path>
                    <path d="M33.691,61.898 C33.691,60.73 32.744,59.787 31.58,59.787 C30.413,59.787 29.468,60.73 29.468,61.898 C29.468,63.065 30.413,64.009 31.58,64.009 C32.744,64.009 33.691,63.065 33.691,61.898" id="Fill-64" fill="#FFFFFF"></path>
                    <path d="M37.89,60.628 C36.724,60.628 35.781,61.572 35.781,62.739 C35.781,63.905 36.724,64.849 37.89,64.849 C39.057,64.849 40.002,63.905 40.002,62.739 C40.002,61.572 39.057,60.628 37.89,60.628" id="Fill-65" fill="#FFFFFF"></path>
                    <path d="M71.563,63.102 C72.728,63.102 73.672,62.156 73.672,60.992 C73.672,59.825 72.728,58.881 71.563,58.881 C70.396,58.881 69.45,59.825 69.45,60.992 C69.45,62.156 70.396,63.102 71.563,63.102" id="Fill-66" fill="#FFFFFF"></path>
                    <path d="M25.085,63.093 C26.253,63.093 27.197,62.148 27.197,60.982 C27.197,59.815 26.253,58.87 25.085,58.87 C23.921,58.87 22.974,59.815 22.974,60.982 C22.974,62.148 23.921,63.093 25.085,63.093" id="Fill-67" fill="#FFFFFF"></path>
                    <path d="M82.084,61.627 C82.084,60.392 81.083,59.393 79.848,59.393 C78.616,59.393 77.617,60.392 77.617,61.627 C77.617,62.861 78.616,63.861 79.848,63.861 C81.083,63.861 82.084,62.861 82.084,61.627" id="Fill-68" fill="#FFFFFF"></path>
                    <path d="M97.796,58.66 C97.796,57.493 96.853,56.55 95.686,56.55 C94.521,56.55 93.575,57.493 93.575,58.66 C93.575,59.828 94.521,60.771 95.686,60.771 C96.853,60.771 97.796,59.828 97.796,58.66" id="Fill-69" fill="#FFFFFF"></path>
                    <path d="M89.862,62.929 C91.025,62.929 91.972,61.984 91.972,60.818 C91.972,59.651 91.025,58.707 89.862,58.707 C88.695,58.707 87.752,59.651 87.752,60.818 C87.752,61.984 88.695,62.929 89.862,62.929" id="Fill-70" fill="#FFFFFF"></path>
                    <path d="M103.446,55.201 C102.279,55.201 101.334,56.145 101.334,57.312 C101.334,58.478 102.279,59.422 103.446,59.422 C104.61,59.422 105.558,58.478 105.558,57.312 C105.558,56.145 104.61,55.201 103.446,55.201" id="Fill-71" fill="#FFFFFF"></path>
                    <path d="M89.196,56.894 C90.304,56.935 91.234,56.071 91.275,54.964 C91.316,53.856 90.449,52.926 89.345,52.884 C88.236,52.842 87.307,53.706 87.267,54.815 C87.226,55.922 88.088,56.852 89.196,56.894" id="Fill-72" fill="#FFFFFF"></path>
                    <path d="M106.884,56.736 C106.841,57.92 107.764,58.911 108.945,58.956 C110.128,59.001 111.122,58.078 111.165,56.894 C111.211,55.712 110.286,54.718 109.103,54.675 C107.921,54.632 106.927,55.554 106.884,56.736" id="Fill-73" fill="#FFFFFF"></path>
                    <path d="M41.13,53.597 C40.023,53.557 39.091,54.42 39.051,55.528 C39.012,56.636 39.873,57.567 40.98,57.607 C42.087,57.65 43.019,56.784 43.063,55.677 C43.103,54.569 42.236,53.638 41.13,53.597" id="Fill-74" fill="#FFFFFF"></path>
                    <path d="M31.84,57.053 C31.799,58.162 32.665,59.091 33.771,59.133 C34.882,59.174 35.809,58.312 35.852,57.204 C35.891,56.096 35.028,55.166 33.921,55.124 C32.813,55.082 31.884,55.947 31.84,57.053" id="Fill-75" fill="#FFFFFF"></path>
                    <path d="M101.803,43.164 C100.744,43.125 99.854,43.951 99.813,45.01 C99.775,46.07 100.601,46.96 101.661,47 C102.72,47.039 103.612,46.213 103.65,45.153 C103.689,44.094 102.859,43.203 101.803,43.164" id="Fill-76" fill="#FFFFFF"></path>
                    <path d="M88.765,43.407 C88.727,44.43 89.526,45.29 90.549,45.328 C91.573,45.366 92.434,44.568 92.471,43.543 C92.509,42.519 91.711,41.659 90.687,41.621 C89.664,41.583 88.804,42.382 88.765,43.407" id="Fill-77" fill="#FFFFFF"></path>
                    <path d="M104.088,46.736 C104.05,47.797 104.879,48.688 105.937,48.726 C106.995,48.765 107.887,47.94 107.926,46.879 C107.964,45.82 107.139,44.93 106.079,44.889 C105.021,44.851 104.129,45.678 104.088,46.736" id="Fill-78" fill="#FFFFFF"></path>
                    <path d="M97.183,46.953 C96.122,46.914 95.232,47.739 95.193,48.799 C95.153,49.859 95.979,50.749 97.038,50.788 C98.1,50.829 98.988,50.003 99.026,48.941 C99.068,47.882 98.241,46.991 97.183,46.953" id="Fill-79" fill="#FFFFFF"></path>
                    <path d="M90.695,50.191 C90.656,51.251 91.482,52.141 92.541,52.181 C93.603,52.219 94.494,51.394 94.532,50.333 C94.571,49.274 93.745,48.384 92.686,48.343 C91.627,48.305 90.733,49.132 90.695,50.191" id="Fill-80" fill="#FFFFFF"></path>
                    <path d="M79.663,34.783 C79.627,35.791 80.413,36.635 81.415,36.672 C82.422,36.71 83.268,35.924 83.307,34.917 C83.343,33.913 82.561,33.068 81.552,33.031 C80.545,32.993 79.7,33.778 79.663,34.783" id="Fill-81" fill="#FFFFFF"></path>
                    <path d="M104.744,51.793 C104.702,52.853 105.531,53.743 106.591,53.782 C107.649,53.822 108.54,52.996 108.578,51.934 C108.621,50.877 107.792,49.987 106.733,49.947 C105.674,49.908 104.783,50.734 104.744,51.793" id="Fill-82" fill="#FFFFFF"></path>
                    <path d="M96.263,39.044 C96.224,40.068 97.023,40.929 98.045,40.965 C99.068,41.004 99.929,40.206 99.966,39.181 C100.004,38.157 99.206,37.296 98.185,37.26 C97.159,37.221 96.299,38.02 96.263,39.044" id="Fill-83" fill="#FFFFFF"></path>
                    <path d="M95.512,42.002 C94.624,41.969 93.881,42.66 93.849,43.548 C93.817,44.433 94.509,45.177 95.393,45.21 C96.278,45.242 97.023,44.553 97.055,43.666 C97.09,42.78 96.398,42.034 95.512,42.002" id="Fill-84" fill="#FFFFFF"></path>
                    <path d="M102.995,41.959 C104.02,41.923 104.819,41.066 104.783,40.042 C104.748,39.017 103.891,38.216 102.866,38.252 C101.844,38.287 101.043,39.145 101.08,40.169 C101.112,41.193 101.971,41.995 102.995,41.959" id="Fill-85" fill="#FFFFFF"></path>
                    <path d="M83.376,37.544 C82.354,37.506 81.493,38.305 81.453,39.329 C81.415,40.351 82.216,41.211 83.237,41.251 C84.26,41.289 85.12,40.489 85.158,39.465 C85.197,38.443 84.397,37.583 83.376,37.544" id="Fill-86" fill="#FFFFFF"></path>
                    <path d="M83.18,45.012 C83.143,46.039 83.94,46.897 84.966,46.936 C85.989,46.973 86.848,46.174 86.887,45.15 C86.926,44.128 86.127,43.267 85.1,43.229 C84.078,43.191 83.218,43.99 83.18,45.012" id="Fill-87" fill="#FFFFFF"></path>
                    <path d="M75.367,31.516 C74.305,31.474 73.409,32.305 73.371,33.371 C73.329,34.435 74.161,35.33 75.226,35.368 C76.29,35.409 77.186,34.578 77.225,33.512 C77.264,32.448 76.433,31.553 75.367,31.516" id="Fill-88" fill="#FFFFFF"></path>
                    <path d="M78.456,38.12 C78.422,37.098 77.564,36.297 76.539,36.331 C75.517,36.367 74.716,37.224 74.751,38.248 C74.785,39.273 75.644,40.074 76.666,40.039 C77.69,40.003 78.49,39.145 78.456,38.12" id="Fill-89" fill="#FFFFFF"></path>
                    <path d="M87.363,36.967 C86.342,36.928 85.481,37.729 85.442,38.751 C85.404,39.774 86.204,40.635 87.228,40.672 C88.25,40.712 89.11,39.913 89.148,38.889 C89.188,37.864 88.39,37.004 87.363,36.967" id="Fill-90" fill="#FFFFFF"></path>
                    <path d="M39.027,49.107 C38.988,50.168 39.814,51.058 40.873,51.097 C41.934,51.136 42.825,50.31 42.864,49.251 C42.902,48.19 42.075,47.3 41.018,47.26 C39.957,47.221 39.065,48.048 39.027,49.107" id="Fill-91" fill="#FFFFFF"></path>
                    <path d="M45.018,49.532 C44.978,50.592 45.808,51.484 46.865,51.524 C47.923,51.563 48.816,50.735 48.853,49.674 C48.894,48.616 48.068,47.726 47.009,47.686 C45.95,47.647 45.057,48.473 45.018,49.532" id="Fill-92" fill="#FFFFFF"></path>
                    <path d="M29.576,47.92 C30.637,47.959 31.526,47.134 31.566,46.073 C31.605,45.014 30.777,44.124 29.718,44.083 C28.66,44.044 27.769,44.871 27.73,45.931 C27.691,46.991 28.515,47.881 29.576,47.92" id="Fill-93" fill="#FFFFFF"></path>
                    <path d="M27.208,52.916 C28.269,52.954 29.158,52.129 29.198,51.068 C29.238,50.009 28.409,49.118 27.351,49.079 C26.292,49.04 25.401,49.867 25.362,50.924 C25.323,51.986 26.147,52.875 27.208,52.916" id="Fill-94" fill="#FFFFFF"></path>
                    <path d="M31.873,50.296 C30.814,50.258 29.924,51.082 29.884,52.143 C29.845,53.204 30.672,54.092 31.731,54.132 C32.792,54.172 33.682,53.345 33.721,52.286 C33.76,51.226 32.934,50.335 31.873,50.296" id="Fill-95" fill="#FFFFFF"></path>
                    <path d="M48.284,40.569 C48.247,41.591 49.045,42.45 50.067,42.489 C51.091,42.527 51.952,41.729 51.99,40.705 C52.027,39.681 51.227,38.821 50.205,38.782 C49.183,38.745 48.322,39.543 48.284,40.569" id="Fill-96" fill="#FFFFFF"></path>
                    <path d="M37.963,37.96 C37.925,38.986 38.725,39.845 39.747,39.883 C40.772,39.923 41.63,39.123 41.669,38.098 C41.708,37.075 40.91,36.215 39.883,36.178 C38.861,36.139 38,36.938 37.963,37.96" id="Fill-97" fill="#FFFFFF"></path>
                    <path d="M33.297,41.476 C34.379,41.518 35.289,40.672 35.328,39.589 C35.369,38.504 34.523,37.594 33.441,37.554 C32.356,37.514 31.448,38.358 31.407,39.442 C31.366,40.526 32.214,41.435 33.297,41.476" id="Fill-98" fill="#FFFFFF"></path>
                    <path d="M88.063,33.807 C88.023,34.812 88.81,35.657 89.814,35.694 C90.82,35.732 91.666,34.947 91.702,33.94 C91.74,32.935 90.956,32.09 89.948,32.052 C88.945,32.015 88.1,32.8 88.063,33.807" id="Fill-99" fill="#FFFFFF"></path>
                    <path d="M93.628,33.98 C93.59,34.986 94.377,35.83 95.382,35.868 C96.387,35.905 97.232,35.12 97.27,34.113 C97.308,33.108 96.522,32.264 95.518,32.226 C94.511,32.189 93.665,32.974 93.628,33.98" id="Fill-100" fill="#FFFFFF"></path>
                    <path d="M54.318,33.263 C54.281,34.33 55.111,35.222 56.175,35.262 C57.239,35.303 58.133,34.47 58.172,33.406 C58.213,32.342 57.381,31.447 56.318,31.408 C55.254,31.368 54.357,32.199 54.318,33.263" id="Fill-101" fill="#FFFFFF"></path>
                    <path d="M32.977,44.239 C32.936,45.322 33.784,46.232 34.866,46.274 C35.949,46.315 36.86,45.469 36.898,44.385 C36.941,43.302 36.093,42.39 35.011,42.351 C33.928,42.31 33.018,43.155 32.977,44.239" id="Fill-102" fill="#FFFFFF"></path>
                    <path d="M45.748,45.778 C46.772,45.742 47.574,44.885 47.539,43.861 C47.5,42.837 46.645,42.035 45.62,42.071 C44.598,42.105 43.797,42.964 43.833,43.987 C43.869,45.012 44.725,45.814 45.748,45.778" id="Fill-103" fill="#FFFFFF"></path>
                    <path d="M68.979,32.438 C69.016,31.43 68.231,30.587 67.226,30.549 C66.221,30.513 65.375,31.298 65.336,32.302 C65.298,33.309 66.085,34.153 67.09,34.19 C68.097,34.229 68.942,33.444 68.979,32.438" id="Fill-104" fill="#FFFFFF"></path>
                    <path d="M54.174,42.935 C55.198,42.972 56.058,42.173 56.095,41.149 C56.134,40.126 55.336,39.266 54.312,39.228 C53.289,39.19 52.426,39.989 52.39,41.012 C52.351,42.036 53.151,42.896 54.174,42.935" id="Fill-105" fill="#FFFFFF"></path>
                    <path d="M45.793,37.003 C44.73,36.964 43.834,37.793 43.793,38.859 C43.754,39.923 44.587,40.818 45.65,40.857 C46.713,40.897 47.608,40.066 47.647,39.003 C47.688,37.937 46.856,37.044 45.793,37.003" id="Fill-106" fill="#FFFFFF"></path>
                    <path d="M38.153,34.693 C39.023,34.728 39.751,34.049 39.784,33.178 C39.819,32.309 39.139,31.579 38.27,31.548 C37.401,31.514 36.671,32.193 36.637,33.062 C36.605,33.932 37.284,34.663 38.153,34.693" id="Fill-107" fill="#FFFFFF"></path>
                    <path d="M77.671,30.704 C77.699,31.538 78.396,32.187 79.227,32.158 C80.059,32.13 80.708,31.434 80.682,30.601 C80.651,29.768 79.955,29.118 79.125,29.148 C78.292,29.175 77.64,29.873 77.671,30.704" id="Fill-108" fill="#FFFFFF"></path>
                    <path d="M72.641,30.541 C73.643,30.579 74.486,29.796 74.521,28.793 C74.562,27.79 73.776,26.947 72.772,26.91 C71.772,26.873 70.929,27.655 70.893,28.657 C70.854,29.661 71.637,30.503 72.641,30.541" id="Fill-109" fill="#FFFFFF"></path>
                    <path d="M83.044,29.73 C83.757,29.757 84.357,29.2 84.383,28.485 C84.408,27.772 83.853,27.171 83.139,27.146 C82.427,27.12 81.823,27.677 81.799,28.391 C81.771,29.104 82.33,29.704 83.044,29.73" id="Fill-110" fill="#FFFFFF"></path>
                    <path d="M88.631,29.004 C89.58,29.04 90.376,28.3 90.41,27.353 C90.447,26.405 89.707,25.609 88.76,25.573 C87.812,25.538 87.016,26.277 86.982,27.225 C86.945,28.173 87.687,28.968 88.631,29.004" id="Fill-111" fill="#FFFFFF"></path>
                    <path d="M65.673,29.47 C66.62,29.507 67.417,28.769 67.452,27.819 C67.487,26.872 66.747,26.077 65.798,26.04 C64.854,26.007 64.056,26.745 64.021,27.693 C63.984,28.64 64.726,29.436 65.673,29.47" id="Fill-112" fill="#FFFFFF"></path>
                    <path d="M44.632,31.795 C43.709,31.758 42.933,32.482 42.898,33.406 C42.864,34.332 43.584,35.108 44.509,35.143 C45.435,35.177 46.21,34.455 46.247,33.531 C46.28,32.605 45.557,31.829 44.632,31.795" id="Fill-113" fill="#FFFFFF"></path>
                    <path d="M44.225,30.553 C45.226,30.59 46.069,29.808 46.105,28.804 C46.144,27.802 45.361,26.959 44.358,26.921 C43.356,26.884 42.513,27.666 42.476,28.669 C42.437,29.672 43.22,30.516 44.225,30.553" id="Fill-114" fill="#FFFFFF"></path>
                    <path d="M57.411,29.359 C57.441,30.307 58.234,31.049 59.183,31.017 C60.13,30.984 60.873,30.189 60.84,29.241 C60.808,28.294 60.012,27.552 59.065,27.586 C58.118,27.617 57.376,28.412 57.411,29.359" id="Fill-115" fill="#FFFFFF"></path>
                    <path d="M67.443,22.504 C68.257,22.537 68.94,21.901 68.971,21.086 C69.001,20.276 68.367,19.593 67.552,19.564 C66.74,19.532 66.057,20.167 66.029,20.979 C65.998,21.792 66.633,22.476 67.443,22.504" id="Fill-116" fill="#FFFFFF"></path>
                    <path d="M69.913,25.38 C70.489,25.401 70.973,24.953 70.993,24.377 C71.016,23.804 70.566,23.32 69.991,23.299 C69.417,23.277 68.934,23.727 68.913,24.301 C68.891,24.875 69.339,25.359 69.913,25.38" id="Fill-117" fill="#FFFFFF"></path>
                    <path d="M62.634,26.958 C63.327,26.984 63.907,26.445 63.931,25.752 C63.959,25.063 63.419,24.482 62.727,24.457 C62.037,24.431 61.455,24.97 61.431,25.661 C61.405,26.351 61.947,26.932 62.634,26.958" id="Fill-118" fill="#FFFFFF"></path>
                    <path d="M75.529,61.821 C74.681,61.789 73.962,62.455 73.932,63.306 C73.899,64.159 74.563,64.875 75.417,64.906 C76.27,64.939 76.985,64.273 77.018,63.42 C77.047,62.568 76.383,61.853 75.529,61.821" id="Fill-119" fill="#FFFFFF"></path>
                    <path d="M92.203,69.582 C91.349,69.55 90.633,70.216 90.603,71.068 C90.57,71.919 91.236,72.635 92.087,72.668 C92.94,72.7 93.655,72.035 93.687,71.18 C93.719,70.33 93.056,69.614 92.203,69.582" id="Fill-120" fill="#FFFFFF"></path>
                    <path d="M73.831,23.315 C74.732,23.35 75.49,22.646 75.524,21.743 C75.558,20.841 74.854,20.084 73.95,20.05 C73.05,20.018 72.292,20.72 72.26,21.623 C72.227,22.525 72.931,23.283 73.831,23.315" id="Fill-121" fill="#FFFFFF"></path>
                    <path d="M83.381,25.661 C84.156,25.69 84.805,25.085 84.838,24.31 C84.865,23.535 84.26,22.883 83.483,22.855 C82.712,22.827 82.061,23.431 82.029,24.206 C82,24.981 82.605,25.632 83.381,25.661" id="Fill-122" fill="#FFFFFF"></path>
                    <path d="M58.188,24.275 C59.086,24.308 59.844,23.606 59.878,22.702 C59.913,21.8 59.207,21.043 58.306,21.01 C57.402,20.976 56.645,21.679 56.613,22.581 C56.581,23.484 57.284,24.241 58.188,24.275" id="Fill-123" fill="#FFFFFF"></path>
                    <path d="M53.573,25.721 C54.473,25.753 55.232,25.05 55.265,24.149 C55.302,23.244 54.596,22.488 53.694,22.455 C52.791,22.422 52.034,23.123 52.002,24.026 C51.967,24.929 52.672,25.686 53.573,25.721" id="Fill-124" fill="#FFFFFF"></path>
                    <path d="M51.555,68.356 C52.409,68.388 53.125,67.723 53.158,66.869 C53.188,66.018 52.523,65.302 51.672,65.271 C50.818,65.238 50.101,65.903 50.072,66.755 C50.039,67.609 50.706,68.324 51.555,68.356" id="Fill-125" fill="#FFFFFF"></path>
                    <path d="M62.647,63.63 C62.615,64.481 63.283,65.198 64.133,65.229 C64.985,65.262 65.701,64.596 65.733,63.742 C65.766,62.891 65.1,62.176 64.248,62.145 C63.396,62.112 62.678,62.777 62.647,63.63" id="Fill-126" fill="#FFFFFF"></path>
                    <path d="M81.331,66.827 C81.301,67.679 81.967,68.397 82.816,68.426 C83.669,68.461 84.385,67.794 84.418,66.939 C84.449,66.088 83.783,65.373 82.932,65.343 C82.079,65.311 81.361,65.976 81.331,66.827" id="Fill-127" fill="#FFFFFF"></path>
                    <path d="M24.104,66.343 C24.956,66.376 25.672,65.71 25.705,64.856 C25.737,64.005 25.071,63.29 24.219,63.258 C23.367,63.226 22.648,63.892 22.618,64.743 C22.588,65.596 23.255,66.312 24.104,66.343" id="Fill-128" fill="#FFFFFF"></path>
                    <path d="M28.675,57.221 C27.823,57.19 27.104,57.855 27.074,58.707 C27.042,59.559 27.709,60.275 28.561,60.307 C29.413,60.338 30.128,59.673 30.161,58.82 C30.193,57.968 29.526,57.253 28.675,57.221" id="Fill-129" fill="#FFFFFF"></path>
                    <path d="M109.879,59.809 C109.028,59.777 108.309,60.443 108.279,61.294 C108.248,62.147 108.915,62.863 109.766,62.893 C110.616,62.927 111.333,62.261 111.366,61.407 C111.397,60.556 110.731,59.84 109.879,59.809" id="Fill-130" fill="#FFFFFF"></path>
                    <path d="M98.045,61.085 C98.014,61.937 98.678,62.653 99.529,62.685 C100.384,62.717 101.098,62.051 101.129,61.198 C101.162,60.347 100.498,59.631 99.644,59.599 C98.792,59.568 98.076,60.232 98.045,61.085" id="Fill-131" fill="#FFFFFF"></path>
                    <path d="M103.498,50.555 C103.528,49.705 102.863,48.988 102.012,48.958 C101.16,48.926 100.442,49.591 100.412,50.442 C100.379,51.294 101.046,52.011 101.897,52.042 C102.75,52.075 103.465,51.409 103.498,50.555" id="Fill-132" fill="#FFFFFF"></path>
                    <path d="M36.704,58.095 C36.673,58.948 37.338,59.665 38.19,59.695 C39.042,59.729 39.758,59.062 39.79,58.208 C39.823,57.358 39.159,56.642 38.304,56.611 C37.452,56.579 36.736,57.245 36.704,58.095" id="Fill-133" fill="#FFFFFF"></path>
                    <path d="M78.669,23.19 C79.279,23.213 79.795,22.734 79.816,22.121 C79.84,21.511 79.362,20.995 78.749,20.973 C78.141,20.951 77.623,21.428 77.603,22.04 C77.579,22.652 78.058,23.167 78.669,23.19" id="Fill-134" fill="#FFFFFF"></path>
                    <path d="M62.6,22.32 C63.229,22.343 63.76,21.851 63.784,21.221 C63.808,20.592 63.315,20.063 62.684,20.04 C62.056,20.018 61.525,20.507 61.504,21.137 C61.479,21.767 61.972,22.297 62.6,22.32" id="Fill-135" fill="#FFFFFF"></path>
                    <path d="M48.118,26.958 C48.808,26.984 49.388,26.445 49.416,25.752 C49.442,25.063 48.9,24.482 48.21,24.457 C47.52,24.431 46.94,24.97 46.914,25.661 C46.888,26.351 47.43,26.932 48.118,26.958" id="Fill-136" fill="#FFFFFF"></path>
                    <path d="M93.536,30.839 C94.227,30.864 94.809,30.325 94.831,29.632 C94.86,28.944 94.319,28.363 93.628,28.337 C92.938,28.312 92.356,28.851 92.333,29.542 C92.306,30.232 92.849,30.813 93.536,30.839" id="Fill-137" fill="#FFFFFF"></path>
                    <path d="M84.137,32.314 C84.108,33.004 84.65,33.586 85.34,33.611 C86.031,33.638 86.61,33.098 86.637,32.406 C86.663,31.715 86.123,31.137 85.431,31.111 C84.742,31.086 84.161,31.624 84.137,32.314" id="Fill-138" fill="#FFFFFF"></path>
                    <path d="M54.104,27.331 C53.412,27.305 52.832,27.844 52.809,28.535 C52.78,29.224 53.322,29.806 54.012,29.831 C54.704,29.858 55.282,29.317 55.308,28.626 C55.333,27.937 54.795,27.356 54.104,27.331" id="Fill-139" fill="#FFFFFF"></path>
                    <path d="M71.348,31.255 C70.657,31.23 70.074,31.768 70.052,32.459 C70.024,33.148 70.566,33.73 71.254,33.756 C71.945,33.78 72.527,33.243 72.551,32.55 C72.58,31.859 72.037,31.28 71.348,31.255" id="Fill-140" fill="#FFFFFF"></path>
                    <path d="M100.07,36.522 C100.763,36.548 101.344,36.008 101.366,35.316 C101.395,34.627 100.855,34.047 100.164,34.022 C99.474,33.996 98.891,34.534 98.867,35.224 C98.842,35.915 99.383,36.496 100.07,36.522" id="Fill-141" fill="#FFFFFF"></path>
                    <path d="M57.156,36.961 C56.468,36.935 55.886,37.475 55.862,38.164 C55.834,38.856 56.375,39.437 57.065,39.462 C57.756,39.488 58.336,38.948 58.364,38.256 C58.388,37.568 57.849,36.986 57.156,36.961" id="Fill-142" fill="#FFFFFF"></path>
                    <path d="M64.916,35.685 C64.89,36.377 65.429,36.958 66.122,36.983 C66.812,37.009 67.389,36.469 67.417,35.777 C67.443,35.088 66.904,34.507 66.212,34.482 C65.522,34.456 64.94,34.996 64.916,35.685" id="Fill-143" fill="#FFFFFF"></path>
                    <path d="M59.141,36.306 C59.1,37.39 59.945,38.299 61.03,38.34 C62.11,38.381 63.022,37.535 63.062,36.452 C63.102,35.368 62.257,34.458 61.174,34.418 C60.091,34.377 59.179,35.222 59.141,36.306" id="Fill-144" fill="#FFFFFF"></path>
                    <path d="M63.016,31.356 C62.324,31.33 61.743,31.87 61.718,32.559 C61.691,33.25 62.231,33.832 62.923,33.856 C63.614,33.883 64.191,33.343 64.219,32.651 C64.246,31.962 63.706,31.381 63.016,31.356" id="Fill-145" fill="#FFFFFF"></path>
                    <path d="M85.527,61.108 C85.551,60.42 85.015,59.839 84.323,59.814 C83.632,59.788 83.051,60.327 83.026,61.017 C82.998,61.708 83.539,62.29 84.229,62.314 C84.922,62.341 85.5,61.801 85.527,61.108" id="Fill-146" fill="#FFFFFF"></path>
                    <path d="M65.671,60.479 C65.646,61.17 66.185,61.75 66.874,61.776 C67.567,61.801 68.145,61.262 68.173,60.57 C68.199,59.881 67.659,59.299 66.967,59.274 C66.277,59.249 65.695,59.788 65.671,60.479" id="Fill-147" fill="#FFFFFF"></path>
                    <path d="M40.554,63.605 C40.528,64.296 41.069,64.876 41.757,64.901 C42.449,64.927 43.03,64.388 43.056,63.695 C43.082,63.007 42.541,62.426 41.85,62.401 C41.16,62.375 40.58,62.914 40.554,63.605" id="Fill-148" fill="#FFFFFF"></path>
                    <path d="M49.886,37.079 C50.577,37.106 51.156,36.565 51.182,35.874 C51.21,35.184 50.668,34.605 49.979,34.579 C49.288,34.553 48.706,35.092 48.683,35.781 C48.654,36.472 49.196,37.054 49.886,37.079" id="Fill-149" fill="#FFFFFF"></path>
                    <path d="M36.137,47.848 C35.446,47.822 34.866,48.362 34.84,49.052 C34.815,49.742 35.356,50.324 36.044,50.349 C36.736,50.375 37.316,49.836 37.342,49.143 C37.368,48.454 36.827,47.874 36.137,47.848" id="Fill-150" fill="#FFFFFF"></path>
                    <path d="M92.341,36.81 C91.651,36.783 91.071,37.322 91.047,38.011 C91.018,38.702 91.56,39.284 92.249,39.309 C92.94,39.336 93.52,38.796 93.546,38.104 C93.572,37.414 93.032,36.835 92.341,36.81" id="Fill-151" fill="#FFFFFF"></path>
                    <path d="M95.553,54.102 C95.578,53.413 95.039,52.832 94.347,52.807 C93.655,52.782 93.074,53.32 93.05,54.011 C93.024,54.701 93.563,55.283 94.256,55.308 C94.946,55.335 95.524,54.794 95.553,54.102" id="Fill-152" fill="#FFFFFF"></path>
                    <path d="M41.886,60.008 C41.919,60.958 42.713,61.698 43.662,61.666 C44.608,61.632 45.348,60.838 45.316,59.89 C45.283,58.943 44.49,58.202 43.541,58.235 C42.594,58.267 41.854,59.06 41.886,60.008" id="Fill-153" fill="#FFFFFF"></path>
                    <path d="M37.004,51.588 C36.055,51.619 35.313,52.413 35.348,53.36 C35.38,54.309 36.174,55.051 37.121,55.018 C38.067,54.986 38.812,54.191 38.777,53.243 C38.744,52.296 37.951,51.555 37.004,51.588" id="Fill-154" fill="#FFFFFF"></path>
                    <path d="M26.449,57.282 C27.396,57.25 28.14,56.454 28.105,55.506 C28.073,54.559 27.277,53.819 26.333,53.85 C25.383,53.883 24.641,54.678 24.677,55.625 C24.708,56.572 25.502,57.314 26.449,57.282" id="Fill-155" fill="#FFFFFF"></path>
                    <path d="M75.138,72.877 C76.084,72.843 76.826,72.049 76.794,71.101 C76.761,70.152 75.965,69.412 75.019,69.446 C74.071,69.478 73.329,70.271 73.363,71.219 C73.396,72.168 74.188,72.908 75.138,72.877" id="Fill-156" fill="#FFFFFF"></path>
                    <path d="M65.688,72.589 C66.635,72.556 67.375,71.761 67.344,70.813 C67.31,69.865 66.516,69.125 65.567,69.158 C64.623,69.19 63.881,69.984 63.914,70.931 C63.946,71.88 64.739,72.621 65.688,72.589" id="Fill-157" fill="#FFFFFF"></path>
                    <path d="M101.151,72.373 C102.098,72.34 102.841,71.546 102.808,70.598 C102.776,69.65 101.981,68.91 101.032,68.942 C100.085,68.974 99.344,69.768 99.377,70.716 C99.408,71.664 100.204,72.405 101.151,72.373" id="Fill-158" fill="#FFFFFF"></path>
                    <path d="M98.3,54.224 C98.331,55.171 99.126,55.912 100.074,55.88 C101.021,55.847 101.761,55.054 101.729,54.106 C101.696,53.158 100.903,52.417 99.954,52.449 C99.008,52.482 98.268,53.276 98.3,54.224" id="Fill-159" fill="#FFFFFF"></path>
                    <path d="M60.729,68.384 C61.677,68.352 62.416,67.558 62.384,66.609 C62.352,65.662 61.558,64.921 60.609,64.954 C59.662,64.985 58.922,65.78 58.955,66.727 C58.985,67.675 59.781,68.417 60.729,68.384" id="Fill-160" fill="#FFFFFF"></path>
                    <path d="M49.83,43.503 C48.883,43.535 48.141,44.329 48.175,45.275 C48.208,46.225 49,46.966 49.948,46.934 C50.895,46.901 51.638,46.107 51.605,45.158 C51.573,44.211 50.779,43.469 49.83,43.503" id="Fill-161" fill="#FFFFFF"></path>
                    <path d="M40.104,45.177 C40.987,45.146 41.682,44.402 41.652,43.514 C41.622,42.628 40.877,41.935 39.991,41.965 C39.104,41.996 38.41,42.738 38.442,43.626 C38.47,44.513 39.215,45.208 40.104,45.177" id="Fill-162" fill="#FFFFFF"></path>
                    <path d="M45.193,53.562 C44.501,53.536 43.92,54.075 43.895,54.766 C43.87,55.456 44.41,56.037 45.101,56.063 C45.791,56.088 46.37,55.549 46.396,54.857 C46.425,54.168 45.883,53.586 45.193,53.562" id="Fill-163" fill="#FFFFFF"></path>
                    <path d="M78.384,69.17 C79.465,69.21 80.378,68.364 80.417,67.281 C80.458,66.197 79.611,65.288 78.529,65.247 C77.447,65.206 76.533,66.052 76.493,67.135 C76.454,68.22 77.3,69.128 78.384,69.17" id="Fill-164" fill="#FFFFFF"></path>
                    <path d="M104.189,62.288 C104.152,63.334 104.97,64.214 106.019,64.253 C107.065,64.292 107.942,63.476 107.981,62.427 C108.021,61.38 107.203,60.5 106.157,60.462 C105.11,60.423 104.23,61.24 104.189,62.288" id="Fill-165" fill="#FFFFFF"></path>
                    <path d="M50.134,32.565 C50.749,32.589 51.264,32.11 51.288,31.496 C51.309,30.884 50.831,30.371 50.218,30.347 C49.604,30.325 49.09,30.803 49.068,31.416 C49.045,32.027 49.523,32.543 50.134,32.565" id="Fill-166" fill="#FFFFFF"></path>
                    <path d="M78.049,27.382 C78.9,27.414 79.617,26.749 79.648,25.897 C79.68,25.045 79.017,24.328 78.163,24.297 C77.313,24.266 76.594,24.932 76.563,25.783 C76.532,26.634 77.196,27.351 78.049,27.382" id="Fill-167" fill="#FFFFFF"></path>
                    <path d="M65.298,67.611 C65.321,66.922 64.784,66.342 64.092,66.317 C63.402,66.291 62.822,66.83 62.796,67.52 C62.77,68.211 63.309,68.793 63.999,68.817 C64.692,68.844 65.27,68.304 65.298,67.611" id="Fill-168" fill="#FFFFFF"></path>
                    <path d="M92.188,62.311 C92.162,63.002 92.703,63.583 93.394,63.609 C94.083,63.634 94.663,63.095 94.69,62.402 C94.716,61.713 94.177,61.133 93.484,61.107 C92.793,61.082 92.212,61.62 92.188,62.311" id="Fill-169" fill="#FFFFFF"></path>
                    <path d="M50.33,62.989 C50.363,63.938 51.156,64.679 52.105,64.648 C53.052,64.614 53.794,63.819 53.762,62.872 C53.727,61.925 52.935,61.184 51.987,61.216 C51.04,61.249 50.298,62.043 50.33,62.989" id="Fill-170" fill="#FFFFFF"></path>
                    <path d="M28.821,73.415 C29.768,73.382 30.51,72.589 30.478,71.64 C30.445,70.692 29.649,69.951 28.703,69.985 C27.754,70.017 27.014,70.809 27.046,71.759 C27.079,72.706 27.873,73.447 28.821,73.415" id="Fill-171" fill="#FFFFFF"></path>
                    <path d="M33.173,66.709 C33.829,66.734 34.383,66.221 34.405,65.561 C34.431,64.906 33.92,64.355 33.26,64.33 C32.606,64.306 32.052,64.818 32.028,65.475 C32.005,66.132 32.518,66.684 33.173,66.709" id="Fill-172" fill="#FFFFFF"></path>
                    <path d="M32.729,71.087 C33.581,71.118 34.297,70.453 34.329,69.6 C34.36,68.749 33.695,68.033 32.843,68.002 C31.991,67.97 31.274,68.635 31.243,69.486 C31.211,70.338 31.877,71.054 32.729,71.087" id="Fill-173" fill="#FFFFFF"></path>
                    <path d="M28,64.121 C28.655,64.147 29.207,63.633 29.231,62.975 C29.257,62.319 28.744,61.767 28.086,61.744 C27.43,61.718 26.878,62.232 26.854,62.887 C26.829,63.544 27.342,64.096 28,64.121" id="Fill-174" fill="#FFFFFF"></path>
                    <path d="M49.879,70.489 C49.847,69.542 49.054,68.802 48.106,68.835 C47.158,68.866 46.416,69.661 46.45,70.608 C46.482,71.556 47.277,72.297 48.224,72.265 C49.169,72.233 49.911,71.439 49.879,70.489" id="Fill-175" fill="#FFFFFF"></path>
                    <path d="M44.833,68.186 C44.143,68.16 43.56,68.699 43.537,69.389 C43.511,70.078 44.05,70.66 44.74,70.686 C45.432,70.712 46.011,70.173 46.039,69.481 C46.062,68.791 45.524,68.211 44.833,68.186" id="Fill-176" fill="#FFFFFF"></path>
                    <path d="M71.927,34.34 C70.98,34.373 70.241,35.167 70.272,36.113 C70.304,37.064 71.1,37.805 72.046,37.772 C72.996,37.739 73.735,36.945 73.703,35.996 C73.67,35.048 72.875,34.307 71.927,34.34" id="Fill-177" fill="#FFFFFF"></path>
                    <path d="M81.215,41.059 C81.24,40.37 80.701,39.789 80.009,39.764 C79.32,39.738 78.738,40.277 78.715,40.967 C78.687,41.658 79.228,42.239 79.918,42.265 C80.608,42.291 81.189,41.751 81.215,41.059" id="Fill-178" fill="#FFFFFF"></path>
                    <path d="M90.141,49.175 C90.141,48.009 89.194,47.065 88.029,47.065 C86.862,47.065 85.918,48.009 85.918,49.175 C85.918,50.342 86.862,51.287 88.029,51.287 C89.194,51.287 90.141,50.342 90.141,49.175" id="Fill-179" fill="#FFFFFF"></path>
                    <path d="M55.293,36.963 C55.321,36.19 54.717,35.538 53.942,35.511 C53.166,35.482 52.516,36.087 52.489,36.86 C52.458,37.634 53.065,38.285 53.837,38.314 C54.611,38.344 55.263,37.739 55.293,36.963" id="Fill-180" fill="#FFFFFF"></path>
                </g>
            </g>
        </g>
    </g>
</svg>