<?xml version="1.0" encoding="UTF-8" standalone="no"?>
<svg width="216px" height="232px" viewBox="0 0 216 232" version="1.1" xmlns="http://www.w3.org/2000/svg" xmlns:xlink="http://www.w3.org/1999/xlink">
    <!-- Generator: Sketch 3.8.2 (29753) - http://www.bohemiancoding.com/sketch -->
    <title>nea-logo-primary-RGB</title>
    <desc>Created with Sketch.</desc>
    <defs></defs>
    <g id="Long-Form-Content" stroke="none" stroke-width="1" fill="none" fill-rule="evenodd">
        <g id="Desktop-HD" transform="translate(-69.000000, -177.000000)">
            <g id="nea-logo-primary-RGB" transform="translate(69.000000, 177.000000)">
                <path d="M0.033,200.23 L7.648,200.23 L7.648,162.299 L0.033,162.299 L0.033,156.7 L44.906,156.7 L44.906,173.35 L40.127,173.35 C37.739,164.24 36.842,162.226 30.87,162.226 L17.28,162.226 L17.28,178.203 L21.984,178.203 C26.913,178.203 27.511,177.457 28.705,170.959 L33.482,170.959 L33.482,190.672 L28.705,190.672 C27.658,184.026 26.913,183.281 21.984,183.281 L17.28,183.281 L17.28,200.303 L30.57,200.303 C37.588,200.303 38.486,197.839 40.8,187.535 L45.577,187.535 L45.577,205.828 L0.033,205.828 L0.033,200.23" id="Fill-1" fill="#253867"></path>
                <path d="M51.042,193.683 C51.042,185.567 56.738,180.087 64.905,180.087 C72.161,180.087 75.87,184.439 75.87,188.254 C75.87,190.942 74.365,192.877 71.569,192.877 C68.937,192.877 67.538,191.103 67.538,189.06 C67.538,187.341 68.667,186.107 69.797,185.675 C69.044,184.708 67.755,183.954 65.658,183.954 C62.112,183.954 59.479,187.287 59.479,193.09 C59.479,198.359 61.629,201.798 65.82,201.798 C68.721,201.798 70.712,200.077 71.731,197.177 L75.924,197.177 C74.739,202.603 70.979,206.363 64.638,206.363 C56.093,206.363 51.042,201.26 51.042,193.683" id="Fill-2" fill="#253867"></path>
                <path d="M80.809,202.12 L95.535,184.332 L90.859,184.332 C87.527,184.332 86.558,184.87 84.948,190.726 L81.347,190.726 L81.347,180.678 L104.296,180.678 L104.296,184.386 L89.515,202.12 L95.052,202.12 C98.273,202.12 99.351,201.581 100.91,195.295 L104.509,195.295 L104.509,205.828 L80.809,205.828 L80.809,202.12" id="Fill-3" fill="#253867"></path>
                <path d="M116.759,190.889 L126.163,190.889 C125.896,185.783 124.497,183.739 121.595,183.739 C118.802,183.739 117.082,185.514 116.759,190.889 L116.759,190.889 Z M116.706,194.273 C117.029,200.132 119.393,202.068 123.37,202.068 C126.379,202.068 128.262,200.829 129.39,197.659 L133.582,197.659 C132.613,202.926 129.065,206.363 122.026,206.363 C113.644,206.363 108.538,201.205 108.538,193.468 C108.538,185.837 114.18,180.087 121.757,180.087 C130.247,180.087 134.225,186.107 133.849,194.273 L116.706,194.273 L116.706,194.273 Z" id="Fill-4" fill="#253867"></path>
                <path d="M172.701,180.141 C177.967,180.141 180.115,183.795 180.115,189.006 L180.115,201.366 L183.771,201.366 L183.771,205.828 L169.581,205.828 L169.581,201.366 L172.271,201.366 L172.271,190.083 C172.271,188.362 171.947,187.018 171.144,186.211 C170.604,185.675 169.905,185.407 168.886,185.407 C166.629,185.407 164.316,187.934 164.316,191.532 L164.316,201.366 L166.896,201.366 L166.896,205.828 L153.783,205.828 L153.783,201.366 L156.471,201.366 L156.471,190.083 C156.471,188.362 156.096,187.018 155.288,186.211 C154.804,185.675 154.054,185.407 153.085,185.407 C150.828,185.407 148.517,187.934 148.517,191.532 L148.517,201.366 L151.097,201.366 L151.097,205.828 L136.964,205.828 L136.964,201.366 L140.671,201.366 L140.671,185.138 L136.964,185.138 L136.964,180.678 L148.033,180.678 L148.033,187.287 C149.807,183.041 152.548,180.141 156.903,180.141 C161.201,180.141 163.456,182.667 163.994,186.803 C165.823,182.774 168.508,180.141 172.701,180.141" id="Fill-5" fill="#253867"></path>
                <path d="M202.629,196.262 L202.629,193.79 C202.144,193.897 201.553,193.95 200.211,194.22 C196.394,194.865 195.212,196.1 195.212,198.518 C195.212,200.238 196.181,201.742 198.546,201.742 C200.962,201.742 202.629,199.486 202.629,196.262 L202.629,196.262 Z M187.204,199.648 C187.204,197.983 187.852,196.423 188.979,195.295 C190.645,193.627 193.226,192.554 199.404,191.749 C202.359,191.318 202.629,191.265 202.629,190.619 L202.629,188.416 C202.629,185.193 201.124,184.01 198.007,184.01 C196.931,184.01 195.804,184.224 194.782,184.653 C195.59,185.246 196.073,186.159 196.073,187.394 C196.073,189.276 194.462,190.726 192.258,190.726 C189.516,190.726 188.172,188.953 188.172,186.965 C188.172,182.344 193.924,180.141 200.104,180.141 C207.681,180.141 210.367,183.687 210.367,188.9 L210.367,200.347 C210.367,201.581 210.85,201.851 211.711,201.851 C212.302,201.851 212.893,201.26 213.378,199.433 L216.009,200.292 C214.989,204.432 213.001,206.311 209.401,206.311 C206.337,206.311 203.919,204.699 203.489,200.992 L203.22,200.992 C201.606,204.806 198.601,206.311 194.891,206.311 C190.432,206.311 187.204,203.732 187.204,199.648 L187.204,199.648 Z" id="Fill-6" fill="#253867"></path>
                <polyline id="Fill-7" fill="#7B903B" points="57.829 160.399 57.615 160.399 57.615 170.22 59.751 170.22 59.751 172.284 53.464 172.284 53.464 170.22 55.504 170.22 55.504 158.736 53.464 158.736 53.464 156.674 60.106 156.674 66.726 167.586 66.939 167.586 66.939 158.736 64.804 158.736 64.804 156.674 71.09 156.674 71.09 158.736 69.051 158.736 69.051 172.497 65.16 172.497 57.829 160.399"></polyline>
                <path d="M81.146,165.429 L85.228,165.429 L83.259,159.592 L83.162,159.592 L81.146,165.429 L81.146,165.429 Z M85.843,167.302 L80.506,167.302 L79.509,170.22 L81.478,170.22 L81.478,172.284 L75.476,172.284 L75.476,170.22 L77.186,170.22 L82.212,156.579 L86.104,156.579 L91.064,170.22 L92.913,170.22 L92.913,172.284 L84.728,172.284 L84.728,170.22 L86.841,170.22 L85.843,167.302 L85.843,167.302 Z" id="Fill-8" fill="#7B903B"></path>
                <path d="M99.933,170.22 L102.376,170.22 L102.376,158.452 L101.783,158.452 C99.861,158.452 99.458,159.093 98.581,162.96 L96.706,162.96 L96.706,156.674 L111.938,156.674 L111.938,162.96 L110.063,162.96 C109.185,159.093 108.784,158.452 106.859,158.452 L106.267,158.452 L106.267,170.22 L108.71,170.22 L108.71,172.284 L99.933,172.284 L99.933,170.22" id="Fill-9" fill="#7B903B"></path>
                <polyline id="Fill-10" fill="#7B903B" points="117.771 170.22 119.953 170.22 119.953 158.736 117.771 158.736 117.771 156.674 126.002 156.674 126.002 158.736 123.82 158.736 123.82 170.22 126.002 170.22 126.002 172.284 117.771 172.284 117.771 170.22"></polyline>
                <path d="M143.367,164.479 C143.367,160.185 142.014,158.238 139.5,158.238 C136.983,158.238 135.772,160.185 135.772,164.479 C135.772,168.795 137.127,170.717 139.643,170.717 C142.154,170.717 143.367,168.795 143.367,164.479 L143.367,164.479 Z M131.552,164.502 C131.552,159.613 135.038,156.293 139.57,156.293 C144.222,156.293 147.59,159.496 147.59,164.455 C147.59,169.365 144.101,172.663 139.57,172.663 C134.921,172.663 131.552,169.461 131.552,164.502 L131.552,164.502 Z" id="Fill-11" fill="#7B903B"></path>
                <polyline id="Fill-12" fill="#7B903B" points="156.79 160.399 156.576 160.399 156.576 170.22 158.712 170.22 158.712 172.284 152.425 172.284 152.425 170.22 154.465 170.22 154.465 158.736 152.425 158.736 152.425 156.674 159.067 156.674 165.687 167.586 165.9 167.586 165.9 158.736 163.766 158.736 163.766 156.674 170.052 156.674 170.052 158.736 168.011 158.736 168.011 172.497 164.12 172.497 156.79 160.399"></polyline>
                <path d="M180.106,165.429 L184.187,165.429 L182.218,159.592 L182.123,159.592 L180.106,165.429 L180.106,165.429 Z M184.804,167.302 L179.466,167.302 L178.469,170.22 L180.438,170.22 L180.438,172.284 L174.438,172.284 L174.438,170.22 L176.145,170.22 L181.173,156.579 L185.064,156.579 L190.023,170.22 L191.873,170.22 L191.873,172.284 L183.688,172.284 L183.688,170.22 L185.801,170.22 L184.804,167.302 L184.804,167.302 Z" id="Fill-13" fill="#7B903B"></path>
                <path d="M205.181,156.674 L205.181,158.69 L202.829,158.69 L202.829,170.268 L205.49,170.268 C207.363,170.268 207.767,169.793 208.786,165.832 L210.66,165.832 L210.66,172.284 L196.827,172.284 L196.827,170.22 L198.962,170.22 L198.962,158.736 L196.827,158.736 L196.827,156.674 L205.181,156.674" id="Fill-14" fill="#7B903B"></path>
                <path d="M5.678,224.133 L9.76,224.133 L7.791,218.298 L7.694,218.298 L5.678,224.133 L5.678,224.133 Z M10.374,226.008 L5.039,226.008 L4.04,228.927 L6.011,228.927 L6.011,230.99 L0.009,230.99 L0.009,228.927 L1.718,228.927 L6.745,215.284 L10.636,215.284 L15.596,228.927 L17.447,228.927 L17.447,230.99 L9.26,230.99 L9.26,228.927 L11.373,228.927 L10.374,226.008 L10.374,226.008 Z" id="Fill-15" fill="#7B903B"></path>
                <path d="M22.828,225.533 L24.916,225.533 C25.935,228.19 27.241,229.4 29.755,229.4 C31.44,229.4 32.388,228.568 32.388,227.336 C32.388,225.889 30.799,225.533 28.427,224.941 C25.864,224.322 22.971,223.445 22.971,219.958 C22.971,217.064 25.414,215 28.45,215 C30.159,215 31.63,215.64 32.436,216.732 L32.934,215.046 L35.022,215.046 L35.022,220.599 L32.934,220.599 C31.938,218.014 30.775,216.968 28.759,216.968 C27.169,216.968 26.315,217.895 26.315,218.962 C26.315,220.528 28.047,220.883 30.395,221.453 C32.934,222.068 35.733,222.901 35.733,226.292 C35.733,229.259 33.385,231.37 29.993,231.37 C28.047,231.37 26.339,230.563 25.461,229.472 L24.892,231.322 L22.828,231.322 L22.828,225.533" id="Fill-16" fill="#7B903B"></path>
                <path d="M42.23,225.533 L44.317,225.533 C45.337,228.19 46.645,229.4 49.159,229.4 C50.841,229.4 51.792,228.568 51.792,227.336 C51.792,225.889 50.203,225.533 47.829,224.941 C45.269,224.322 42.372,223.445 42.372,219.958 C42.372,217.064 44.815,215 47.852,215 C49.563,215 51.033,215.64 51.84,216.732 L52.338,215.046 L54.426,215.046 L54.426,220.599 L52.338,220.599 C51.341,218.014 50.179,216.968 48.161,216.968 C46.571,216.968 45.717,217.895 45.717,218.962 C45.717,220.528 47.452,220.883 49.798,221.453 C52.338,222.068 55.138,222.901 55.138,226.292 C55.138,229.259 52.787,231.37 49.397,231.37 C47.452,231.37 45.741,230.563 44.863,229.472 L44.293,231.322 L42.23,231.322 L42.23,225.533" id="Fill-17" fill="#7B903B"></path>
                <path d="M72.523,223.183 C72.523,218.889 71.17,216.944 68.655,216.944 C66.141,216.944 64.932,218.889 64.932,223.183 C64.932,227.501 66.284,229.424 68.798,229.424 C71.313,229.424 72.523,227.501 72.523,223.183 L72.523,223.183 Z M60.709,223.207 C60.709,218.32 64.196,215 68.727,215 C73.377,215 76.746,218.201 76.746,223.161 C76.746,228.071 73.259,231.37 68.727,231.37 C64.077,231.37 60.709,228.167 60.709,223.207 L60.709,223.207 Z" id="Fill-18" fill="#7B903B"></path>
                <path d="M82.72,223.28 C82.72,218.415 86.184,215 90.264,215 C92.257,215 93.754,215.688 94.7,216.849 L95.199,215.046 L97.336,215.046 L97.336,221.263 L94.984,221.263 C94.038,218.392 92.708,216.944 90.739,216.944 C88.508,216.944 86.942,218.582 86.942,223.042 C86.942,227.313 88.58,229.14 91.261,229.14 C93.609,229.14 94.961,227.36 95.366,224.75 L97.645,224.75 C97.241,228.783 94.938,231.37 90.714,231.37 C85.851,231.37 82.72,228.096 82.72,223.28" id="Fill-19" fill="#7B903B"></path>
                <polyline id="Fill-20" fill="#7B903B" points="103.523 228.927 105.707 228.927 105.707 217.443 103.523 217.443 103.523 215.38 111.756 215.38 111.756 217.443 109.572 217.443 109.572 228.927 111.756 228.927 111.756 230.99 103.523 230.99 103.523 228.927"></polyline>
                <path d="M122.523,224.133 L126.605,224.133 L124.636,218.298 L124.54,218.298 L122.523,224.133 L122.523,224.133 Z M127.222,226.008 L121.884,226.008 L120.888,228.927 L122.856,228.927 L122.856,230.99 L116.852,230.99 L116.852,228.927 L118.563,228.927 L123.592,215.284 L127.482,215.284 L132.44,228.927 L134.291,228.927 L134.291,230.99 L126.107,230.99 L126.107,228.927 L128.218,228.927 L127.222,226.008 L127.222,226.008 Z" id="Fill-21" fill="#7B903B"></path>
                <path d="M141.31,228.927 L143.755,228.927 L143.755,217.159 L143.16,217.159 C141.237,217.159 140.835,217.797 139.958,221.666 L138.083,221.666 L138.083,215.38 L153.313,215.38 L153.313,221.666 L151.439,221.666 C150.563,217.797 150.158,217.159 148.236,217.159 L147.646,217.159 L147.646,228.927 L150.089,228.927 L150.089,230.99 L141.31,230.99 L141.31,228.927" id="Fill-22" fill="#7B903B"></path>
                <polyline id="Fill-23" fill="#7B903B" points="160.087 228.927 162.269 228.927 162.269 217.443 160.087 217.443 160.087 215.38 168.319 215.38 168.319 217.443 166.137 217.443 166.137 228.927 168.319 228.927 168.319 230.99 160.087 230.99 160.087 228.927"></polyline>
                <path d="M186.157,223.183 C186.157,218.889 184.805,216.944 182.29,216.944 C179.773,216.944 178.563,218.889 178.563,223.183 C178.563,227.501 179.917,229.424 182.431,229.424 C184.945,229.424 186.157,227.501 186.157,223.183 L186.157,223.183 Z M174.343,223.207 C174.343,218.32 177.828,215 182.361,215 C187.011,215 190.38,218.201 190.38,223.161 C190.38,228.071 186.891,231.37 182.361,231.37 C177.71,231.37 174.343,228.167 174.343,223.207 L174.343,223.207 Z" id="Fill-24" fill="#7B903B"></path>
                <polyline id="Fill-25" fill="#7B903B" points="199.591 219.106 199.376 219.106 199.376 228.927 201.511 228.927 201.511 230.99 195.225 230.99 195.225 228.927 197.264 228.927 197.264 217.443 195.225 217.443 195.225 215.38 201.868 215.38 208.486 226.292 208.7 226.292 208.7 217.443 206.564 217.443 206.564 215.38 212.852 215.38 212.852 217.443 210.809 217.443 210.809 231.203 206.919 231.203 199.591 219.106"></polyline>
                <path d="M175.276,67.406 C175.276,104.556 145.159,134.671 108.01,134.671 C70.859,134.671 40.742,104.556 40.742,67.406 C40.742,30.257 70.859,0.14 108.01,0.14 C145.159,0.14 175.276,30.257 175.276,67.406" id="Fill-26" fill="#7B903B"></path>
                <path d="M170.247,67.406 C170.247,101.779 142.382,129.644 108.01,129.644 C73.636,129.644 45.771,101.779 45.771,67.406 C45.771,33.033 73.636,5.169 108.01,5.169 C142.382,5.169 170.247,33.033 170.247,67.406" id="Fill-27" fill="#FFFFFF"></path>
                <path d="M168.22,67.406 C168.22,100.66 141.263,127.615 108.01,127.615 C74.756,127.615 47.799,100.66 47.799,67.406 C47.799,34.153 74.756,7.196 108.01,7.196 C141.263,7.196 168.22,34.153 168.22,67.406" id="Fill-28" fill="#253867"></path>
                <path d="M100.957,73.07 C102.19,73.07 103.191,72.071 103.191,70.837 C103.191,69.604 102.19,68.606 100.957,68.606 C99.725,68.606 98.724,69.604 98.724,70.837 C98.724,72.071 99.725,73.07 100.957,73.07" id="Fill-29" fill="#FFFFFF"></path>
                <path d="M96.578,72.821 C97.581,72.859 98.424,72.073 98.463,71.068 C98.502,70.064 97.717,69.22 96.71,69.182 C95.707,69.146 94.861,69.93 94.825,70.934 C94.789,71.939 95.573,72.784 96.578,72.821" id="Fill-30" fill="#FFFFFF"></path>
                <path d="M92.457,73.17 C93.69,73.17 94.689,72.17 94.689,70.936 C94.689,69.701 93.69,68.703 92.457,68.703 C91.223,68.703 90.225,69.701 90.225,70.936 C90.225,72.17 91.223,73.17 92.457,73.17" id="Fill-31" fill="#FFFFFF"></path>
                <path d="M79.974,74.363 C81.205,74.363 82.206,73.365 82.206,72.132 C82.206,70.898 81.205,69.899 79.974,69.899 C78.74,69.899 77.739,70.898 77.739,72.132 C77.739,73.365 78.74,74.363 79.974,74.363" id="Fill-32" fill="#FFFFFF"></path>
                <path d="M74.95,74.484 C76.036,74.484 76.917,73.603 76.917,72.517 C76.917,71.431 76.036,70.551 74.95,70.551 C73.866,70.551 72.984,71.431 72.984,72.517 C72.984,73.603 73.866,74.484 74.95,74.484" id="Fill-33" fill="#FFFFFF"></path>
                <path d="M66.971,73.856 C66.971,72.623 65.97,71.622 64.739,71.622 C63.505,71.622 62.504,72.623 62.504,73.856 C62.504,75.088 63.505,76.089 64.739,76.089 C65.97,76.089 66.971,75.088 66.971,73.856" id="Fill-34" fill="#FFFFFF"></path>
                <path d="M83.968,77.234 C83.968,78.24 84.786,79.058 85.793,79.058 C86.802,79.058 87.617,78.24 87.617,77.234 C87.617,76.224 86.802,75.408 85.793,75.408 C85.73,75.408 85.669,75.42 85.609,75.426 C86.515,75.141 87.172,74.305 87.172,73.307 C87.172,72.072 86.174,71.073 84.941,71.073 C83.707,71.073 82.707,72.072 82.707,73.307 C82.707,74.54 83.707,75.54 84.941,75.54 C85.032,75.54 85.117,75.524 85.206,75.513 C84.488,75.758 83.968,76.43 83.968,77.234" id="Fill-35" fill="#FFFFFF"></path>
                <path d="M110.73,73.358 C111.965,73.358 112.964,72.359 112.964,71.126 C112.964,69.891 111.965,68.893 110.73,68.893 C109.496,68.893 108.498,69.891 108.498,71.126 C108.498,72.359 109.496,73.358 110.73,73.358" id="Fill-36" fill="#FFFFFF"></path>
                <path d="M68.116,78.852 C68.116,77.546 67.06,76.489 65.752,76.489 C64.448,76.489 63.388,77.546 63.388,78.852 C63.388,80.157 64.448,81.215 65.752,81.215 C67.06,81.215 68.116,80.157 68.116,78.852" id="Fill-37" fill="#FFFFFF"></path>
                <path d="M75.055,100.507 C75.057,100.509 75.057,100.51 75.057,100.51 C75.051,100.509 75.05,100.509 75.045,100.507 L75.055,100.507 L75.055,100.507 Z M76.132,93.134 C76.083,93.338 76.05,93.548 76.05,93.767 C76.05,94.241 76.182,94.68 76.397,95.067 C76.126,94.978 75.837,94.917 75.535,94.917 C75.25,94.917 74.983,94.972 74.722,95.05 C74.537,94.779 74.287,94.557 73.989,94.411 C74.16,94.128 74.28,93.811 74.336,93.472 C74.487,93.499 74.64,93.518 74.797,93.518 C75.289,93.518 75.745,93.373 76.132,93.134 L76.132,93.134 Z M78.378,89.276 C78.319,89.494 78.276,89.716 78.276,89.952 C78.276,90.368 78.384,90.752 78.559,91.099 C78.098,91.129 77.666,91.27 77.297,91.506 C77.336,91.329 77.357,91.148 77.357,90.96 C77.357,90.291 77.096,89.686 76.673,89.232 C76.965,89.338 77.273,89.405 77.599,89.405 C77.873,89.405 78.129,89.353 78.378,89.276 L78.378,89.276 Z M82.433,86.973 C82.831,86.905 83.181,86.733 83.479,86.501 C83.463,86.614 83.446,86.725 83.446,86.842 C83.446,87.631 83.811,88.326 84.372,88.797 C84.078,88.733 83.772,88.719 83.459,88.772 C83.349,88.792 83.245,88.827 83.14,88.861 C82.73,87.996 81.856,87.394 80.833,87.394 C80.599,87.394 80.375,87.437 80.159,87.496 C80.235,87.248 80.287,86.991 80.287,86.719 C80.287,86.526 80.264,86.337 80.226,86.156 C80.75,86.778 81.574,87.119 82.433,86.973 L82.433,86.973 Z M91.534,94.771 C91.695,95.293 92.01,95.744 92.429,96.077 C91.906,96.148 91.432,96.361 91.042,96.677 C90.971,96.467 90.88,96.266 90.767,96.081 C91.139,95.733 91.408,95.281 91.534,94.771 L91.534,94.771 Z M96.054,95.803 C96.134,96.547 96.742,97.139 97.51,97.168 C97.711,97.176 97.9,97.142 98.077,97.08 C97.915,97.436 97.818,97.829 97.818,98.247 C97.818,98.602 97.892,98.936 98.01,99.25 C97.575,98.973 97.061,98.808 96.507,98.808 C96.194,98.808 95.899,98.871 95.618,98.964 C95.618,98.93 95.627,98.895 95.627,98.86 C95.627,97.945 95.187,97.14 94.513,96.625 C95.119,96.528 95.655,96.233 96.054,95.803 L96.054,95.803 Z M101.351,100.964 C101.148,101.23 100.995,101.531 100.898,101.859 C100.725,101.998 100.566,102.149 100.425,102.322 L100.683,102.653 C100.717,102.637 100.74,102.614 100.773,102.599 C100.773,102.621 100.767,102.642 100.767,102.664 C100.767,103.007 100.838,103.33 100.947,103.632 C100.491,103.311 99.932,103.117 99.33,103.117 C99.17,103.117 99.02,103.138 98.869,103.162 C99.155,102.72 99.326,102.195 99.326,101.628 C99.326,101.274 99.254,100.938 99.133,100.625 C99.57,100.902 100.085,101.066 100.639,101.066 C100.885,101.066 101.123,101.024 101.351,100.964 L101.351,100.964 Z M104.575,98.529 C104.734,98.535 104.886,98.512 105.033,98.475 C104.991,98.67 104.963,98.872 104.963,99.079 C104.963,99.593 105.113,100.067 105.352,100.482 C104.869,100.089 104.258,99.844 103.585,99.844 C103.337,99.844 103.102,99.886 102.873,99.946 C103.236,99.473 103.458,98.889 103.458,98.247 C103.458,98.165 103.441,98.086 103.433,98.005 C103.72,98.314 104.123,98.512 104.575,98.529 L104.575,98.529 Z M119.133,103.249 C118.815,103.541 118.563,103.901 118.404,104.312 C117.916,103.911 117.302,103.661 116.622,103.661 C115.923,103.661 115.288,103.926 114.793,104.349 C114.959,103.991 115.059,103.596 115.059,103.175 C115.059,102.858 114.994,102.558 114.897,102.272 C115.234,102.496 115.633,102.625 116.065,102.625 C116.761,102.625 117.373,102.287 117.757,101.767 C118.016,102.417 118.51,102.942 119.133,103.249 L119.133,103.249 Z M123.192,100.728 C123.192,100.625 123.173,100.527 123.162,100.428 C123.371,101.138 123.847,101.725 124.481,102.081 C123.93,102.548 123.563,103.22 123.498,103.985 C123.218,103.474 122.79,103.061 122.27,102.802 C122.832,102.288 123.192,101.552 123.192,100.728 L123.192,100.728 Z M129.948,98.248 C129.486,98.751 129.196,99.416 129.196,100.153 C129.196,101.139 129.703,102.005 130.469,102.508 C129.875,102.628 129.357,102.94 128.965,103.367 C128.746,102.686 128.277,102.122 127.663,101.776 C128.275,101.259 128.675,100.496 128.675,99.63 C128.675,98.874 128.371,98.19 127.885,97.683 C128.345,98.055 128.925,98.287 129.563,98.287 C129.695,98.287 129.82,98.266 129.948,98.248 L129.948,98.248 Z M90.807,102.438 C90.295,101.708 89.453,101.229 88.495,101.229 C88.269,101.229 88.052,101.262 87.841,101.314 C87.921,101.051 87.977,100.781 87.977,100.494 C87.977,100.443 87.964,100.398 87.962,100.347 C88.101,100.368 88.235,100.389 88.379,100.389 C89.054,100.389 89.661,100.144 90.147,99.751 C90.423,100.577 91.063,101.227 91.885,101.514 C91.452,101.727 91.079,102.041 90.807,102.438 L90.807,102.438 Z M106.018,101.259 C106.055,101.29 106.091,101.324 106.128,101.351 C106.115,101.364 106.106,101.381 106.091,101.396 C106.067,101.349 106.044,101.305 106.018,101.259 L106.018,101.259 Z M114.067,105.307 C113.903,105.665 113.804,106.06 113.804,106.481 C113.804,106.983 113.946,107.447 114.175,107.856 C113.695,107.479 113.102,107.246 112.442,107.246 C111.772,107.246 111.166,107.489 110.682,107.88 C110.763,107.618 110.819,107.344 110.819,107.056 C110.819,106.378 110.568,105.761 110.168,105.275 C110.197,105.244 110.221,105.207 110.25,105.174 C110.761,105.681 111.465,105.995 112.241,105.995 C112.941,105.995 113.572,105.73 114.067,105.307 L114.067,105.307 Z M114.949,108.797 C114.93,108.761 114.911,108.726 114.892,108.69 C114.927,108.719 114.962,108.753 115.002,108.781 C114.984,108.787 114.967,108.793 114.949,108.797 L114.949,108.797 Z M133.699,102.414 L133.687,102.414 C133.69,102.409 133.696,102.405 133.701,102.401 C133.701,102.405 133.701,102.411 133.699,102.414 L133.699,102.414 Z M126.983,96.313 C127.104,96.747 127.323,97.139 127.624,97.454 C127.24,97.14 126.776,96.928 126.265,96.853 C126.534,96.713 126.778,96.533 126.983,96.313 L126.983,96.313 Z M86.198,90.713 C86.101,90.147 85.803,89.669 85.4,89.321 C85.594,89.369 85.795,89.401 86.006,89.401 C86.543,89.401 87.039,89.234 87.451,88.951 C87.423,89.103 87.406,89.258 87.406,89.418 C87.406,90.272 87.827,91.024 88.469,91.488 C87.345,91.686 86.466,92.583 86.292,93.718 C86.017,93.405 85.676,93.154 85.283,92.997 C85.967,92.479 86.353,91.616 86.198,90.713 L86.198,90.713 Z M81.42,93.767 C81.42,93.3 81.291,92.868 81.083,92.486 C81.341,92.462 81.591,92.409 81.819,92.313 C82.057,92.716 82.407,93.036 82.818,93.237 C82.087,93.717 81.598,94.543 81.598,95.486 C81.598,95.646 81.617,95.8 81.645,95.954 C81.477,95.922 81.302,95.9 81.123,95.9 C80.013,95.9 79.062,96.548 78.602,97.481 C78.509,97.455 78.418,97.429 78.319,97.413 C78.273,97.019 78.151,96.651 77.962,96.324 C78.209,96.4 78.466,96.452 78.736,96.452 C80.219,96.452 81.42,95.25 81.42,93.767 L81.42,93.767 Z M148.424,84.489 C147.489,84.489 146.735,85.247 146.735,86.18 C146.735,86.664 146.939,87.097 147.265,87.404 C147.102,87.352 146.931,87.314 146.75,87.307 C146.454,87.296 146.175,87.358 145.921,87.467 C146.049,87.222 146.13,86.946 146.13,86.649 C146.13,85.671 145.337,84.88 144.363,84.88 C143.739,84.88 143.195,85.202 142.881,85.689 C142.446,84.852 141.582,84.273 140.573,84.273 C139.654,84.273 138.851,84.75 138.387,85.468 C138.05,84.876 137.431,84.463 136.701,84.438 C135.583,84.393 134.64,85.268 134.599,86.389 C134.586,86.716 134.659,87.024 134.786,87.302 C134.63,87.271 134.466,87.252 134.3,87.252 C132.887,87.252 131.74,88.399 131.74,89.811 C131.74,91.225 132.887,92.37 134.3,92.37 C135.1,92.37 135.806,91.996 136.272,91.422 C136.272,91.43 136.271,91.437 136.271,91.445 C136.24,92.226 136.624,92.922 137.224,93.334 C137.132,93.355 137.04,93.386 136.952,93.418 C136.508,92.954 135.885,92.664 135.189,92.664 C133.84,92.664 132.746,93.756 132.746,95.107 C132.746,95.932 133.156,96.658 133.782,97.101 C133.64,97.292 133.513,97.496 133.42,97.722 C133.003,97.481 132.528,97.333 132.015,97.333 C131.857,97.333 131.711,97.354 131.563,97.379 C131.982,96.905 132.249,96.286 132.249,95.601 C132.249,94.116 131.045,92.915 129.563,92.915 C128.789,92.915 128.1,93.245 127.609,93.767 C127.294,92.631 126.265,91.794 125.03,91.794 C123.548,91.794 122.345,92.997 122.345,94.48 C122.345,95.815 123.319,96.911 124.592,97.121 C123.671,97.584 123.034,98.529 123.034,99.63 C123.034,99.734 123.052,99.831 123.062,99.931 C122.913,99.428 122.638,98.987 122.261,98.645 C122.653,98.193 122.9,97.607 122.9,96.959 C122.9,95.535 121.747,94.381 120.324,94.381 C118.9,94.381 117.746,95.535 117.746,96.959 C117.746,97.63 118.01,98.235 118.429,98.693 C118.201,98.909 118.021,99.165 117.876,99.445 C117.569,98.93 117.056,98.556 116.449,98.444 C116.225,97.11 115.071,96.093 113.675,96.093 C112.118,96.093 110.855,97.356 110.855,98.913 C110.855,99.507 111.041,100.057 111.353,100.51 C110.876,100.671 110.457,100.949 110.131,101.321 C110.026,101.22 109.916,101.131 109.799,101.047 C110.297,100.538 110.604,99.845 110.604,99.079 C110.604,97.52 109.342,96.259 107.782,96.259 C107.221,96.259 106.698,96.428 106.257,96.713 C106.171,95.919 105.52,95.286 104.698,95.256 C103.827,95.222 103.095,95.88 103.011,96.738 C102.512,95.952 101.638,95.427 100.639,95.427 C100.055,95.427 99.516,95.604 99.065,95.907 C99.078,95.839 99.091,95.769 99.093,95.698 C99.125,94.855 98.467,94.145 97.624,94.114 C97.299,94.103 96.994,94.195 96.738,94.36 C96.757,94.235 96.776,94.112 96.776,93.983 C96.776,92.499 95.573,91.297 94.089,91.297 C92.83,91.297 91.779,92.167 91.49,93.338 C91.311,92.761 90.953,92.265 90.471,91.926 C91.64,91.691 92.521,90.658 92.521,89.418 C92.521,88.004 91.376,86.859 89.963,86.859 C89.426,86.859 88.929,87.026 88.517,87.309 C88.546,87.158 88.563,87.003 88.563,86.842 C88.563,85.8 87.938,84.906 87.043,84.509 C88.022,84.215 88.738,83.318 88.738,82.244 C88.738,80.934 87.677,79.87 86.366,79.87 C85.057,79.87 83.994,80.934 83.994,82.244 C83.994,83.188 84.548,83.998 85.348,84.38 C84.988,84.476 84.662,84.65 84.382,84.88 C84.403,84.668 84.408,84.455 84.372,84.234 C84.149,82.942 82.926,82.072 81.634,82.295 C81.449,82.326 81.272,82.384 81.106,82.455 C81.181,82.26 81.235,82.051 81.242,81.831 C81.254,81.522 81.188,81.233 81.067,80.97 C81.223,81.002 81.382,81.02 81.548,81.02 C82.853,81.02 83.909,79.961 83.909,78.656 C83.909,77.349 82.853,76.293 81.548,76.293 C80.655,76.293 79.885,76.794 79.484,77.527 C79.491,77.486 79.505,77.449 79.512,77.408 C79.689,76.112 78.781,74.924 77.489,74.749 C76.197,74.573 75.005,75.478 74.828,76.773 C74.8,76.984 74.81,77.189 74.836,77.391 C74.578,76.95 74.109,76.645 73.56,76.625 C73.368,76.618 73.184,76.651 73.014,76.709 C73.271,76.33 73.421,75.874 73.421,75.381 C73.421,74.075 72.363,73.018 71.058,73.018 C69.753,73.018 68.691,74.075 68.691,75.381 C68.691,76.687 69.753,77.743 71.058,77.743 C71.446,77.743 71.804,77.643 72.125,77.478 C72.031,77.67 71.97,77.882 71.961,78.109 C71.929,78.962 72.595,79.679 73.447,79.71 C74.299,79.743 75.015,79.076 75.047,78.223 C75.05,78.184 75.042,78.146 75.042,78.109 C75.373,78.802 76.033,79.32 76.851,79.433 C77.841,79.567 78.764,79.068 79.226,78.25 C79.204,78.382 79.184,78.517 79.184,78.656 C79.184,79.098 79.313,79.506 79.525,79.859 C79.481,79.855 79.441,79.845 79.396,79.843 C78.546,79.812 77.811,80.344 77.533,81.1 C77.333,80.375 76.76,79.776 75.975,79.595 C74.838,79.332 73.702,80.042 73.439,81.181 C73.178,82.318 73.887,83.454 75.026,83.715 C76.098,83.963 77.159,83.341 77.497,82.318 C77.728,83.079 78.417,83.648 79.253,83.678 C79.486,83.687 79.704,83.648 79.913,83.581 C79.695,84.015 79.604,84.518 79.693,85.033 C79.695,85.045 79.7,85.054 79.702,85.065 C79.21,84.441 78.458,84.034 77.599,84.034 C76.523,84.034 75.6,84.672 75.172,85.588 C75.177,85.533 75.19,85.482 75.19,85.426 C75.19,84.178 74.179,83.166 72.93,83.166 C71.684,83.166 70.669,84.178 70.669,85.426 C70.669,86.673 71.684,87.684 72.93,87.684 C73.815,87.684 74.575,87.171 74.945,86.428 C74.933,86.526 74.914,86.619 74.914,86.719 C74.914,87.432 75.199,88.077 75.652,88.557 C75.382,88.463 75.097,88.401 74.797,88.401 C73.573,88.401 72.548,89.264 72.298,90.417 C72.106,90.372 71.905,90.343 71.696,90.343 C71.578,90.343 71.468,90.362 71.354,90.378 C71.603,89.984 71.752,89.52 71.752,89.02 C71.752,87.605 70.607,86.461 69.192,86.461 C67.779,86.461 66.632,87.605 66.632,89.02 C66.632,90.433 67.779,91.577 69.192,91.577 C69.285,91.577 69.369,91.56 69.458,91.55 C69.177,91.975 69.011,92.482 69.011,93.028 C69.011,94.371 69.999,95.473 71.282,95.673 C71.251,95.798 71.232,95.928 71.228,96.061 C71.191,97.006 71.85,97.813 72.74,98.005 C72.807,98.689 73.104,99.302 73.571,99.756 C73.553,99.746 73.531,99.735 73.531,99.735 C74.353,100.814 75.466,102.026 76.847,103.285 C77.036,103.509 77.251,103.708 77.5,103.864 C83.698,109.254 94.666,115.249 108.789,115.249 C127.663,115.249 138.604,106.074 142.446,100.851 C143.112,100.078 143.507,99.55 143.507,98.661 C143.507,98.567 143.49,98.478 143.48,98.386 C144.726,98.093 145.654,96.983 145.654,95.649 C145.654,95.605 145.642,95.564 145.642,95.52 C146.582,95.271 147.28,94.422 147.28,93.403 C147.28,92.187 146.295,91.202 145.08,91.202 C144.739,91.202 144.42,91.286 144.134,91.423 C144.207,91.245 144.253,91.05 144.257,90.845 C144.273,89.949 143.563,89.212 142.668,89.194 C141.774,89.177 141.034,89.889 141.017,90.785 C141,91.678 141.714,92.418 142.607,92.435 C142.803,92.438 142.989,92.401 143.165,92.34 C143.077,92.497 143.008,92.664 142.963,92.841 C142.919,92.839 142.876,92.829 142.833,92.829 C141.619,92.829 140.593,93.602 140.195,94.68 C139.954,94.23 139.592,93.86 139.147,93.61 C140,93.332 140.63,92.554 140.663,91.608 C140.711,90.394 139.763,89.372 138.548,89.329 C137.865,89.302 137.254,89.597 136.832,90.07 C136.84,89.984 136.856,89.9 136.856,89.811 C136.856,89.321 136.712,88.867 136.474,88.478 C136.501,88.48 136.524,88.488 136.55,88.489 C137.183,88.513 137.75,88.239 138.139,87.799 C138.509,88.787 139.456,89.492 140.573,89.492 C141.696,89.492 142.647,88.776 143.013,87.778 C143.338,88.166 143.818,88.415 144.363,88.415 C144.589,88.415 144.804,88.369 145.003,88.29 C144.856,88.552 144.759,88.847 144.748,89.168 C144.708,90.235 145.543,91.13 146.607,91.171 C147.675,91.211 148.573,90.378 148.611,89.309 C148.633,88.707 148.372,88.163 147.952,87.793 C148.102,87.837 148.258,87.868 148.424,87.868 C149.355,87.868 150.109,87.112 150.109,86.18 C150.109,85.247 149.355,84.489 148.424,84.489 L148.424,84.489 Z" id="Fill-38" fill="#FFFFFF"></path>
                <path d="M133.287,86.256 C133.287,85.044 132.302,84.062 131.09,84.062 C129.879,84.062 128.897,85.044 128.897,86.256 C128.897,87.467 129.879,88.45 131.09,88.45 C132.302,88.45 133.287,87.467 133.287,86.256" id="Fill-39" fill="#FFFFFF"></path>
                <path d="M69.531,83.781 C69.531,83.526 69.479,83.284 69.406,83.053 C69.708,83.218 70.046,83.321 70.415,83.321 C71.584,83.321 72.529,82.374 72.529,81.207 C72.529,80.037 71.584,79.09 70.415,79.09 C69.247,79.09 68.299,80.037 68.299,81.207 C68.299,81.399 68.332,81.581 68.381,81.757 C68.023,81.541 67.607,81.408 67.156,81.408 C65.847,81.408 64.786,82.469 64.786,83.781 C64.786,85.092 65.847,86.154 67.156,86.154 C68.47,86.154 69.531,85.092 69.531,83.781" id="Fill-40" fill="#FFFFFF"></path>
                <path d="M129.057,92.798 C130.351,92.798 131.397,91.75 131.397,90.456 C131.397,89.16 130.351,88.112 129.057,88.112 C127.76,88.112 126.712,89.16 126.712,90.456 C126.712,91.75 127.76,92.798 129.057,92.798" id="Fill-41" fill="#FFFFFF"></path>
                <path d="M136.313,72.494 C137.546,72.494 138.546,71.495 138.546,70.263 C138.546,69.028 137.546,68.029 136.313,68.029 C135.08,68.029 134.079,69.028 134.079,70.263 C134.079,71.495 135.08,72.494 136.313,72.494" id="Fill-42" fill="#FFFFFF"></path>
                <path d="M128.409,72.351 C129.643,72.351 130.641,71.352 130.641,70.12 C130.641,68.884 129.643,67.886 128.409,67.886 C127.177,67.886 126.175,68.884 126.175,70.12 C126.175,71.352 127.177,72.351 128.409,72.351" id="Fill-43" fill="#FFFFFF"></path>
                <path d="M123.378,73.359 C124.613,73.359 125.611,72.358 125.611,71.125 C125.611,69.89 124.613,68.892 123.378,68.892 C122.146,68.892 121.145,69.89 121.145,71.125 C121.145,72.358 122.146,73.359 123.378,73.359" id="Fill-44" fill="#FFFFFF"></path>
                <path d="M149.894,68.927 C149.038,68.927 148.344,69.621 148.344,70.478 C148.344,71.334 149.038,72.028 149.894,72.028 C150.75,72.028 151.447,71.334 151.447,70.478 C151.447,69.621 150.75,68.927 149.894,68.927" id="Fill-45" fill="#FFFFFF"></path>
                <path d="M145.732,72.408 C146.966,72.408 147.964,71.408 147.964,70.175 C147.964,68.941 146.966,67.942 145.732,67.942 C144.501,67.942 143.499,68.941 143.499,70.175 C143.499,71.408 144.501,72.408 145.732,72.408" id="Fill-46" fill="#FFFFFF"></path>
                <path d="M98.179,66.118 C98.179,64.906 97.2,63.928 95.987,63.928 C94.78,63.928 93.798,64.906 93.798,66.118 C93.798,67.327 94.78,68.309 95.987,68.309 C97.2,68.309 98.179,67.327 98.179,66.118" id="Fill-47" fill="#FFFFFF"></path>
                <path d="M89.655,66.276 C89.686,65.066 88.729,64.061 87.52,64.031 C86.312,64 85.307,64.956 85.277,66.167 C85.245,67.376 86.2,68.38 87.41,68.411 C88.62,68.442 89.625,67.485 89.655,66.276" id="Fill-48" fill="#FFFFFF"></path>
                <path d="M71.384,66.957 C71.384,65.746 70.403,64.766 69.192,64.766 C67.982,64.766 67.001,65.746 67.001,66.957 C67.001,68.168 67.982,69.149 69.192,69.149 C70.403,69.149 71.384,68.168 71.384,66.957" id="Fill-49" fill="#FFFFFF"></path>
                <path d="M83.433,67.507 C83.433,66.416 82.549,65.532 81.457,65.532 C80.366,65.532 79.48,66.416 79.48,67.507 C79.48,68.598 80.366,69.483 81.457,69.483 C82.549,69.483 83.433,68.598 83.433,67.507" id="Fill-50" fill="#FFFFFF"></path>
                <path d="M78.738,67.478 C78.738,66.267 77.759,65.288 76.549,65.288 C75.336,65.288 74.357,66.267 74.357,67.478 C74.357,68.688 75.336,69.669 76.549,69.669 C77.759,69.669 78.738,68.688 78.738,67.478" id="Fill-51" fill="#FFFFFF"></path>
                <path d="M115.141,66.801 C115.141,65.591 114.159,64.612 112.95,64.612 C111.74,64.612 110.759,65.591 110.759,66.801 C110.759,68.013 111.74,68.992 112.95,68.992 C114.159,68.992 115.141,68.013 115.141,66.801" id="Fill-52" fill="#FFFFFF"></path>
                <path d="M119.298,73.099 C120.148,73.131 120.865,72.466 120.897,71.612 C120.93,70.762 120.264,70.046 119.409,70.012 C118.56,69.981 117.841,70.647 117.812,71.499 C117.779,72.351 118.444,73.068 119.298,73.099" id="Fill-53" fill="#FFFFFF"></path>
                <path d="M65.025,66.922 C63.816,66.922 62.835,67.902 62.835,69.113 C62.835,70.323 63.816,71.304 65.025,71.304 C66.235,71.304 67.217,70.323 67.217,69.113 C67.217,67.902 66.235,66.922 65.025,66.922" id="Fill-54" fill="#FFFFFF"></path>
                <path d="M110.026,66.195 C110.026,64.985 109.047,64.004 107.836,64.004 C106.628,64.004 105.646,64.985 105.646,66.195 C105.646,67.406 106.628,68.386 107.836,68.386 C109.047,68.386 110.026,67.406 110.026,66.195" id="Fill-55" fill="#FFFFFF"></path>
                <path d="M140.056,65.348 C140.056,64.136 139.076,63.157 137.865,63.157 C136.658,63.157 135.675,64.136 135.675,65.348 C135.675,66.558 136.658,67.538 137.865,67.538 C139.076,67.538 140.056,66.558 140.056,65.348" id="Fill-56" fill="#FFFFFF"></path>
                <path d="M134.413,66.595 C134.413,65.384 133.433,64.403 132.225,64.403 C131.013,64.403 130.033,65.384 130.033,66.595 C130.033,67.805 131.013,68.785 132.225,68.785 C133.433,68.785 134.413,67.805 134.413,66.595" id="Fill-57" fill="#FFFFFF"></path>
                <path d="M128.593,65.393 C128.593,64.182 127.613,63.202 126.403,63.202 C125.191,63.202 124.212,64.182 124.212,65.393 C124.212,66.604 125.191,67.584 126.403,67.584 C127.613,67.584 128.593,66.604 128.593,65.393" id="Fill-58" fill="#FFFFFF"></path>
                <path d="M145.302,65.998 C145.302,64.787 144.321,63.807 143.114,63.807 C141.901,63.807 140.923,64.787 140.923,65.998 C140.923,67.209 141.901,68.189 143.114,68.189 C144.321,68.189 145.302,67.209 145.302,65.998" id="Fill-59" fill="#FFFFFF"></path>
                <path d="M149.62,68.479 C150.831,68.479 151.813,67.496 151.813,66.288 C151.813,65.079 150.831,64.096 149.62,64.096 C148.41,64.096 147.429,65.079 147.429,66.288 C147.429,67.496 148.41,68.479 149.62,68.479" id="Fill-60" fill="#FFFFFF"></path>
                <path d="M101.116,58.801 C99.951,58.801 99.005,59.746 99.005,60.912 C99.005,62.078 99.951,63.023 101.116,63.023 C102.28,63.023 103.225,62.078 103.225,60.912 C103.225,59.746 102.28,58.801 101.116,58.801" id="Fill-61" fill="#FFFFFF"></path>
                <path d="M96.002,58.944 C94.836,58.944 93.891,59.889 93.891,61.056 C93.891,62.222 94.836,63.166 96.002,63.166 C97.169,63.166 98.114,62.222 98.114,61.056 C98.114,59.889 97.169,58.944 96.002,58.944" id="Fill-62" fill="#FFFFFF"></path>
                <path d="M90.701,60.651 C90.701,59.484 89.756,58.541 88.59,58.541 C87.423,58.541 86.479,59.484 86.479,60.651 C86.479,61.818 87.423,62.762 88.59,62.762 C89.756,62.762 90.701,61.818 90.701,60.651" id="Fill-63" fill="#FFFFFF"></path>
                <path d="M73.691,61.898 C73.691,60.73 72.744,59.787 71.58,59.787 C70.413,59.787 69.468,60.73 69.468,61.898 C69.468,63.065 70.413,64.009 71.58,64.009 C72.744,64.009 73.691,63.065 73.691,61.898" id="Fill-64" fill="#FFFFFF"></path>
                <path d="M77.89,60.628 C76.724,60.628 75.781,61.572 75.781,62.739 C75.781,63.905 76.724,64.849 77.89,64.849 C79.057,64.849 80.002,63.905 80.002,62.739 C80.002,61.572 79.057,60.628 77.89,60.628" id="Fill-65" fill="#FFFFFF"></path>
                <path d="M111.563,63.102 C112.728,63.102 113.672,62.156 113.672,60.992 C113.672,59.825 112.728,58.881 111.563,58.881 C110.396,58.881 109.45,59.825 109.45,60.992 C109.45,62.156 110.396,63.102 111.563,63.102" id="Fill-66" fill="#FFFFFF"></path>
                <path d="M65.085,63.093 C66.253,63.093 67.197,62.148 67.197,60.982 C67.197,59.815 66.253,58.87 65.085,58.87 C63.921,58.87 62.974,59.815 62.974,60.982 C62.974,62.148 63.921,63.093 65.085,63.093" id="Fill-67" fill="#FFFFFF"></path>
                <path d="M122.084,61.627 C122.084,60.392 121.083,59.393 119.848,59.393 C118.616,59.393 117.617,60.392 117.617,61.627 C117.617,62.861 118.616,63.861 119.848,63.861 C121.083,63.861 122.084,62.861 122.084,61.627" id="Fill-68" fill="#FFFFFF"></path>
                <path d="M137.796,58.66 C137.796,57.493 136.853,56.55 135.686,56.55 C134.521,56.55 133.575,57.493 133.575,58.66 C133.575,59.828 134.521,60.771 135.686,60.771 C136.853,60.771 137.796,59.828 137.796,58.66" id="Fill-69" fill="#FFFFFF"></path>
                <path d="M129.862,62.929 C131.025,62.929 131.972,61.984 131.972,60.818 C131.972,59.651 131.025,58.707 129.862,58.707 C128.695,58.707 127.752,59.651 127.752,60.818 C127.752,61.984 128.695,62.929 129.862,62.929" id="Fill-70" fill="#FFFFFF"></path>
                <path d="M143.446,55.201 C142.279,55.201 141.334,56.145 141.334,57.312 C141.334,58.478 142.279,59.422 143.446,59.422 C144.61,59.422 145.558,58.478 145.558,57.312 C145.558,56.145 144.61,55.201 143.446,55.201" id="Fill-71" fill="#FFFFFF"></path>
                <path d="M129.196,56.894 C130.304,56.935 131.234,56.071 131.275,54.964 C131.316,53.856 130.449,52.926 129.345,52.884 C128.236,52.842 127.307,53.706 127.267,54.815 C127.226,55.922 128.088,56.852 129.196,56.894" id="Fill-72" fill="#FFFFFF"></path>
                <path d="M146.884,56.736 C146.841,57.92 147.764,58.911 148.945,58.956 C150.128,59.001 151.122,58.078 151.165,56.894 C151.211,55.712 150.286,54.718 149.103,54.675 C147.921,54.632 146.927,55.554 146.884,56.736" id="Fill-73" fill="#FFFFFF"></path>
                <path d="M81.13,53.597 C80.023,53.557 79.091,54.42 79.051,55.528 C79.012,56.636 79.873,57.567 80.98,57.607 C82.087,57.65 83.019,56.784 83.063,55.677 C83.103,54.569 82.236,53.638 81.13,53.597" id="Fill-74" fill="#FFFFFF"></path>
                <path d="M71.84,57.053 C71.799,58.162 72.665,59.091 73.771,59.133 C74.882,59.174 75.809,58.312 75.852,57.204 C75.891,56.096 75.028,55.166 73.921,55.124 C72.813,55.082 71.884,55.947 71.84,57.053" id="Fill-75" fill="#FFFFFF"></path>
                <path d="M141.803,43.164 C140.744,43.125 139.854,43.951 139.813,45.01 C139.775,46.07 140.601,46.96 141.661,47 C142.72,47.039 143.612,46.213 143.65,45.153 C143.689,44.094 142.859,43.203 141.803,43.164" id="Fill-76" fill="#FFFFFF"></path>
                <path d="M128.765,43.407 C128.727,44.43 129.526,45.29 130.549,45.328 C131.573,45.366 132.434,44.568 132.471,43.543 C132.509,42.519 131.711,41.659 130.687,41.621 C129.664,41.583 128.804,42.382 128.765,43.407" id="Fill-77" fill="#FFFFFF"></path>
                <path d="M144.088,46.736 C144.05,47.797 144.879,48.688 145.937,48.726 C146.995,48.765 147.887,47.94 147.926,46.879 C147.964,45.82 147.139,44.93 146.079,44.889 C145.021,44.851 144.129,45.678 144.088,46.736" id="Fill-78" fill="#FFFFFF"></path>
                <path d="M137.183,46.953 C136.122,46.914 135.232,47.739 135.193,48.799 C135.153,49.859 135.979,50.749 137.038,50.788 C138.1,50.829 138.988,50.003 139.026,48.941 C139.068,47.882 138.241,46.991 137.183,46.953" id="Fill-79" fill="#FFFFFF"></path>
                <path d="M130.695,50.191 C130.656,51.251 131.482,52.141 132.541,52.181 C133.603,52.219 134.494,51.394 134.532,50.333 C134.571,49.274 133.745,48.384 132.686,48.343 C131.627,48.305 130.733,49.132 130.695,50.191" id="Fill-80" fill="#FFFFFF"></path>
                <path d="M119.663,34.783 C119.627,35.791 120.413,36.635 121.415,36.672 C122.422,36.71 123.268,35.924 123.307,34.917 C123.343,33.913 122.561,33.068 121.552,33.031 C120.545,32.993 119.7,33.778 119.663,34.783" id="Fill-81" fill="#FFFFFF"></path>
                <path d="M144.744,51.793 C144.702,52.853 145.531,53.743 146.591,53.782 C147.649,53.822 148.54,52.996 148.578,51.934 C148.621,50.877 147.792,49.987 146.733,49.947 C145.674,49.908 144.783,50.734 144.744,51.793" id="Fill-82" fill="#FFFFFF"></path>
                <path d="M136.263,39.044 C136.224,40.068 137.023,40.929 138.045,40.965 C139.068,41.004 139.929,40.206 139.966,39.181 C140.004,38.157 139.206,37.296 138.185,37.26 C137.159,37.221 136.299,38.02 136.263,39.044" id="Fill-83" fill="#FFFFFF"></path>
                <path d="M135.512,42.002 C134.624,41.969 133.881,42.66 133.849,43.548 C133.817,44.433 134.509,45.177 135.393,45.21 C136.278,45.242 137.023,44.553 137.055,43.666 C137.09,42.78 136.398,42.034 135.512,42.002" id="Fill-84" fill="#FFFFFF"></path>
                <path d="M142.995,41.959 C144.02,41.923 144.819,41.066 144.783,40.042 C144.748,39.017 143.891,38.216 142.866,38.252 C141.844,38.287 141.043,39.145 141.08,40.169 C141.112,41.193 141.971,41.995 142.995,41.959" id="Fill-85" fill="#FFFFFF"></path>
                <path d="M123.376,37.544 C122.354,37.506 121.493,38.305 121.453,39.329 C121.415,40.351 122.216,41.211 123.237,41.251 C124.26,41.289 125.12,40.489 125.158,39.465 C125.197,38.443 124.397,37.583 123.376,37.544" id="Fill-86" fill="#FFFFFF"></path>
                <path d="M123.18,45.012 C123.143,46.039 123.94,46.897 124.966,46.936 C125.989,46.973 126.848,46.174 126.887,45.15 C126.926,44.128 126.127,43.267 125.1,43.229 C124.078,43.191 123.218,43.99 123.18,45.012" id="Fill-87" fill="#FFFFFF"></path>
                <path d="M115.367,31.516 C114.305,31.474 113.409,32.305 113.371,33.371 C113.329,34.435 114.161,35.33 115.226,35.368 C116.29,35.409 117.186,34.578 117.225,33.512 C117.264,32.448 116.433,31.553 115.367,31.516" id="Fill-88" fill="#FFFFFF"></path>
                <path d="M118.456,38.12 C118.422,37.098 117.564,36.297 116.539,36.331 C115.517,36.367 114.716,37.224 114.751,38.248 C114.785,39.273 115.644,40.074 116.666,40.039 C117.69,40.003 118.49,39.145 118.456,38.12" id="Fill-89" fill="#FFFFFF"></path>
                <path d="M127.363,36.967 C126.342,36.928 125.481,37.729 125.442,38.751 C125.404,39.774 126.204,40.635 127.228,40.672 C128.25,40.712 129.11,39.913 129.148,38.889 C129.188,37.864 128.39,37.004 127.363,36.967" id="Fill-90" fill="#FFFFFF"></path>
                <path d="M79.027,49.107 C78.988,50.168 79.814,51.058 80.873,51.097 C81.934,51.136 82.825,50.31 82.864,49.251 C82.902,48.19 82.075,47.3 81.018,47.26 C79.957,47.221 79.065,48.048 79.027,49.107" id="Fill-91" fill="#FFFFFF"></path>
                <path d="M85.018,49.532 C84.978,50.592 85.808,51.484 86.865,51.524 C87.923,51.563 88.816,50.735 88.853,49.674 C88.894,48.616 88.068,47.726 87.009,47.686 C85.95,47.647 85.057,48.473 85.018,49.532" id="Fill-92" fill="#FFFFFF"></path>
                <path d="M69.576,47.92 C70.637,47.959 71.526,47.134 71.566,46.073 C71.605,45.014 70.777,44.124 69.718,44.083 C68.66,44.044 67.769,44.871 67.73,45.931 C67.691,46.991 68.515,47.881 69.576,47.92" id="Fill-93" fill="#FFFFFF"></path>
                <path d="M67.208,52.916 C68.269,52.954 69.158,52.129 69.198,51.068 C69.238,50.009 68.409,49.118 67.351,49.079 C66.292,49.04 65.401,49.867 65.362,50.924 C65.323,51.986 66.147,52.875 67.208,52.916" id="Fill-94" fill="#FFFFFF"></path>
                <path d="M71.873,50.296 C70.814,50.258 69.924,51.082 69.884,52.143 C69.845,53.204 70.672,54.092 71.731,54.132 C72.792,54.172 73.682,53.345 73.721,52.286 C73.76,51.226 72.934,50.335 71.873,50.296" id="Fill-95" fill="#FFFFFF"></path>
                <path d="M88.284,40.569 C88.247,41.591 89.045,42.45 90.067,42.489 C91.091,42.527 91.952,41.729 91.99,40.705 C92.027,39.681 91.227,38.821 90.205,38.782 C89.183,38.745 88.322,39.543 88.284,40.569" id="Fill-96" fill="#FFFFFF"></path>
                <path d="M77.963,37.96 C77.925,38.986 78.725,39.845 79.747,39.883 C80.772,39.923 81.63,39.123 81.669,38.098 C81.708,37.075 80.91,36.215 79.883,36.178 C78.861,36.139 78,36.938 77.963,37.96" id="Fill-97" fill="#FFFFFF"></path>
                <path d="M73.297,41.476 C74.379,41.518 75.289,40.672 75.328,39.589 C75.369,38.504 74.523,37.594 73.441,37.554 C72.356,37.514 71.448,38.358 71.407,39.442 C71.366,40.526 72.214,41.435 73.297,41.476" id="Fill-98" fill="#FFFFFF"></path>
                <path d="M128.063,33.807 C128.023,34.812 128.81,35.657 129.814,35.694 C130.82,35.732 131.666,34.947 131.702,33.94 C131.74,32.935 130.956,32.09 129.948,32.052 C128.945,32.015 128.1,32.8 128.063,33.807" id="Fill-99" fill="#FFFFFF"></path>
                <path d="M133.628,33.98 C133.59,34.986 134.377,35.83 135.382,35.868 C136.387,35.905 137.232,35.12 137.27,34.113 C137.308,33.108 136.522,32.264 135.518,32.226 C134.511,32.189 133.665,32.974 133.628,33.98" id="Fill-100" fill="#FFFFFF"></path>
                <path d="M94.318,33.263 C94.281,34.33 95.111,35.222 96.175,35.262 C97.239,35.303 98.133,34.47 98.172,33.406 C98.213,32.342 97.381,31.447 96.318,31.408 C95.254,31.368 94.357,32.199 94.318,33.263" id="Fill-101" fill="#FFFFFF"></path>
                <path d="M72.977,44.239 C72.936,45.322 73.784,46.232 74.866,46.274 C75.949,46.315 76.86,45.469 76.898,44.385 C76.941,43.302 76.093,42.39 75.011,42.351 C73.928,42.31 73.018,43.155 72.977,44.239" id="Fill-102" fill="#FFFFFF"></path>
                <path d="M85.748,45.778 C86.772,45.742 87.574,44.885 87.539,43.861 C87.5,42.837 86.645,42.035 85.62,42.071 C84.598,42.105 83.797,42.964 83.833,43.987 C83.869,45.012 84.725,45.814 85.748,45.778" id="Fill-103" fill="#FFFFFF"></path>
                <path d="M108.979,32.438 C109.016,31.43 108.231,30.587 107.226,30.549 C106.221,30.513 105.375,31.298 105.336,32.302 C105.298,33.309 106.085,34.153 107.09,34.19 C108.097,34.229 108.942,33.444 108.979,32.438" id="Fill-104" fill="#FFFFFF"></path>
                <path d="M94.174,42.935 C95.198,42.972 96.058,42.173 96.095,41.149 C96.134,40.126 95.336,39.266 94.312,39.228 C93.289,39.19 92.426,39.989 92.39,41.012 C92.351,42.036 93.151,42.896 94.174,42.935" id="Fill-105" fill="#FFFFFF"></path>
                <path d="M85.793,37.003 C84.73,36.964 83.834,37.793 83.793,38.859 C83.754,39.923 84.587,40.818 85.65,40.857 C86.713,40.897 87.608,40.066 87.647,39.003 C87.688,37.937 86.856,37.044 85.793,37.003" id="Fill-106" fill="#FFFFFF"></path>
                <path d="M78.153,34.693 C79.023,34.728 79.751,34.049 79.784,33.178 C79.819,32.309 79.139,31.579 78.27,31.548 C77.401,31.514 76.671,32.193 76.637,33.062 C76.605,33.932 77.284,34.663 78.153,34.693" id="Fill-107" fill="#FFFFFF"></path>
                <path d="M117.671,30.704 C117.699,31.538 118.396,32.187 119.227,32.158 C120.059,32.13 120.708,31.434 120.682,30.601 C120.651,29.768 119.955,29.118 119.125,29.148 C118.292,29.175 117.64,29.873 117.671,30.704" id="Fill-108" fill="#FFFFFF"></path>
                <path d="M112.641,30.541 C113.643,30.579 114.486,29.796 114.521,28.793 C114.562,27.79 113.776,26.947 112.772,26.91 C111.772,26.873 110.929,27.655 110.893,28.657 C110.854,29.661 111.637,30.503 112.641,30.541" id="Fill-109" fill="#FFFFFF"></path>
                <path d="M123.044,29.73 C123.757,29.757 124.357,29.2 124.383,28.485 C124.408,27.772 123.853,27.171 123.139,27.146 C122.427,27.12 121.823,27.677 121.799,28.391 C121.771,29.104 122.33,29.704 123.044,29.73" id="Fill-110" fill="#FFFFFF"></path>
                <path d="M128.631,29.004 C129.58,29.04 130.376,28.3 130.41,27.353 C130.447,26.405 129.707,25.609 128.76,25.573 C127.812,25.538 127.016,26.277 126.982,27.225 C126.945,28.173 127.687,28.968 128.631,29.004" id="Fill-111" fill="#FFFFFF"></path>
                <path d="M105.673,29.47 C106.62,29.507 107.417,28.769 107.452,27.819 C107.487,26.872 106.747,26.077 105.798,26.04 C104.854,26.007 104.056,26.745 104.021,27.693 C103.984,28.64 104.726,29.436 105.673,29.47" id="Fill-112" fill="#FFFFFF"></path>
                <path d="M84.632,31.795 C83.709,31.758 82.933,32.482 82.898,33.406 C82.864,34.332 83.584,35.108 84.509,35.143 C85.435,35.177 86.21,34.455 86.247,33.531 C86.28,32.605 85.557,31.829 84.632,31.795" id="Fill-113" fill="#FFFFFF"></path>
                <path d="M84.225,30.553 C85.226,30.59 86.069,29.808 86.105,28.804 C86.144,27.802 85.361,26.959 84.358,26.921 C83.356,26.884 82.513,27.666 82.476,28.669 C82.437,29.672 83.22,30.516 84.225,30.553" id="Fill-114" fill="#FFFFFF"></path>
                <path d="M97.411,29.359 C97.441,30.307 98.234,31.049 99.183,31.017 C100.13,30.984 100.873,30.189 100.84,29.241 C100.808,28.294 100.012,27.552 99.065,27.586 C98.118,27.617 97.376,28.412 97.411,29.359" id="Fill-115" fill="#FFFFFF"></path>
                <path d="M107.443,22.504 C108.257,22.537 108.94,21.901 108.971,21.086 C109.001,20.276 108.367,19.593 107.552,19.564 C106.74,19.532 106.057,20.167 106.029,20.979 C105.998,21.792 106.633,22.476 107.443,22.504" id="Fill-116" fill="#FFFFFF"></path>
                <path d="M109.913,25.38 C110.489,25.401 110.973,24.953 110.993,24.377 C111.016,23.804 110.566,23.32 109.991,23.299 C109.417,23.277 108.934,23.727 108.913,24.301 C108.891,24.875 109.339,25.359 109.913,25.38" id="Fill-117" fill="#FFFFFF"></path>
                <path d="M102.634,26.958 C103.327,26.984 103.907,26.445 103.931,25.752 C103.959,25.063 103.419,24.482 102.727,24.457 C102.037,24.431 101.455,24.97 101.431,25.661 C101.405,26.351 101.947,26.932 102.634,26.958" id="Fill-118" fill="#FFFFFF"></path>
                <path d="M115.529,61.821 C114.681,61.789 113.962,62.455 113.932,63.306 C113.899,64.159 114.563,64.875 115.417,64.906 C116.27,64.939 116.985,64.273 117.018,63.42 C117.047,62.568 116.383,61.853 115.529,61.821" id="Fill-119" fill="#FFFFFF"></path>
                <path d="M132.203,69.582 C131.349,69.55 130.633,70.216 130.603,71.068 C130.57,71.919 131.236,72.635 132.087,72.668 C132.94,72.7 133.655,72.035 133.687,71.18 C133.719,70.33 133.056,69.614 132.203,69.582" id="Fill-120" fill="#FFFFFF"></path>
                <path d="M113.831,23.315 C114.732,23.35 115.49,22.646 115.524,21.743 C115.558,20.841 114.854,20.084 113.95,20.05 C113.05,20.018 112.292,20.72 112.26,21.623 C112.227,22.525 112.931,23.283 113.831,23.315" id="Fill-121" fill="#FFFFFF"></path>
                <path d="M123.381,25.661 C124.156,25.69 124.805,25.085 124.838,24.31 C124.865,23.535 124.26,22.883 123.483,22.855 C122.712,22.827 122.061,23.431 122.029,24.206 C122,24.981 122.605,25.632 123.381,25.661" id="Fill-122" fill="#FFFFFF"></path>
                <path d="M98.188,24.275 C99.086,24.308 99.844,23.606 99.878,22.702 C99.913,21.8 99.207,21.043 98.306,21.01 C97.402,20.976 96.645,21.679 96.613,22.581 C96.581,23.484 97.284,24.241 98.188,24.275" id="Fill-123" fill="#FFFFFF"></path>
                <path d="M93.573,25.721 C94.473,25.753 95.232,25.05 95.265,24.149 C95.302,23.244 94.596,22.488 93.694,22.455 C92.791,22.422 92.034,23.123 92.002,24.026 C91.967,24.929 92.672,25.686 93.573,25.721" id="Fill-124" fill="#FFFFFF"></path>
                <path d="M91.555,68.356 C92.409,68.388 93.125,67.723 93.158,66.869 C93.188,66.018 92.523,65.302 91.672,65.271 C90.818,65.238 90.101,65.903 90.072,66.755 C90.039,67.609 90.706,68.324 91.555,68.356" id="Fill-125" fill="#FFFFFF"></path>
                <path d="M102.647,63.63 C102.615,64.481 103.283,65.198 104.133,65.229 C104.985,65.262 105.701,64.596 105.733,63.742 C105.766,62.891 105.1,62.176 104.248,62.145 C103.396,62.112 102.678,62.777 102.647,63.63" id="Fill-126" fill="#FFFFFF"></path>
                <path d="M121.331,66.827 C121.301,67.679 121.967,68.397 122.816,68.426 C123.669,68.461 124.385,67.794 124.418,66.939 C124.449,66.088 123.783,65.373 122.932,65.343 C122.079,65.311 121.361,65.976 121.331,66.827" id="Fill-127" fill="#FFFFFF"></path>
                <path d="M64.104,66.343 C64.956,66.376 65.672,65.71 65.705,64.856 C65.737,64.005 65.071,63.29 64.219,63.258 C63.367,63.226 62.648,63.892 62.618,64.743 C62.588,65.596 63.255,66.312 64.104,66.343" id="Fill-128" fill="#FFFFFF"></path>
                <path d="M68.675,57.221 C67.823,57.19 67.104,57.855 67.074,58.707 C67.042,59.559 67.709,60.275 68.561,60.307 C69.413,60.338 70.128,59.673 70.161,58.82 C70.193,57.968 69.526,57.253 68.675,57.221" id="Fill-129" fill="#FFFFFF"></path>
                <path d="M149.879,59.809 C149.028,59.777 148.309,60.443 148.279,61.294 C148.248,62.147 148.915,62.863 149.766,62.893 C150.616,62.927 151.333,62.261 151.366,61.407 C151.397,60.556 150.731,59.84 149.879,59.809" id="Fill-130" fill="#FFFFFF"></path>
                <path d="M138.045,61.085 C138.014,61.937 138.678,62.653 139.529,62.685 C140.384,62.717 141.098,62.051 141.129,61.198 C141.162,60.347 140.498,59.631 139.644,59.599 C138.792,59.568 138.076,60.232 138.045,61.085" id="Fill-131" fill="#FFFFFF"></path>
                <path d="M143.498,50.555 C143.528,49.705 142.863,48.988 142.012,48.958 C141.16,48.926 140.442,49.591 140.412,50.442 C140.379,51.294 141.046,52.011 141.897,52.042 C142.75,52.075 143.465,51.409 143.498,50.555" id="Fill-132" fill="#FFFFFF"></path>
                <path d="M76.704,58.095 C76.673,58.948 77.338,59.665 78.19,59.695 C79.042,59.729 79.758,59.062 79.79,58.208 C79.823,57.358 79.159,56.642 78.304,56.611 C77.452,56.579 76.736,57.245 76.704,58.095" id="Fill-133" fill="#FFFFFF"></path>
                <path d="M118.669,23.19 C119.279,23.213 119.795,22.734 119.816,22.121 C119.84,21.511 119.362,20.995 118.749,20.973 C118.141,20.951 117.623,21.428 117.603,22.04 C117.579,22.652 118.058,23.167 118.669,23.19" id="Fill-134" fill="#FFFFFF"></path>
                <path d="M102.6,22.32 C103.229,22.343 103.76,21.851 103.784,21.221 C103.808,20.592 103.315,20.063 102.684,20.04 C102.056,20.018 101.525,20.507 101.504,21.137 C101.479,21.767 101.972,22.297 102.6,22.32" id="Fill-135" fill="#FFFFFF"></path>
                <path d="M88.118,26.958 C88.808,26.984 89.388,26.445 89.416,25.752 C89.442,25.063 88.9,24.482 88.21,24.457 C87.52,24.431 86.94,24.97 86.914,25.661 C86.888,26.351 87.43,26.932 88.118,26.958" id="Fill-136" fill="#FFFFFF"></path>
                <path d="M133.536,30.839 C134.227,30.864 134.809,30.325 134.831,29.632 C134.86,28.944 134.319,28.363 133.628,28.337 C132.938,28.312 132.356,28.851 132.333,29.542 C132.306,30.232 132.849,30.813 133.536,30.839" id="Fill-137" fill="#FFFFFF"></path>
                <path d="M124.137,32.314 C124.108,33.004 124.65,33.586 125.34,33.611 C126.031,33.638 126.61,33.098 126.637,32.406 C126.663,31.715 126.123,31.137 125.431,31.111 C124.742,31.086 124.161,31.624 124.137,32.314" id="Fill-138" fill="#FFFFFF"></path>
                <path d="M94.104,27.331 C93.412,27.305 92.832,27.844 92.809,28.535 C92.78,29.224 93.322,29.806 94.012,29.831 C94.704,29.858 95.282,29.317 95.308,28.626 C95.333,27.937 94.795,27.356 94.104,27.331" id="Fill-139" fill="#FFFFFF"></path>
                <path d="M111.348,31.255 C110.657,31.23 110.074,31.768 110.052,32.459 C110.024,33.148 110.566,33.73 111.254,33.756 C111.945,33.78 112.527,33.243 112.551,32.55 C112.58,31.859 112.037,31.28 111.348,31.255" id="Fill-140" fill="#FFFFFF"></path>
                <path d="M140.07,36.522 C140.763,36.548 141.344,36.008 141.366,35.316 C141.395,34.627 140.855,34.047 140.164,34.022 C139.474,33.996 138.891,34.534 138.867,35.224 C138.842,35.915 139.383,36.496 140.07,36.522" id="Fill-141" fill="#FFFFFF"></path>
                <path d="M97.156,36.961 C96.468,36.935 95.886,37.475 95.862,38.164 C95.834,38.856 96.375,39.437 97.065,39.462 C97.756,39.488 98.336,38.948 98.364,38.256 C98.388,37.568 97.849,36.986 97.156,36.961" id="Fill-142" fill="#FFFFFF"></path>
                <path d="M104.916,35.685 C104.89,36.377 105.429,36.958 106.122,36.983 C106.812,37.009 107.389,36.469 107.417,35.777 C107.443,35.088 106.904,34.507 106.212,34.482 C105.522,34.456 104.94,34.996 104.916,35.685" id="Fill-143" fill="#FFFFFF"></path>
                <path d="M99.141,36.306 C99.1,37.39 99.945,38.299 101.03,38.34 C102.11,38.381 103.022,37.535 103.062,36.452 C103.102,35.368 102.257,34.458 101.174,34.418 C100.091,34.377 99.179,35.222 99.141,36.306" id="Fill-144" fill="#FFFFFF"></path>
                <path d="M103.016,31.356 C102.324,31.33 101.743,31.87 101.718,32.559 C101.691,33.25 102.231,33.832 102.923,33.856 C103.614,33.883 104.191,33.343 104.219,32.651 C104.246,31.962 103.706,31.381 103.016,31.356" id="Fill-145" fill="#FFFFFF"></path>
                <path d="M125.527,61.108 C125.551,60.42 125.015,59.839 124.323,59.814 C123.632,59.788 123.051,60.327 123.026,61.017 C122.998,61.708 123.539,62.29 124.229,62.314 C124.922,62.341 125.5,61.801 125.527,61.108" id="Fill-146" fill="#FFFFFF"></path>
                <path d="M105.671,60.479 C105.646,61.17 106.185,61.75 106.874,61.776 C107.567,61.801 108.145,61.262 108.173,60.57 C108.199,59.881 107.659,59.299 106.967,59.274 C106.277,59.249 105.695,59.788 105.671,60.479" id="Fill-147" fill="#FFFFFF"></path>
                <path d="M80.554,63.605 C80.528,64.296 81.069,64.876 81.757,64.901 C82.449,64.927 83.03,64.388 83.056,63.695 C83.082,63.007 82.541,62.426 81.85,62.401 C81.16,62.375 80.58,62.914 80.554,63.605" id="Fill-148" fill="#FFFFFF"></path>
                <path d="M89.886,37.079 C90.577,37.106 91.156,36.565 91.182,35.874 C91.21,35.184 90.668,34.605 89.979,34.579 C89.288,34.553 88.706,35.092 88.683,35.781 C88.654,36.472 89.196,37.054 89.886,37.079" id="Fill-149" fill="#FFFFFF"></path>
                <path d="M76.137,47.848 C75.446,47.822 74.866,48.362 74.84,49.052 C74.815,49.742 75.356,50.324 76.044,50.349 C76.736,50.375 77.316,49.836 77.342,49.143 C77.368,48.454 76.827,47.874 76.137,47.848" id="Fill-150" fill="#FFFFFF"></path>
                <path d="M132.341,36.81 C131.651,36.783 131.071,37.322 131.047,38.011 C131.018,38.702 131.56,39.284 132.249,39.309 C132.94,39.336 133.52,38.796 133.546,38.104 C133.572,37.414 133.032,36.835 132.341,36.81" id="Fill-151" fill="#FFFFFF"></path>
                <path d="M135.553,54.102 C135.578,53.413 135.039,52.832 134.347,52.807 C133.655,52.782 133.074,53.32 133.05,54.011 C133.024,54.701 133.563,55.283 134.256,55.308 C134.946,55.335 135.524,54.794 135.553,54.102" id="Fill-152" fill="#FFFFFF"></path>
                <path d="M81.886,60.008 C81.919,60.958 82.713,61.698 83.662,61.666 C84.608,61.632 85.348,60.838 85.316,59.89 C85.283,58.943 84.49,58.202 83.541,58.235 C82.594,58.267 81.854,59.06 81.886,60.008" id="Fill-153" fill="#FFFFFF"></path>
                <path d="M77.004,51.588 C76.055,51.619 75.313,52.413 75.348,53.36 C75.38,54.309 76.174,55.051 77.121,55.018 C78.067,54.986 78.812,54.191 78.777,53.243 C78.744,52.296 77.951,51.555 77.004,51.588" id="Fill-154" fill="#FFFFFF"></path>
                <path d="M66.449,57.282 C67.396,57.25 68.14,56.454 68.105,55.506 C68.073,54.559 67.277,53.819 66.333,53.85 C65.383,53.883 64.641,54.678 64.677,55.625 C64.708,56.572 65.502,57.314 66.449,57.282" id="Fill-155" fill="#FFFFFF"></path>
                <path d="M115.138,72.877 C116.084,72.843 116.826,72.049 116.794,71.101 C116.761,70.152 115.965,69.412 115.019,69.446 C114.071,69.478 113.329,70.271 113.363,71.219 C113.396,72.168 114.188,72.908 115.138,72.877" id="Fill-156" fill="#FFFFFF"></path>
                <path d="M105.688,72.589 C106.635,72.556 107.375,71.761 107.344,70.813 C107.31,69.865 106.516,69.125 105.567,69.158 C104.623,69.19 103.881,69.984 103.914,70.931 C103.946,71.88 104.739,72.621 105.688,72.589" id="Fill-157" fill="#FFFFFF"></path>
                <path d="M141.151,72.373 C142.098,72.34 142.841,71.546 142.808,70.598 C142.776,69.65 141.981,68.91 141.032,68.942 C140.085,68.974 139.344,69.768 139.377,70.716 C139.408,71.664 140.204,72.405 141.151,72.373" id="Fill-158" fill="#FFFFFF"></path>
                <path d="M138.3,54.224 C138.331,55.171 139.126,55.912 140.074,55.88 C141.021,55.847 141.761,55.054 141.729,54.106 C141.696,53.158 140.903,52.417 139.954,52.449 C139.008,52.482 138.268,53.276 138.3,54.224" id="Fill-159" fill="#FFFFFF"></path>
                <path d="M100.729,68.384 C101.677,68.352 102.416,67.558 102.384,66.609 C102.352,65.662 101.558,64.921 100.609,64.954 C99.662,64.985 98.922,65.78 98.955,66.727 C98.985,67.675 99.781,68.417 100.729,68.384" id="Fill-160" fill="#FFFFFF"></path>
                <path d="M89.83,43.503 C88.883,43.535 88.141,44.329 88.175,45.275 C88.208,46.225 89,46.966 89.948,46.934 C90.895,46.901 91.638,46.107 91.605,45.158 C91.573,44.211 90.779,43.469 89.83,43.503" id="Fill-161" fill="#FFFFFF"></path>
                <path d="M80.104,45.177 C80.987,45.146 81.682,44.402 81.652,43.514 C81.622,42.628 80.877,41.935 79.991,41.965 C79.104,41.996 78.41,42.738 78.442,43.626 C78.47,44.513 79.215,45.208 80.104,45.177" id="Fill-162" fill="#FFFFFF"></path>
                <path d="M85.193,53.562 C84.501,53.536 83.92,54.075 83.895,54.766 C83.87,55.456 84.41,56.037 85.101,56.063 C85.791,56.088 86.37,55.549 86.396,54.857 C86.425,54.168 85.883,53.586 85.193,53.562" id="Fill-163" fill="#FFFFFF"></path>
                <path d="M118.384,69.17 C119.465,69.21 120.378,68.364 120.417,67.281 C120.458,66.197 119.611,65.288 118.529,65.247 C117.447,65.206 116.533,66.052 116.493,67.135 C116.454,68.22 117.3,69.128 118.384,69.17" id="Fill-164" fill="#FFFFFF"></path>
                <path d="M144.189,62.288 C144.152,63.334 144.97,64.214 146.019,64.253 C147.065,64.292 147.942,63.476 147.981,62.427 C148.021,61.38 147.203,60.5 146.157,60.462 C145.11,60.423 144.23,61.24 144.189,62.288" id="Fill-165" fill="#FFFFFF"></path>
                <path d="M90.134,32.565 C90.749,32.589 91.264,32.11 91.288,31.496 C91.309,30.884 90.831,30.371 90.218,30.347 C89.604,30.325 89.09,30.803 89.068,31.416 C89.045,32.027 89.523,32.543 90.134,32.565" id="Fill-166" fill="#FFFFFF"></path>
                <path d="M118.049,27.382 C118.9,27.414 119.617,26.749 119.648,25.897 C119.68,25.045 119.017,24.328 118.163,24.297 C117.313,24.266 116.594,24.932 116.563,25.783 C116.532,26.634 117.196,27.351 118.049,27.382" id="Fill-167" fill="#FFFFFF"></path>
                <path d="M105.298,67.611 C105.321,66.922 104.784,66.342 104.092,66.317 C103.402,66.291 102.822,66.83 102.796,67.52 C102.77,68.211 103.309,68.793 103.999,68.817 C104.692,68.844 105.27,68.304 105.298,67.611" id="Fill-168" fill="#FFFFFF"></path>
                <path d="M132.188,62.311 C132.162,63.002 132.703,63.583 133.394,63.609 C134.083,63.634 134.663,63.095 134.69,62.402 C134.716,61.713 134.177,61.133 133.484,61.107 C132.793,61.082 132.212,61.62 132.188,62.311" id="Fill-169" fill="#FFFFFF"></path>
                <path d="M90.33,62.989 C90.363,63.938 91.156,64.679 92.105,64.648 C93.052,64.614 93.794,63.819 93.762,62.872 C93.727,61.925 92.935,61.184 91.987,61.216 C91.04,61.249 90.298,62.043 90.33,62.989" id="Fill-170" fill="#FFFFFF"></path>
                <path d="M68.821,73.415 C69.768,73.382 70.51,72.589 70.478,71.64 C70.445,70.692 69.649,69.951 68.703,69.985 C67.754,70.017 67.014,70.809 67.046,71.759 C67.079,72.706 67.873,73.447 68.821,73.415" id="Fill-171" fill="#FFFFFF"></path>
                <path d="M73.173,66.709 C73.829,66.734 74.383,66.221 74.405,65.561 C74.431,64.906 73.92,64.355 73.26,64.33 C72.606,64.306 72.052,64.818 72.028,65.475 C72.005,66.132 72.518,66.684 73.173,66.709" id="Fill-172" fill="#FFFFFF"></path>
                <path d="M72.729,71.087 C73.581,71.118 74.297,70.453 74.329,69.6 C74.36,68.749 73.695,68.033 72.843,68.002 C71.991,67.97 71.274,68.635 71.243,69.486 C71.211,70.338 71.877,71.054 72.729,71.087" id="Fill-173" fill="#FFFFFF"></path>
                <path d="M68,64.121 C68.655,64.147 69.207,63.633 69.231,62.975 C69.257,62.319 68.744,61.767 68.086,61.744 C67.43,61.718 66.878,62.232 66.854,62.887 C66.829,63.544 67.342,64.096 68,64.121" id="Fill-174" fill="#FFFFFF"></path>
                <path d="M89.879,70.489 C89.847,69.542 89.054,68.802 88.106,68.835 C87.158,68.866 86.416,69.661 86.45,70.608 C86.482,71.556 87.277,72.297 88.224,72.265 C89.169,72.233 89.911,71.439 89.879,70.489" id="Fill-175" fill="#FFFFFF"></path>
                <path d="M84.833,68.186 C84.143,68.16 83.56,68.699 83.537,69.389 C83.511,70.078 84.05,70.66 84.74,70.686 C85.432,70.712 86.011,70.173 86.039,69.481 C86.062,68.791 85.524,68.211 84.833,68.186" id="Fill-176" fill="#FFFFFF"></path>
                <path d="M111.927,34.34 C110.98,34.373 110.241,35.167 110.272,36.113 C110.304,37.064 111.1,37.805 112.046,37.772 C112.996,37.739 113.735,36.945 113.703,35.996 C113.67,35.048 112.875,34.307 111.927,34.34" id="Fill-177" fill="#FFFFFF"></path>
                <path d="M121.215,41.059 C121.24,40.37 120.701,39.789 120.009,39.764 C119.32,39.738 118.738,40.277 118.715,40.967 C118.687,41.658 119.228,42.239 119.918,42.265 C120.608,42.291 121.189,41.751 121.215,41.059" id="Fill-178" fill="#FFFFFF"></path>
                <path d="M130.141,49.175 C130.141,48.009 129.194,47.065 128.029,47.065 C126.862,47.065 125.918,48.009 125.918,49.175 C125.918,50.342 126.862,51.287 128.029,51.287 C129.194,51.287 130.141,50.342 130.141,49.175" id="Fill-179" fill="#FFFFFF"></path>
                <path d="M95.293,36.963 C95.321,36.19 94.717,35.538 93.942,35.511 C93.166,35.482 92.516,36.087 92.489,36.86 C92.458,37.634 93.065,38.285 93.837,38.314 C94.611,38.344 95.263,37.739 95.293,36.963" id="Fill-180" fill="#FFFFFF"></path>
            </g>
        </g>
    </g>
</svg>