<?xml version="1.0" encoding="UTF-8" standalone="no"?>
<svg width="44px" height="48px" viewBox="0 0 44 48" version="1.1" xmlns="http://www.w3.org/2000/svg" xmlns:xlink="http://www.w3.org/1999/xlink">
    <!-- Generator: Sketch 3.8.1 (29687) - http://www.bohemiancoding.com/sketch -->
    <title>people</title>
    <desc>Created with Sketch.</desc>
    <defs></defs>
    <g id="Navigation" stroke="none" stroke-width="1" fill="none" fill-rule="evenodd">
        <g id="ez-enews" transform="translate(-780.000000, -1332.000000)" fill="#003478">
            <g id="people" transform="translate(780.000000, 1332.000000)">
                <g id="Group">
                    <path d="M9.32608696,14.026087 C5.65652174,14.026087 2.6673913,11.0391304 2.6673913,7.3673913 C2.6673913,3.69565217 5.65652174,0.710869565 9.32608696,0.710869565 C12.9956522,0.710869565 15.9847826,3.69782609 15.9847826,7.36956522 C15.9847826,11.0413043 12.9956522,14.026087 9.32608696,14.026087 L9.32608696,14.026087 Z M9.32608696,2.88478261 C6.85434783,2.88478261 4.84130435,4.89565217 4.84130435,7.36956522 C4.84130435,9.84347826 6.85434783,11.8521739 9.32608696,11.8521739 C11.7978261,11.8521739 13.8108696,9.84130435 13.8108696,7.3673913 C13.8108696,4.89347826 11.7978261,2.88478261 9.32608696,2.88478261 L9.32608696,2.88478261 Z" id="Shape"></path>
                    <path d="M11.7717391,47.9130435 L6.88043478,47.9130435 C5.0826087,47.9130435 3.61956522,46.45 3.61956522,44.6521739 L3.61956522,35.0478261 C1.86304348,35.0021739 0.45,33.5565217 0.45,31.7891304 L0.45,19.0173913 C0.45,17.2195652 1.91304348,15.7565217 3.71086957,15.7565217 L14.9434783,15.7565217 C16.7413043,15.7565217 18.2043478,17.2195652 18.2043478,19.0173913 L18.2043478,31.7891304 C18.2043478,33.5565217 16.7913043,35.0021739 15.0347826,35.0478261 L15.0347826,44.6521739 C15.0326087,46.45 13.5695652,47.9130435 11.7717391,47.9130435 L11.7717391,47.9130435 Z M3.71086957,17.9304348 C3.11086957,17.9304348 2.62391304,18.4173913 2.62391304,19.0173913 L2.62391304,31.7891304 C2.62391304,32.3869565 3.11086957,32.876087 3.71086957,32.876087 L4.70652174,32.876087 C5.30652174,32.876087 5.79347826,33.3630435 5.79347826,33.9630435 L5.79347826,44.6521739 C5.79347826,45.25 6.28043478,45.7391304 6.88043478,45.7391304 L11.7717391,45.7391304 C12.3717391,45.7391304 12.8586957,45.25 12.8586957,44.6521739 L12.8586957,33.9630435 C12.8586957,33.3630435 13.3456522,32.876087 13.9456522,32.876087 L14.9413043,32.876087 C15.5413043,32.876087 16.0282609,32.3869565 16.0282609,31.7891304 L16.0282609,19.0173913 C16.0282609,18.4173913 15.5413043,17.9304348 14.9413043,17.9304348 L3.71086957,17.9304348 L3.71086957,17.9304348 Z" id="Shape"></path>
                    <path d="M32.8326087,14.026087 C29.1630435,14.026087 26.173913,11.0391304 26.173913,7.3673913 C26.173913,3.69565217 29.1608696,0.708695652 32.8326087,0.708695652 C36.5043478,0.708695652 39.4913043,3.69565217 39.4913043,7.3673913 C39.4913043,11.0391304 36.5021739,14.026087 32.8326087,14.026087 L32.8326087,14.026087 Z M32.8326087,2.88478261 C30.3586957,2.88478261 28.3478261,4.89565217 28.3478261,7.36956522 C28.3478261,9.84347826 30.3586957,11.8543478 32.8326087,11.8543478 C35.3065217,11.8543478 37.3173913,9.84347826 37.3173913,7.36956522 C37.3173913,4.89565217 35.3043478,2.88478261 32.8326087,2.88478261 L32.8326087,2.88478261 Z" id="Shape"></path>
                    <path d="M35.2782609,47.9130435 L30.3869565,47.9130435 C28.6282609,47.9130435 27.1913043,46.5130435 27.1282609,44.773913 L25.0413043,35.05 C23.2434783,35.05 21.7804348,33.5869565 21.7804348,31.7891304 L23.9673913,18.8369565 C23.9521739,17.2217391 25.4152174,15.7586957 27.2130435,15.7586957 L38.4478261,15.7586957 C40.2456522,15.7586957 41.7086957,17.2217391 41.7086957,19.0195652 L43.8673913,31.6086957 C43.8826087,33.5891304 42.4195652,35.0521739 40.6217391,35.0521739 L40.5108696,35.0521739 L38.5347826,44.776087 C38.4717391,46.5130435 37.0347826,47.9130435 35.2782609,47.9130435 L35.2782609,47.9130435 Z M27.2152174,17.9304348 C26.6173913,17.9304348 26.1282609,18.4173913 26.1282609,19.0173913 L23.9391304,31.9695652 C23.9543478,32.3847826 24.4413043,32.873913 25.0413043,32.873913 L26.0391304,32.873913 C26.5543478,32.873913 27,33.2369565 27.1043478,33.7434783 L29.2782609,44.4326087 C29.2934783,44.5043478 29.3,44.576087 29.3,44.65 C29.3,45.2478261 29.7891304,45.7369565 30.3869565,45.7369565 L35.2782609,45.7369565 C35.876087,45.7369565 36.3652174,45.2478261 36.3652174,44.65 C36.3652174,44.5782609 36.3717391,44.5065217 36.3869565,44.4326087 L38.5608696,33.7434783 C38.6652174,33.2369565 39.1108696,32.873913 39.626087,32.873913 L40.623913,32.873913 C41.2217391,32.873913 41.7108696,32.3847826 41.7108696,31.7869565 L39.5521739,19.1978261 C39.5369565,18.4152174 39.05,17.9282609 38.45,17.9282609 L27.2152174,17.9282609 L27.2152174,17.9304348 Z" id="Shape"></path>
                </g>
            </g>
        </g>
    </g>
</svg>