<?xml version="1.0" encoding="UTF-8" standalone="no"?>
<svg width="24px" height="23px" viewBox="0 0 24 23" version="1.1" xmlns="http://www.w3.org/2000/svg" xmlns:xlink="http://www.w3.org/1999/xlink">
    <!-- Generator: Sketch 3.8.1 (29687) - http://www.bohemiancoding.com/sketch -->
    <title>search</title>
    <desc>Created with Sketch.</desc>
    <defs></defs>
    <g id="Navigation" stroke="none" stroke-width="1" fill="none" fill-rule="evenodd">
        <g id="ez-enews" transform="translate(-1051.000000, -29.000000)" fill="#959AA1">
            <g id="Header" transform="translate(230.000000, 29.000000)">
                <g id="search" transform="translate(821.000000, 0.000000)">
                    <g id="icon-B-Magnifying">
                        <g id="Group">
                            <g id="Shape">
                                <path d="M7.61060849,12.7029542 L7.60484983,15.9410629 L7.60420996,16.3008528 L7.96701545,16.3002183 L9.41823749,16.2976801 L9.78104299,16.2970456 L9.78168286,15.9372557 L9.78680165,13.0589368 L9.78744152,12.699147 L9.42463598,12.6997815 L7.97341399,12.7023196 L7.61060849,12.7029542 L7.61060849,12.7029542 L7.61060849,12.7029542 Z M8.24205398,13.2299999 L9.1495975,13.2299999 L9.1495975,15.7699999 L8.24205398,15.7699999 L8.24205398,13.2299999 L8.24205398,13.2299999 L8.24205398,13.2299999 Z" transform="translate(8.695826, 14.500000) rotate(45.000000) translate(-8.695826, -14.500000) "></path>
                                <path d="M15.6299162,16 C20.0852268,16 23.6969697,12.418278 23.6969697,8 C23.6969697,3.581722 20.0852268,0 15.6299162,0 C11.1746055,0 7.56286267,3.581722 7.56286267,8 C7.56286267,12.418278 11.1746055,16 15.6299162,16 L15.6299162,16 L15.6299162,16 L15.6299162,16 Z M15.6299162,15 C11.7315194,15 8.57124436,11.8659932 8.57124436,8 C8.57124436,4.13400675 11.7315194,1 15.6299162,1 C19.528313,1 22.688588,4.13400675 22.688588,8 C22.688588,11.8659932 19.528313,15 15.6299162,15 L15.6299162,15 L15.6299162,15 L15.6299162,15 Z"></path>
                                <path d="M15.6299162,14.5 C19.249856,14.5 22.1843972,11.5898509 22.1843972,8 C22.1843972,4.41014915 19.249856,1.5 15.6299162,1.5 C12.0099763,1.5 9.0754352,4.41014915 9.0754352,8 C9.0754352,11.5898509 12.0099763,14.5 15.6299162,14.5 L15.6299162,14.5 L15.6299162,14.5 L15.6299162,14.5 Z M15.6299162,13.5 C12.5668901,13.5 10.0838169,11.0375661 10.0838169,8 C10.0838169,4.9624339 12.5668901,2.5 15.6299162,2.5 C18.6929422,2.5 21.1760155,4.9624339 21.1760155,8 C21.1760155,11.0375661 18.6929422,13.5 15.6299162,13.5 L15.6299162,13.5 L15.6299162,13.5 L15.6299162,13.5 Z"></path>
                                <path d="M15.5202276,3.175 C15.2247989,3.175 14.93444,3.22495492 14.6552461,3.32229442 C14.4844941,3.38182618 14.3947368,3.56735743 14.4547676,3.73669007 C14.5147984,3.90602271 14.7018847,3.99503391 14.8726366,3.93550215 C15.0825466,3.86231813 15.2994552,3.825 15.5202276,3.825 C15.7012246,3.825 15.8479516,3.67949254 15.8479516,3.5 C15.8479516,3.32050745 15.7012246,3.175 15.5202276,3.175 L15.5202276,3.175 L15.5202276,3.175 L15.5202276,3.175 Z M13.4587129,3.67190958 C12.1202821,4.3810848 11.2686654,5.74244845 11.2686654,7.25 C11.2686654,7.42949255 11.4153924,7.575 11.5963894,7.575 C11.7773864,7.575 11.9241135,7.42949255 11.9241135,7.25 C11.9241135,5.9862238 12.6392164,4.84308605 13.7675927,4.2452095 C13.927232,4.1606237 13.9875001,3.96371578 13.9022054,3.80540338 C13.8169106,3.64709099 13.6183523,3.58732378 13.4587129,3.67190958 L13.4587129,3.67190958 L13.4587129,3.67190958 L13.4587129,3.67190958 Z"></path>
                                <path d="M3.81824485,15.6887334 C3.81824485,15.6887334 3.75429629,14.6534721 4.70057883,14.6534721 C5.64686137,14.6534721 5.58291278,15.6887334 5.58291278,15.6887334 L5.58291278,22.0808007 L3.81824485,22.0808007 L3.81824485,15.6887334 L3.81824485,15.6887334 Z M2.85067064,15.5731417 C2.85067064,15.5731417 2.86333758,13.6095025 4.73462873,13.5976311 C6.60591989,13.5857597 6.59325295,15.549399 6.59325295,15.549399 L6.54836529,22.5079181 C6.54660249,22.7811917 6.3222659,23.0041379 6.0481874,23.0058766 L3.29957715,23.0233137 C3.02509934,23.0250549 2.80403003,22.8034033 2.80578299,22.5316609 L2.85067064,15.5731417 L2.85067064,15.5731417 L2.85067064,15.5731417 Z" transform="translate(4.699513, 18.310451) rotate(45.000000) translate(-4.699513, -18.310451) "></path>
                            </g>
                        </g>
                    </g>
                </g>
            </g>
        </g>
    </g>
</svg>