<?xml version="1.0" encoding="UTF-8" standalone="no"?>
<svg width="31px" height="23px" viewBox="0 0 31 23" version="1.1" xmlns="http://www.w3.org/2000/svg" xmlns:xlink="http://www.w3.org/1999/xlink">
    <!-- Generator: Sketch 3.8.1 (29687) - http://www.bohemiancoding.com/sketch -->
    <title>twitter</title>
    <desc>Created with Sketch.</desc>
    <defs></defs>
    <g id="Navigation" stroke="none" stroke-width="1" fill="none" fill-rule="evenodd">
        <g id="ez-enews" transform="translate(-1191.000000, -29.000000)" fill="#0098DB">
            <g id="Header" transform="translate(230.000000, 29.000000)">
                <g id="twitter" transform="translate(961.000000, 0.000000)">
                    <path d="M26.7952128,6.28829787 C26.6497184,5.62765957 26.09199,3.32765957 25.2190238,2.44680851 L25.1462766,2.37340426 C24.2005632,1.41914894 23.1336045,0.342553191 20.4904568,0.0978723404 C20.2964643,0.0734042553 20.1024718,0.0734042553 19.9084793,0.0734042553 C17.4835732,0.0734042553 16.1256258,1.51702128 15.1314143,2.93617021 C14.622184,3.64574468 14.2826971,4.64893617 13.9189612,5.72553191 C13.5552253,6.77765957 13.1914894,7.8787234 12.633761,8.61276596 C11.4940551,10.1787234 9.43288486,10.4723404 8.29317897,10.5212766 L8.07493742,10.5212766 C6.69274093,10.5212766 4.99530663,10.056383 3.56461202,9.27340426 C2.35215895,8.61276596 1.0669587,7.02234043 1.04270964,6.99787234 L0.484981227,6.33723404 L0.387984981,7.19361702 C0.387984981,7.31595745 0.0969962453,9.90957447 0.242490613,11.7691489 C0.460732165,14.5585106 1.89142678,17.5191489 3.92834793,19.5010638 C6.37750313,21.85 9.72387359,23 14.2099499,23 C20.975438,23 24.0065707,18.0819149 25.1462766,16.2223404 C26.3829787,14.2159574 26.6497184,11.8180851 26.6982165,11.1085106 L30.9418023,8.39255319 L26.7952128,6.28829787 L26.7952128,6.28829787 Z M25.9949937,10.6925532 L25.9949937,10.8882979 C25.9949937,10.912766 25.8737484,13.6531915 24.5400501,15.8308511 C23.4488423,17.5925532 20.563204,22.2659574 14.2099499,22.2659574 C9.91786608,22.2659574 6.74123905,21.1893617 4.46182728,18.987234 C2.5704005,17.1521277 1.21245307,14.3138298 1.01846058,11.7202128 C0.92146433,10.5702128 1.01846058,9.05319149 1.09120776,8.12340426 C1.62468711,8.68617021 2.44915519,9.46914894 3.24937422,9.93404255 C4.77706508,10.7659574 6.59574468,11.2797872 8.09918648,11.2797872 L8.3416771,11.2797872 C9.60262829,11.2308511 11.9305382,10.8882979 13.2399875,9.07765957 C13.846214,8.24574468 14.234199,7.09574468 14.622184,5.99468085 C14.9616708,4.99148936 15.3011577,4.03723404 15.7376408,3.40106383 C16.6833542,2.07978723 17.8230601,0.856382979 19.9084793,0.856382979 C20.0782228,0.856382979 20.2479662,0.856382979 20.4419587,0.880851064 C22.8183667,1.10106383 23.739831,2.03085106 24.6370463,2.93617021 L24.7097935,3.00957447 C25.4130163,3.71914894 25.9707447,5.87234043 26.116239,6.65531915 L26.1404881,6.82659574 L29.4626095,8.49042553 L25.9949937,10.6925532 L25.9949937,10.6925532 Z" id="Shape"></path>
                    <path d="M21.9696496,3.69468085 C20.7814456,3.69468085 19.8114831,4.67340426 19.8114831,5.87234043 C19.8114831,7.0712766 20.7814456,8.05 21.9696496,8.05 C23.1578536,8.05 24.127816,7.0712766 24.127816,5.87234043 C24.127816,4.67340426 23.1578536,3.69468085 21.9696496,3.69468085 L21.9696496,3.69468085 Z M21.9696496,7.29148936 C21.1936796,7.29148936 20.5389549,6.65531915 20.5389549,5.84787234 C20.5389549,5.04042553 21.1694305,4.40425532 21.9696496,4.40425532 C22.7698686,4.40425532 23.4003442,5.04042553 23.4003442,5.84787234 C23.4003442,6.65531915 22.7698686,7.29148936 21.9696496,7.29148936 L21.9696496,7.29148936 Z" id="Shape"></path>
                </g>
            </g>
        </g>
    </g>
</svg>