<?xml version="1.0" encoding="UTF-8" standalone="no"?>
<svg width="33px" height="23px" viewBox="0 0 33 23" version="1.1" xmlns="http://www.w3.org/2000/svg" xmlns:xlink="http://www.w3.org/1999/xlink">
    <!-- Generator: Sketch 3.8.1 (29687) - http://www.bohemiancoding.com/sketch -->
    <title>youtube</title>
    <desc>Created with Sketch.</desc>
    <defs></defs>
    <g id="Navigation" stroke="none" stroke-width="1" fill="none" fill-rule="evenodd">
        <g id="ez-enews" transform="translate(-1099.000000, -29.000000)">
            <g id="Header" transform="translate(230.000000, 29.000000)">
                <g id="youtube" transform="translate(869.000000, 0.000000)">
                    <path d="M31.4547258,3.8465779 C31.0629839,2.15125532 29.670371,0.90183596 27.9947097,0.715239186 C24.0257258,0.273416606 20.0088871,-0.0022124266 16.0091129,1.33798526e-05 C12.0093387,-0.0022124266 7.99212903,0.273416606 4.02277419,0.715239186 C2.3471129,0.90183596 0.955241935,2.15125532 0.563870968,3.8465779 C0.0070483871,6.26009403 0,8.89433596 0,11.3798198 C0,13.8649327 0,16.4991747 0.557193548,18.9130618 C0.948935484,20.6069005 2.34080645,21.8578037 4.01646774,22.0432876 C7.98545161,22.4851102 12.0022903,22.7607392 16.0024355,22.7588843 C20.0022097,22.7607392 24.0194194,22.4854811 27.9880323,22.0432876 C29.6640645,21.8574327 31.0563065,20.6069005 31.4480484,18.9130618 C32.004871,16.4991747 32.0089516,13.8649327 32.0089516,11.3798198 C32.0089516,8.89470693 32.0119194,6.26009403 31.4547258,3.8465779" id="Shape" fill="#0098DB"></path>
                    <path d="M19.9495323,12.1601145 L12.4040484,16.2396468 C11.6539516,16.6454855 11.04,16.2793403 11.04,15.4268565 L11.04,7.41877581 C11.04,6.56592097 11.6535806,6.19977581 12.4040484,6.60561452 L19.9495323,10.6855177 C20.7,11.0906145 20.7,11.7546468 19.9495323,12.1601145" id="Path" fill="#FFFFFF"></path>
                </g>
            </g>
        </g>
    </g>
</svg>