<?xml version="1.0" encoding="UTF-8" standalone="no"?>
<svg width="81px" height="81px" viewBox="0 0 81 81" version="1.1" xmlns="http://www.w3.org/2000/svg" xmlns:xlink="http://www.w3.org/1999/xlink">
    <!-- Generator: Sketch 3.8.1 (29687) - http://www.bohemiancoding.com/sketch -->
    <title>Twitter</title>
    <desc>Created with Sketch.</desc>
    <defs>
        <filter x="-50%" y="-50%" width="200%" height="200%" filterUnits="objectBoundingBox" id="filter-1">
            <feOffset dx="0" dy="0" in="SourceAlpha" result="shadowOffsetOuter1"></feOffset>
            <feGaussianBlur stdDeviation="2" in="shadowOffsetOuter1" result="shadowBlurOuter1"></feGaussianBlur>
            <feColorMatrix values="0 0 0 0 0   0 0 0 0 0   0 0 0 0 0  0 0 0 0.5 0" type="matrix" in="shadowBlurOuter1" result="shadowMatrixOuter1"></feColorMatrix>
            <feMerge>
                <feMergeNode in="shadowMatrixOuter1"></feMergeNode>
                <feMergeNode in="SourceGraphic"></feMergeNode>
            </feMerge>
        </filter>
    </defs>
    <g id="Navigation" stroke="none" stroke-width="1" fill="none" fill-rule="evenodd">
        <g id="ez-homepage" transform="translate(-1071.000000, -1175.000000)">
            <g id="Twitter" filter="url(#filter-1)" transform="translate(1075.000000, 1179.000000)">
                <circle id="Oval-1-Copy" fill="#41ADE0" cx="36.5" cy="36.5" r="36.5"></circle>
                <g id="noun_101102" transform="translate(16.801587, 22.015873)" fill="#FFFFFF">
                    <g id="Group">
                        <path d="M34.0531071,7.9200439 C33.8682033,7.08797703 33.1594056,4.19115164 32.0499831,3.08172915 L31.9575312,2.98927727 C30.7556569,1.7874029 29.399696,0.43144208 26.0406113,0.123269166 C25.7940729,0.0924518744 25.5475346,0.0924518744 25.3009963,0.0924518744 C22.2192671,0.0924518744 20.4934988,1.91067207 19.2299899,3.69807497 C18.5828267,4.59177643 18.1513847,5.85528538 17.6891253,7.2112462 C17.2268659,8.53638973 16.7646066,9.92316785 16.0558088,10.8476866 C14.6073961,12.8199932 11.9879264,13.1898007 10.5395137,13.2514353 L10.2621581,13.2514353 C8.50557244,13.2514353 6.34836204,12.6659068 4.53014184,11.6797535 C2.98927727,10.8476866 1.35596082,8.84456265 1.32514353,8.81374536 L0.616345829,7.98167849 L0.493076663,9.06028369 C0.493076663,9.21437015 0.123269166,12.481003 0.308172915,14.8231172 C0.585528538,18.3362884 2.40374873,22.0651807 4.99240122,24.5613813 C8.10494765,27.5198413 12.3577339,28.968254 18.0589328,28.968254 C26.6569571,28.968254 30.5091185,22.7739784 31.9575312,20.4318642 C33.5292131,17.9048463 33.8682033,14.8847518 33.9298379,13.9910503 L39.3228639,10.570331 L34.0531071,7.9200439 L34.0531071,7.9200439 Z M33.0361364,13.4671564 L33.0361364,13.7136947 C33.0361364,13.744512 32.88205,17.1960486 31.187099,19.9387876 C29.8003208,22.1576326 26.1330632,28.0437352 18.0589328,28.0437352 C12.6042722,28.0437352 8.56720702,26.6877744 5.67038163,23.9142182 C3.26663289,21.6029213 1.54086457,18.0281155 1.29432624,14.7614826 C1.17105708,13.3130699 1.29432624,11.4023978 1.38677812,10.2313408 C2.06475853,10.9401385 3.11254644,11.9262918 4.12951706,12.5118203 C6.07100642,13.5596082 8.38230328,14.2067714 10.2929753,14.2067714 L10.6011483,14.2067714 C12.2036474,14.1451368 15.1621074,13.7136947 16.8262411,11.4332151 C17.5966734,10.3854272 18.0897501,8.93701452 18.5828267,7.55023641 C19.0142688,6.28672746 19.4457109,5.08485309 20.0004222,4.28360351 C21.2022965,2.61946977 22.6507092,1.0786052 25.3009963,1.0786052 C25.5167173,1.0786052 25.7324384,1.0786052 25.9789767,1.10942249 C28.9990713,1.38677812 30.1701283,2.55783519 31.3103681,3.69807497 L31.40282,3.79052685 C32.2965214,4.6842283 33.0053191,7.39614995 33.1902229,8.38230328 L33.2210402,8.59802432 L37.4430091,10.6936001 L33.0361364,13.4671564 L33.0361364,13.4671564 Z" id="Shape"></path>
                        <path d="M27.9204661,4.65341101 C26.4104188,4.65341101 25.1777271,5.88610267 25.1777271,7.39614995 C25.1777271,8.90619723 26.4104188,10.1388889 27.9204661,10.1388889 C29.4305133,10.1388889 30.663205,8.90619723 30.663205,7.39614995 C30.663205,5.88610267 29.4305133,4.65341101 27.9204661,4.65341101 L27.9204661,4.65341101 Z M27.9204661,9.18355285 C26.9343127,9.18355285 26.1022459,8.38230328 26.1022459,7.36533266 C26.1022459,6.34836204 26.9034954,5.54711246 27.9204661,5.54711246 C28.9374367,5.54711246 29.7386863,6.34836204 29.7386863,7.36533266 C29.7386863,8.38230328 28.9374367,9.18355285 27.9204661,9.18355285 L27.9204661,9.18355285 Z" id="Shape"></path>
                    </g>
                </g>
            </g>
        </g>
    </g>
</svg>